<svg width="40" height="40" viewBox="0 0 40 40" fill="none" xmlns="http://www.w3.org/2000/svg">
<g clip-path="url(#clip0)">
<path d="M38.5026 35.3171V34.0034C38.5026 33.3059 37.9351 32.7384 37.2376 32.7384H36.5516V31.9003C36.5516 31.0943 35.9711 30.4224 35.2066 30.2779V17.9912C35.9711 17.8467 36.5516 17.1748 36.5516 16.3689V15.4469H36.6908C37.6898 15.4469 38.5025 14.6342 38.5025 13.6352V12.7074C40.3092 12.304 40.5371 9.84487 38.8713 9.09737L20.7992 0.987993C20.3023 0.765103 19.7323 0.764868 19.2353 0.987525L1.13018 9.09784C-0.361387 9.76604 -0.379825 11.8747 1.09635 12.5709C1.22353 12.6309 1.35799 12.6767 1.4958 12.7074V13.6351C1.4958 14.6341 2.30853 15.4468 3.30752 15.4468H3.44674V16.3688C3.44674 17.1747 4.02721 17.8467 4.79174 17.9911V19.6804C4.79174 20.0038 5.05385 20.2659 5.37721 20.2659C5.70057 20.2659 5.96268 20.0038 5.96268 19.6804V18.0208H8.53815V30.2481H5.96268V22.4176C5.96268 22.0942 5.70057 21.8321 5.37721 21.8321C5.05385 21.8321 4.79174 22.0942 4.79174 22.4176V30.2778C4.02721 30.4224 3.44674 31.0943 3.44674 31.9002V32.7383H2.76072C2.06322 32.7383 1.49572 33.3058 1.49572 34.0033V35.3244C0.660644 35.5059 0.0332223 36.2503 0.0332223 37.1389V38.0517C0.0332223 38.6735 0.53916 39.1794 1.16103 39.1794H38.8724C39.4943 39.1794 40.0002 38.6735 40.0002 38.0517V37.1389C40.0003 36.2379 39.3552 35.485 38.5026 35.3171ZM35.3807 31.9003V32.7384H30.1153V31.9003C30.1153 31.635 30.3311 31.4191 30.5964 31.4191H34.8995C35.1648 31.4191 35.3807 31.635 35.3807 31.9003ZM23.8038 32.7384V31.9003C23.8038 31.0943 23.2235 30.4224 22.4589 30.2779V17.9912C23.2235 17.8467 23.8038 17.1748 23.8038 16.3689V15.4469H28.9443V16.3689C28.9443 17.1748 29.5247 17.8467 30.2893 17.9912V25.906C30.2893 26.2294 30.5514 26.4915 30.8748 26.4915C31.1981 26.4915 31.4603 26.2294 31.4603 25.906V18.0209H34.0357V30.2482H31.4603V28.6431C31.4603 28.3197 31.1981 28.0576 30.8748 28.0576C30.5514 28.0576 30.2893 28.3197 30.2893 28.6431V30.2778C29.5247 30.4223 28.9443 31.0943 28.9443 31.9002V32.7383H23.8038V32.7384ZM17.3675 32.7384V31.9003C17.3675 31.635 17.5834 31.4191 17.8487 31.4191H22.1517C22.417 31.4191 22.6329 31.635 22.6329 31.9003V32.7384H17.3675ZM11.0541 32.7384V31.9003C11.0541 31.0943 10.4737 30.4224 9.70908 30.2779V17.9912C10.4737 17.8467 11.0541 17.1748 11.0541 16.3689V15.4469H16.1967V16.3689C16.1967 17.1748 16.7771 17.8467 17.5417 17.9912V30.2779C16.7771 30.4225 16.1967 31.0944 16.1967 31.9003V32.7384H11.0541ZM22.633 15.4468V16.3688C22.633 16.6341 22.4171 16.8499 22.1518 16.8499H17.8488C17.5835 16.8499 17.3676 16.6341 17.3676 16.3688V15.4468H22.633ZM18.7125 30.2482V18.0209H21.288V30.2482H18.7125ZM35.3807 16.3688C35.3807 16.6341 35.1649 16.8499 34.8996 16.8499H30.5965C30.3312 16.8499 30.1153 16.6341 30.1153 16.3688V15.4468H35.3808V16.3688H35.3807ZM1.60885 10.1664L19.7141 2.05604C19.9004 1.97252 20.1214 1.96713 20.3199 2.0562L38.3921 10.1656C39.1181 10.4914 38.888 11.5825 38.0867 11.5825H1.91158C1.80307 11.5825 1.69385 11.5581 1.5958 11.5118H1.59572C1.02221 11.2414 1.02971 10.4259 1.60885 10.1664ZM2.66674 13.6351V12.7535H37.3317V13.6351C37.3317 13.9885 37.0442 14.276 36.6909 14.276H3.30752C2.95416 14.276 2.66674 13.9885 2.66674 13.6351ZM4.61768 16.3688V15.4468H9.88314V16.3688C9.88314 16.6341 9.66728 16.8499 9.40197 16.8499H5.09893C4.83361 16.8499 4.61768 16.6341 4.61768 16.3688ZM4.61768 31.9003C4.61768 31.635 4.83354 31.4191 5.09885 31.4191H9.40189C9.66721 31.4191 9.88307 31.635 9.88307 31.9003V32.7384H4.61768V31.9003ZM2.7608 33.9093H37.2376C37.2895 33.9093 37.3317 33.9515 37.3317 34.0034V35.2818H2.66674V34.0034C2.66674 33.9515 2.70893 33.9093 2.7608 33.9093ZM38.8293 38.0085H1.20416V37.139C1.20416 36.7607 1.51205 36.4528 1.89041 36.4528H38.1431C38.5214 36.4528 38.8293 36.7607 38.8293 37.139V38.0085Z" fill="white"/>
<path d="M19.9994 10.4472C21.6565 10.4472 23.0046 9.09903 23.0046 7.44192C23.0046 5.78481 21.6564 4.43677 19.9994 4.43677C18.3423 4.43677 16.9942 5.78489 16.9942 7.44192C16.9942 9.09895 18.3423 10.4472 19.9994 10.4472ZM19.9994 5.6077C21.0108 5.6077 21.8337 6.43052 21.8337 7.442C21.8337 8.45348 21.0108 9.27629 19.9994 9.27629C18.988 9.27629 18.1651 8.4534 18.1651 7.442C18.1651 6.43059 18.988 5.6077 19.9994 5.6077Z" fill="white"/>
</g>
<defs>
<clipPath id="clip0">
<rect width="40" height="40" fill="white"/>
</clipPath>
</defs>
</svg>
