<svg width="1920" height="298" viewBox="0 0 1920 298" fill="none" xmlns="http://www.w3.org/2000/svg">
<rect y="0.000976562" width="1920" height="298" fill="#F0F0F0"/>
<path opacity="0.8" d="M-81.5053 287.026L-18.1587 139.012L145.88 81.2994L290.033 142.994C309.339 151.256 325.639 152.902 338.934 147.932C352.228 142.962 361.262 134.9 366.036 123.745C370.81 112.59 370.314 100.703 364.548 88.0831C358.965 75.034 346.521 64.3782 327.214 56.1156L155.389 -17.4216L111.289 -163.452L391.872 -43.3684C418.901 -31.8008 440.569 -17.1973 456.878 0.442148C473.37 17.6525 485.236 36.1826 492.477 56.0325C500.146 76.066 503.343 96.4695 502.067 117.243C501.219 138.2 496.756 158.117 488.677 176.994C482.618 191.152 474.72 204.269 464.983 216.345C455.43 227.993 444.344 238.476 431.726 247.797C419.291 256.688 405.385 263.681 390.007 268.774C374.813 273.439 358.331 275.776 340.561 275.785L372.834 481.473L249.274 428.592L220.227 240.274L105.676 191.249L42.0544 339.907L-81.5053 287.026Z" fill="#F9F9F9"/>
</svg>
