<svg width="40" height="40" viewBox="0 0 40 40" fill="none" xmlns="http://www.w3.org/2000/svg">
<g clip-path="url(#clip0)">
<path d="M4.31732 2.24707C3.37006 2.24707 2.59949 3.01794 2.59949 3.9649C2.59949 4.91217 3.37006 5.68304 4.31732 5.68304C5.26459 5.68304 6.03546 4.91217 6.03546 3.9649C6.03546 3.01794 5.26459 2.24707 4.31732 2.24707ZM4.31732 4.51208C4.01581 4.51208 3.77014 4.26672 3.77014 3.9649C3.77014 3.66339 4.01581 3.41803 4.31732 3.41803C4.61914 3.41803 4.8645 3.66339 4.8645 3.9649C4.8645 4.26672 4.61914 4.51208 4.31732 4.51208Z" fill="white"/>
<path d="M8.69141 2.24707C7.74414 2.24707 6.97327 3.01794 6.97327 3.9649C6.97327 4.91217 7.74414 5.68304 8.69141 5.68304C9.63867 5.68304 10.4092 4.91217 10.4092 3.9649C10.4092 3.01794 9.63867 2.24707 8.69141 2.24707ZM8.69141 4.51208C8.38959 4.51208 8.14423 4.26672 8.14423 3.9649C8.14423 3.66339 8.38959 3.41803 8.69141 3.41803C8.99292 3.41803 9.23859 3.66339 9.23859 3.9649C9.23859 4.26672 8.99292 4.51208 8.69141 4.51208Z" fill="white"/>
<path d="M13.0652 2.24707C12.118 2.24707 11.3474 3.01794 11.3474 3.9649C11.3474 4.91217 12.118 5.68304 13.0652 5.68304C14.0125 5.68304 14.7834 4.91217 14.7834 3.9649C14.7834 3.01794 14.0125 2.24707 13.0652 2.24707ZM13.0652 4.51208C12.7637 4.51208 12.5181 4.26672 12.5181 3.9649C12.5181 3.66339 12.7637 3.41803 13.0652 3.41803C13.3671 3.41803 13.6124 3.66339 13.6124 3.9649C13.6124 4.26672 13.3671 4.51208 13.0652 4.51208Z" fill="white"/>
<path d="M39.37 11.5487C39.6935 11.5487 39.9557 11.2866 39.9557 10.9631L39.9999 2.57629C39.9999 1.1557 38.8442 0 37.4236 0H2.57659C1.156 0 0 1.156 0 2.57659V30.902C0 32.1896 0.9494 33.2595 2.18475 33.4487C2.31262 33.4686 2.44354 33.4786 2.57659 33.4786H13.9676V35.5782H12.2C11.0211 35.5782 10.0616 36.5374 10.0616 37.7163V38.9812C10.0616 39.5193 10.4992 39.9569 11.0373 39.9569H13.829C14.1522 39.9569 14.4143 39.6947 14.4143 39.3713C14.4143 39.0481 14.1522 38.7859 13.829 38.7859H11.2326V37.7163C11.2326 37.1828 11.6665 36.7489 12.2 36.7489H27.7557C28.2891 36.7489 28.7231 37.1828 28.7231 37.7163V38.7859H17.4633C17.1402 38.7859 16.878 39.0481 16.878 39.3713C16.878 39.6947 17.1402 39.9569 17.4633 39.9569H28.9181C29.4561 39.9569 29.8937 39.5193 29.8937 38.9812V37.7163C29.8937 36.5374 28.9346 35.5782 27.7554 35.5782H25.9878V33.4786H37.3791C37.5121 33.4786 37.6431 33.4686 37.7706 33.4487C39.0063 33.2595 39.9554 32.1896 39.9554 30.902V14.5929C39.9554 14.2694 39.6935 14.0072 39.37 14.0072C39.0469 14.0072 38.7847 14.2694 38.7847 14.5929V27.5106H20.4852V7.96324H38.7847V10.9631C38.7847 11.2866 39.0469 11.5487 39.37 11.5487ZM1.21399 7.96324H19.3142V27.4685H1.21399V7.96324ZM24.8172 35.5782H15.1385V33.4786H24.8172V35.5782ZM38.7847 28.6816V30.902C38.7847 31.6287 38.2305 32.2283 37.5225 32.3007C37.4752 32.3052 37.4276 32.3077 37.3791 32.3077H2.57659C2.52807 32.3077 2.48016 32.3052 2.43316 32.3007C1.72516 32.2283 1.17096 31.6287 1.17096 30.902V28.6816H38.7847ZM19.8999 6.79228H1.21399V2.57629C1.21399 1.80145 1.84448 1.17096 2.61962 1.17096H37.3791C38.1542 1.17096 38.7847 1.80145 38.7847 2.57659V6.79228H19.8999Z" fill="white"/>
<path d="M3.66449 10.2964H6.63049C6.95367 10.2964 7.21582 10.0345 7.21582 9.71106C7.21582 9.38788 6.95367 9.12573 6.63049 9.12573H3.66449C3.341 9.12573 3.07886 9.38788 3.07886 9.71106C3.07886 10.0345 3.341 10.2964 3.66449 10.2964Z" fill="white"/>
<path d="M8.66003 10.2964H10.0651C10.3882 10.2964 10.6504 10.0345 10.6504 9.71106C10.6504 9.38788 10.3882 9.12573 10.0651 9.12573H8.66003C8.33655 9.12573 8.07471 9.38788 8.07471 9.71106C8.07471 10.0345 8.33655 10.2964 8.66003 10.2964Z" fill="white"/>
<path d="M8.1134 11.192H6.16211C5.83893 11.192 5.57678 11.4542 5.57678 11.7776C5.57678 12.1008 5.83893 12.363 6.16211 12.363H8.1134C8.43689 12.363 8.69904 12.1008 8.69904 11.7776C8.69904 11.4542 8.43689 11.192 8.1134 11.192Z" fill="white"/>
<path d="M17.324 13.3325H15.3727C15.0495 13.3325 14.7874 13.5947 14.7874 13.9178C14.7874 14.241 15.0495 14.5032 15.3727 14.5032H17.324C17.6475 14.5032 17.9093 14.241 17.9093 13.9178C17.9093 13.5947 17.6475 13.3325 17.324 13.3325Z" fill="white"/>
<path d="M9.32349 11.7776C9.32349 12.1008 9.58563 12.363 9.90881 12.363H14.592C14.9155 12.363 15.1777 12.1008 15.1777 11.7776C15.1777 11.4542 14.9155 11.192 14.592 11.192H9.90881C9.58563 11.192 9.32349 11.4542 9.32349 11.7776Z" fill="white"/>
<path d="M7.44995 13.9178C7.44995 14.241 7.7121 14.5032 8.03558 14.5032H9.05029C9.37347 14.5032 9.63562 14.241 9.63562 13.9178C9.63562 13.5947 9.37347 13.3325 9.05029 13.3325H8.03558C7.7121 13.3325 7.44995 13.5947 7.44995 13.9178Z" fill="white"/>
<path d="M13.5773 14.5032C13.9008 14.5032 14.1629 14.241 14.1629 13.9178C14.1629 13.5947 13.9008 13.3325 13.5773 13.3325H10.7675C10.444 13.3325 10.1819 13.5947 10.1819 13.9178C10.1819 14.241 10.444 14.5032 10.7675 14.5032H13.5773Z" fill="white"/>
<path d="M7.21582 21.5055C7.21582 21.182 6.95367 20.9202 6.63049 20.9202H3.66449C3.341 20.9202 3.07886 21.182 3.07886 21.5055C3.07886 21.8287 3.341 22.0908 3.66449 22.0908H6.63049C6.95367 22.0908 7.21582 21.8287 7.21582 21.5055Z" fill="white"/>
<path d="M8.66003 20.9202C8.33655 20.9202 8.07471 21.182 8.07471 21.5055C8.07471 21.8287 8.33655 22.0908 8.66003 22.0908H10.0651C10.3882 22.0908 10.6504 21.8287 10.6504 21.5055C10.6504 21.182 10.3882 20.9202 10.0651 20.9202H8.66003Z" fill="white"/>
<path d="M8.69904 23.5718C8.69904 23.2486 8.43689 22.9865 8.1134 22.9865H6.16211C5.83893 22.9865 5.57678 23.2486 5.57678 23.5718C5.57678 23.8953 5.83893 24.1574 6.16211 24.1574H8.1134C8.43689 24.1574 8.69904 23.8953 8.69904 23.5718Z" fill="white"/>
<path d="M9.05029 25.127H8.03558C7.7121 25.127 7.44995 25.3888 7.44995 25.7123C7.44995 26.0355 7.7121 26.2976 8.03558 26.2976H9.05029C9.37347 26.2976 9.63562 26.0355 9.63562 25.7123C9.63562 25.3888 9.37347 25.127 9.05029 25.127Z" fill="white"/>
<path d="M17.324 25.127H15.3727C15.0495 25.127 14.7874 25.3888 14.7874 25.7123C14.7874 26.0355 15.0495 26.2976 15.3727 26.2976H17.324C17.6475 26.2976 17.9093 26.0355 17.9093 25.7123C17.9093 25.3888 17.6475 25.127 17.324 25.127Z" fill="white"/>
<path d="M15.1777 23.5718C15.1777 23.2486 14.9155 22.9865 14.592 22.9865H9.90881C9.58563 22.9865 9.32349 23.2486 9.32349 23.5718C9.32349 23.8953 9.58563 24.1574 9.90881 24.1574H14.592C14.9155 24.1574 15.1777 23.8953 15.1777 23.5718Z" fill="white"/>
<path d="M13.5773 25.127H10.7675C10.444 25.127 10.1819 25.3888 10.1819 25.7123C10.1819 26.0355 10.444 26.2976 10.7675 26.2976H13.5773C13.9008 26.2976 14.1629 26.0355 14.1629 25.7123C14.1629 25.3888 13.9008 25.127 13.5773 25.127Z" fill="white"/>
<path d="M3.66449 17.1857H5.30359C5.62677 17.1857 5.88892 16.9235 5.88892 16.6003C5.88892 16.2769 5.62677 16.015 5.30359 16.015H3.66449C3.341 16.015 3.07886 16.2769 3.07886 16.6003C3.07886 16.9235 3.341 17.1857 3.66449 17.1857Z" fill="white"/>
<path d="M13.5382 16.6003C13.5382 16.2769 13.2764 16.015 12.9529 16.015H6.94275C6.61957 16.015 6.35742 16.2769 6.35742 16.6003C6.35742 16.9235 6.61957 17.1857 6.94275 17.1857H12.9529C13.2764 17.1857 13.5382 16.9235 13.5382 16.6003Z" fill="white"/>
<path d="M12.4457 18.6666C12.4457 18.3434 12.1835 18.0813 11.86 18.0813H6.16211C5.83893 18.0813 5.57678 18.3434 5.57678 18.6666C5.57678 18.9901 5.83893 19.2523 6.16211 19.2523H11.86C12.1835 19.2523 12.4457 18.9901 12.4457 18.6666Z" fill="white"/>
<path d="M13.4995 19.2523H14.592C14.9155 19.2523 15.1776 18.9901 15.1776 18.6666C15.1776 18.3434 14.9155 18.0813 14.592 18.0813H13.4995C13.176 18.0813 12.9138 18.3434 12.9138 18.6666C12.9138 18.9901 13.176 19.2523 13.4995 19.2523Z" fill="white"/>
<path d="M26.798 22.6292H23.0517C22.7282 22.6292 22.4661 22.8913 22.4661 23.2145C22.4661 23.538 22.7282 23.7998 23.0517 23.7998H26.798C27.1215 23.7998 27.3837 23.538 27.3837 23.2145C27.3837 22.8913 27.1215 22.6292 26.798 22.6292Z" fill="white"/>
<path d="M36.3208 22.6292H28.9056C28.5825 22.6292 28.3203 22.8913 28.3203 23.2145C28.3203 23.538 28.5825 23.7998 28.9056 23.7998H36.3208C36.6443 23.7998 36.9064 23.538 36.9064 23.2145C36.9064 22.8913 36.6443 22.6292 36.3208 22.6292Z" fill="white"/>
<path d="M26.798 24.8926H23.0517C22.7282 24.8926 22.4661 25.1547 22.4661 25.4782C22.4661 25.8014 22.7282 26.0635 23.0517 26.0635H26.798C27.1215 26.0635 27.3837 25.8014 27.3837 25.4782C27.3837 25.1547 27.1215 24.8926 26.798 24.8926Z" fill="white"/>
<path d="M36.3208 24.8926H28.9056C28.5825 24.8926 28.3203 25.1547 28.3203 25.4782C28.3203 25.8014 28.5825 26.0635 28.9056 26.0635H36.3208C36.6443 26.0635 36.9064 25.8014 36.9064 25.4782C36.9064 25.1547 36.6443 24.8926 36.3208 24.8926Z" fill="white"/>
<path d="M36.9241 10.6385C36.9241 9.80444 36.2457 9.12573 35.4117 9.12573H23.9609C23.1268 9.12573 22.4481 9.80444 22.4481 10.6385V18.567V18.5676V19.9543C22.4481 20.7883 23.1268 21.467 23.9609 21.467H35.4117C36.2457 21.467 36.9241 20.7883 36.9241 19.9543V10.6385ZM35.7535 19.9543C35.7535 20.1429 35.6 20.2961 35.4117 20.2961H23.9609C23.7723 20.2961 23.6191 20.1429 23.6191 19.9543V18.8099L27.9068 14.5243L30.8661 17.8593C31.0806 18.1013 31.4508 18.1232 31.6925 17.9087C31.9345 17.6942 31.9565 17.3243 31.7419 17.0823L31.4734 16.7798L32.7966 15.4572L35.7535 18.7897V19.9543ZM35.7535 17.0255L33.5004 14.4865C33.3316 14.2963 33.089 14.1828 32.8348 14.1752C32.5793 14.1678 32.3315 14.2664 32.1518 14.4462L30.6949 15.9022L28.6105 13.5535C28.4418 13.3631 28.1992 13.2496 27.9449 13.2422C27.691 13.2352 27.4417 13.3332 27.262 13.5129L23.6191 17.1543V10.6385C23.6191 10.4499 23.7723 10.2964 23.9609 10.2964H35.4117C35.6003 10.2964 35.7535 10.4499 35.7535 10.6385V17.0255Z" fill="white"/>
</g>
<defs>
<clipPath id="clip0">
<rect width="40" height="40" fill="white"/>
</clipPath>
</defs>
</svg>
