<svg width="40" height="40" viewBox="0 0 40 40" fill="none" xmlns="http://www.w3.org/2000/svg">
<g clip-path="url(#clip0)">
<path d="M39.4754 30.2403C39.465 30.2232 39.454 30.2068 39.4418 30.1909C39.3222 30.012 39.1858 29.8436 39.0308 29.6886L33.4152 24.073C32.1573 22.8151 30.1462 22.7733 28.8364 23.9775L25.4193 27.1202C24.9323 27.5685 24.1934 27.6118 23.6621 27.223C19.519 24.192 15.8832 20.5559 12.8549 16.4155C12.4664 15.8848 12.5095 15.1457 12.9578 14.6586L16.1008 11.2419C17.305 9.93206 17.2629 7.92064 16.0049 6.66301L10.3894 1.04746C9.6991 0.356851 8.74512 0.00772922 7.77222 0.0901268C6.79901 0.172219 5.91645 0.676065 5.35126 1.47319L2.40875 5.62511C2.21893 5.89275 2.28241 6.26354 2.55005 6.45336C2.81769 6.64287 3.18848 6.5797 3.3783 6.31206L4.63471 4.53899L12.9779 12.8822L12.0837 13.8542C11.2524 14.7578 11.1737 16.1299 11.8964 17.1171C14.9966 21.356 18.7192 25.0786 22.9608 28.1816C23.9484 28.9046 25.3207 28.8258 26.2241 27.9945L27.1961 27.1004L28.0084 27.9124C28.1244 28.0284 28.2764 28.0864 28.4284 28.0864C28.5803 28.0864 28.7323 28.0284 28.8483 27.9124C29.0805 27.6805 29.0805 27.3045 28.8483 27.0726L28.0713 26.2953L29.6408 24.8518C30.4721 24.0874 31.7444 24.1069 32.5519 24.8909L32.0337 25.4088C31.8018 25.641 31.8018 26.017 32.0337 26.2489C32.1497 26.3649 32.3016 26.4229 32.4536 26.4229C32.6056 26.4229 32.7579 26.3649 32.8738 26.2489L33.3923 25.7301L34.4241 26.7619L33.9053 27.2807C33.6734 27.5127 33.6734 27.8886 33.9053 28.1209C34.0213 28.2368 34.1736 28.2948 34.3256 28.2948C34.4775 28.2948 34.6295 28.2368 34.7455 28.1209L35.2643 27.6021L36.2961 28.6339L35.7773 29.1527C35.5454 29.3846 35.5454 29.7606 35.7773 29.9925C35.8933 30.1085 36.0452 30.1665 36.1975 30.1665C36.3495 30.1665 36.5015 30.1085 36.6174 29.9925L37.1362 29.474L38.1677 30.5055L37.6492 31.0243C37.417 31.2563 37.417 31.6322 37.6492 31.8645C37.7652 31.9804 37.9172 32.0384 38.0692 32.0384C38.2211 32.0384 38.3731 31.9804 38.4891 31.8645L38.7653 31.5883C38.8077 31.7891 38.8217 31.9972 38.804 32.2066C38.7512 32.8307 38.4284 33.3958 37.9178 33.7575L36.5222 34.7466L30.5273 28.7514C30.2954 28.5194 29.9191 28.5194 29.6872 28.7514C29.4553 28.9833 29.4553 29.3596 29.6872 29.5915L35.5389 35.4433L32.7966 37.3866C31.3336 38.4227 29.6133 38.9409 27.8207 38.8841C26.0288 38.8277 24.343 38.2027 22.9462 37.0769C15.6171 31.1708 8.90656 24.4603 3.0011 17.1321C0.959474 14.5985 0.611269 11.103 2.11395 8.22674C2.26563 7.93621 2.15332 7.57732 1.86249 7.42534C1.57135 7.27337 1.21277 7.38598 1.06079 7.67681C-0.660704 10.9718 -0.262145 14.976 2.07611 17.8776C8.03467 25.2717 14.8056 32.0427 22.2006 38.0022C23.8004 39.2915 25.7309 40.0072 27.7835 40.0719C27.8845 40.0752 27.9855 40.0768 28.0862 40.0768C30.0302 40.0768 31.8903 39.4847 33.4836 38.3562L38.605 34.727C39.4016 34.1624 39.9057 33.2802 39.9881 32.307C40.0504 31.5721 39.8663 30.8482 39.4754 30.2403ZM5.33173 3.55571L6.3205 2.16044C6.68274 1.64958 7.24823 1.3264 7.87201 1.27391C8.49579 1.22111 9.10706 1.4448 9.54956 1.88731L11.0013 3.33934L10.524 3.81663C10.2917 4.04887 10.2917 4.42485 10.524 4.65678C10.64 4.77275 10.7919 4.83073 10.9439 4.83073C11.0959 4.83073 11.2479 4.77275 11.3638 4.65678L11.8414 4.17949L12.8732 5.21098L12.3956 5.68859C12.1637 5.92052 12.1637 6.2968 12.3956 6.52874C12.5116 6.6447 12.6636 6.70269 12.8156 6.70269C12.9675 6.70269 13.1198 6.6447 13.2358 6.52874L13.7134 6.05113L15.1651 7.50316C15.9711 8.30913 15.9982 9.5982 15.2264 10.4374L13.783 12.007L5.33173 3.55571Z" fill="white"/>
</g>
<defs>
<clipPath id="clip0">
<rect width="40" height="40" fill="white"/>
</clipPath>
</defs>
</svg>
