<svg width="73" height="40" viewBox="0 0 73 40" fill="none" xmlns="http://www.w3.org/2000/svg">
<rect x="0.5" y="0.5" width="72" height="39" fill="#F9F9F9" stroke="#E8E8E8"/>
<rect width="6" height="40" fill="#328FCD"/>
<path d="M38.0625 10.3125C39.8594 10.3125 41.5215 10.7617 43.0488 11.5703C44.5762 12.4238 45.7891 13.5469 46.6875 14.9844C47.5859 16.4219 48.0352 17.9492 48.0352 19.6113C48.0352 21.6777 47.3613 23.4746 46.1035 25.0918C44.8906 26.6641 43.3184 27.7871 41.3418 28.416C39.3203 29.0898 37.2539 29.1348 35.1875 28.5508L31.8184 30.4375V26.8887C30.0215 25.541 28.8984 23.9238 28.4043 21.9473C27.9102 20.1504 28 18.3535 28.6738 16.5566C29.3477 14.7598 30.5156 13.2773 32.1328 12.1094C33.8398 10.9414 35.8164 10.3125 38.0625 10.3125ZM39.0957 22.8008L44.5762 17.0508L39.5898 19.791L37.0293 17.0957L31.5938 22.8906L36.5352 20.1055L39.0957 22.8008Z" fill="#2196F3"/>
</svg>
