<svg width="73" height="40" viewBox="0 0 73 40" fill="none" xmlns="http://www.w3.org/2000/svg">
<rect x="0.5" y="0.5" width="72" height="39" fill="#F9F9F9" stroke="#E8E8E8"/>
<path d="M45.8125 12.3438C46.8438 13.2812 47.5469 14.6406 48.0156 16.5156C48.4375 18.5781 48.4844 21.0156 48.1562 23.875C47.875 26.1719 46.9844 27.9062 45.5781 29.0781C44.7812 29.7344 43.75 30.2031 42.5312 30.4844L42.25 30.5312C41.7812 30.7188 41.0312 30.8594 40 30.9531C38.3594 31.1875 36.7188 31.2344 35.125 31.0938C34.4688 31.8438 34 32.3594 33.7188 32.6406L33.3438 33.0625C32.9688 33.4375 32.7344 33.7188 32.5938 33.8125C32.3125 34 31.9844 34.0469 31.7031 33.9531C31.5156 33.9062 31.375 33.8125 31.2812 33.625C31.1875 33.4375 31.1406 33.25 31.1406 33.0625V30.3438C29.4062 29.875 28.0938 28.9844 27.1562 27.625C26.4531 26.5938 25.9844 25.2344 25.7969 23.5938C25.6094 22.6562 25.5625 21.4375 25.6562 19.8438C25.6562 18.2031 25.8438 16.7969 26.2188 15.625C26.5938 14.3594 27.1562 13.3281 28 12.4844C28.7031 11.8281 29.6406 11.3125 30.8125 10.8906C31.7031 10.6094 32.7344 10.375 33.9062 10.1875C34.7031 10.0938 35.5469 10 36.3906 10H37.4219C39.7188 10.0469 41.7344 10.375 43.4219 10.9844C44.4531 11.4062 45.25 11.875 45.8125 12.3438ZM46.4688 23.4531C46.75 21.0156 46.75 18.9531 46.375 17.1719C46 15.5312 45.3906 14.3125 44.5469 13.5625C44.0781 13.1875 43.4219 12.8125 42.4844 12.4844C40.9844 12.0156 39.2969 11.7344 37.3281 11.6875H36.4375C35.6875 11.6875 34.9844 11.7344 34.3281 11.8281C33.3438 11.9688 32.4531 12.1562 31.7031 12.3906C30.7188 12.7656 29.9219 13.1875 29.3594 13.75C28.6562 14.4062 28.1406 15.2969 27.8125 16.375C27.5312 17.3594 27.3438 18.5312 27.3438 19.8906V20.1719C27.2969 21.5312 27.3438 22.5625 27.4375 23.3125C27.625 24.625 28 25.75 28.5625 26.5938C29.3125 27.6719 30.3906 28.4219 31.7969 28.7969L31.75 32.8281C31.75 33.0625 31.7969 33.2031 31.8906 33.25C31.9844 33.2969 32.125 33.25 32.3125 33.0625C32.5938 32.7812 33.25 32.0781 34.1875 30.9531L35.5 29.3594C36.8594 29.4531 38.2656 29.4062 39.6719 29.2188C40.5625 29.125 41.2188 28.9844 41.6406 28.8438L41.9219 28.7969C42.9062 28.5625 43.7031 28.1875 44.3594 27.6719C45.4844 26.7344 46.1875 25.3281 46.4688 23.4531ZM39.9531 19.6562C39.8594 18.2969 39.1562 17.5938 37.8438 17.5C37.6562 17.5 37.5156 17.6406 37.5156 17.8281C37.5156 18.0156 37.6094 18.1094 37.7969 18.1094C38.7344 18.2031 39.25 18.7188 39.3438 19.7031C39.3438 19.8906 39.4375 19.9844 39.625 19.9844C39.8125 19.9844 39.9531 19.8906 39.9531 19.6562ZM40.8906 20.1719C40.8906 20.4062 40.9844 20.5 41.1719 20.5C41.3594 20.5 41.5 20.4062 41.5 20.2188C41.5 19.0469 41.1719 18.0625 40.4219 17.2188C39.6719 16.4219 38.6875 15.9531 37.375 15.8594C37.1875 15.8594 37.0469 16 37.0469 16.1875C37.0469 16.375 37.1406 16.4688 37.3281 16.4688C38.4531 16.5625 39.3438 16.9844 40 17.6406C40.6094 18.3438 40.8906 19.1875 40.8906 20.1719ZM43.0938 20.8281C43.0938 18.8594 42.4844 17.2656 41.2656 16.0469C40.0938 14.9219 38.6406 14.3125 36.8594 14.3125C36.625 14.3125 36.5312 14.4531 36.5312 14.6406C36.5312 14.8281 36.625 14.9219 36.8594 14.9219C38.4531 14.9219 39.7656 15.4375 40.7969 16.4219C41.9219 17.5469 42.4844 19 42.4844 20.8281C42.4844 21.0156 42.5781 21.1094 42.7656 21.1094C42.9531 21.1094 43.0938 21.0156 43.0938 20.8281ZM42.5781 25.4219C42.7656 25 42.7188 24.625 42.3906 24.2969C41.8281 23.7812 41.0781 23.2656 40.2344 22.7969C40 22.6562 39.7656 22.6094 39.5312 22.6562C39.2969 22.7031 39.1094 22.7969 39.0156 22.9375L38.5469 23.5C38.4531 23.6406 38.3125 23.7344 38.125 23.7344L37.8906 23.7812C37.1406 23.5938 36.5312 23.2656 35.9688 22.7969C35.5 22.4688 35.0781 22.0469 34.75 21.4844C34.4688 21.1094 34.2812 20.7344 34.1406 20.3125L33.9531 19.7969V19.5625C33.9531 19.375 34.0469 19.2344 34.1875 19.1406L34.75 18.7188C34.8906 18.625 34.9844 18.4375 35.0312 18.2031C35.0781 17.9688 35.0312 17.7344 34.9375 17.4531C34.6562 17.0312 34.4219 16.6562 34.2344 16.3281L33.3906 15.2969C33.0625 14.9688 32.6875 14.9219 32.2656 15.1094C31.7031 15.4375 31.2812 15.7656 31 16.1406C30.625 16.6562 30.5312 17.125 30.6719 17.5469L30.9531 18.1562C31.1406 18.7656 31.4688 19.4688 31.9375 20.2188C32.3594 20.9688 32.8281 21.6719 33.3438 22.3281C33.9062 23.0781 34.5625 23.7344 35.3125 24.2969C36.0156 24.8594 36.9062 25.4219 37.9375 25.9844C38.875 26.5 39.5781 26.8281 40.1406 26.9688C40.5625 27.1562 41.0312 27.0156 41.5469 26.6406C41.9219 26.3594 42.25 25.9844 42.5781 25.4219Z" fill="#6D63C4"/>
</svg>
