<svg width="73" height="40" viewBox="0 0 73 40" fill="none" xmlns="http://www.w3.org/2000/svg">
<rect x="0.5" y="0.5" width="72" height="39" fill="#F9F9F9" stroke="#E8E8E8"/>
<path d="M46.9531 12.6406C47.0469 11.9844 47 11.5625 46.7188 11.2812C46.4375 11 46.0625 10.9531 45.5938 11.0938L26.9844 18.2656C26.3281 18.5469 26 18.8281 26 19.1094C25.9531 19.4375 26.1875 19.6719 26.75 19.8125L31.5312 21.3125L42.5938 14.3281C42.7344 14.2344 42.875 14.1875 43.0156 14.1875C43.1562 14.1875 43.25 14.1875 43.2969 14.2812C43.3438 14.375 43.2969 14.4219 43.2031 14.5156L34.25 22.625L33.875 27.5469C34.1094 27.5469 34.2969 27.5 34.4844 27.4062C34.5781 27.3594 34.6719 27.2656 34.8594 27.0781L37.2031 24.8281L42.0312 28.3906C42.4531 28.6719 42.8281 28.7188 43.1094 28.5781C43.3906 28.4375 43.625 28.1094 43.7656 27.5469L46.9531 12.6406Z" fill="#2196F3"/>
</svg>
