<svg width="40" height="40" viewBox="0 0 40 40" fill="none" xmlns="http://www.w3.org/2000/svg">
<path d="M37.5 4.375H35C35 4.20924 34.9342 4.05027 34.8169 3.93306C34.6997 3.81585 34.5408 3.75 34.375 3.75H33.125V2.5H31.875V3.75H30.625V1.25H29.375V3.75H28.125C27.9592 3.75 27.8003 3.81585 27.6831 3.93306C27.5658 4.05027 27.5 4.20924 27.5 4.375V5.625H10V4.375H8.75V5.625H7.5V3.125H6.25V5.625H4.375C4.20924 5.625 4.05027 5.69085 3.93306 5.80806C3.81585 5.92527 3.75 6.08424 3.75 6.25V8.75C3.75 8.91576 3.81585 9.07473 3.93306 9.19194C4.05027 9.30915 4.20924 9.375 4.375 9.375H6.25V17.5791C5.79728 17.696 5.38641 17.9375 5.06406 18.2762C4.74172 18.6149 4.52081 19.0372 4.42645 19.4951C4.33208 19.9531 4.36803 20.4283 4.53021 20.8668C4.6924 21.3054 4.97431 21.6896 5.34394 21.976C5.71357 22.2624 6.15609 22.4393 6.62125 22.4868C7.08641 22.5342 7.55555 22.4503 7.97539 22.2445C8.39523 22.0387 8.74894 21.7193 8.99635 21.3225C9.24376 20.9258 9.37494 20.4676 9.375 20H8.125C8.125 20.2472 8.05169 20.4889 7.91434 20.6945C7.77699 20.9 7.58176 21.0602 7.35335 21.1549C7.12495 21.2495 6.87361 21.2742 6.63114 21.226C6.38866 21.1777 6.16593 21.0587 5.99112 20.8839C5.8163 20.7091 5.69725 20.4863 5.64902 20.2439C5.60079 20.0014 5.62554 19.7501 5.72015 19.5216C5.81476 19.2932 5.97498 19.098 6.18054 18.9607C6.3861 18.8233 6.62777 18.75 6.875 18.75C7.04076 18.75 7.19973 18.6842 7.31694 18.5669C7.43415 18.4497 7.5 18.2908 7.5 18.125V9.375H27.5V10.625C27.5 10.7908 27.5658 10.9497 27.6831 11.0669C27.8003 11.1842 27.9592 11.25 28.125 11.25H28.75V35H25.625C25.4592 35 25.3003 35.0658 25.1831 35.1831C25.0658 35.3003 25 35.4592 25 35.625V38.125C25 38.2908 25.0658 38.4497 25.1831 38.5669C25.3003 38.6842 25.4592 38.75 25.625 38.75H36.875C37.0408 38.75 37.1997 38.6842 37.3169 38.5669C37.4342 38.4497 37.5 38.2908 37.5 38.125V35.625C37.5 35.4592 37.4342 35.3003 37.3169 35.1831C37.1997 35.0658 37.0408 35 36.875 35H33.75V11.25H34.375C34.5408 11.25 34.6997 11.1842 34.8169 11.0669C34.9342 10.9497 35 10.7908 35 10.625V10.4231L37.7321 9.33031C37.8481 9.28392 37.9475 9.20384 38.0175 9.1004C38.0876 8.99697 38.125 8.87492 38.125 8.75V5C38.125 4.83424 38.0592 4.67527 37.9419 4.55806C37.8247 4.44085 37.6658 4.375 37.5 4.375ZM15.2589 6.875H18.4911L19.7411 8.125H16.5089L15.2589 6.875ZM14.7411 8.125H11.5089L10.2589 6.875H13.4911L14.7411 8.125ZM20.2589 6.875H23.4911L24.7411 8.125H21.5089L20.2589 6.875ZM5 8.125V6.875H6.25V8.125H5ZM7.5 6.875H8.49109L9.74109 8.125H7.5V6.875ZM26.5089 8.125L25.2589 6.875H27.5V8.125H26.5089ZM30 21.6161V18.3839L32.5 20.8839V24.1161L30 21.6161ZM32.5 25.8839V29.1161L30 26.6161V23.3839L32.5 25.8839ZM30 28.3839L32.5 30.8839V34.1161L30 31.6161V28.3839ZM32.5 19.1161L30 16.6161V13.3839L32.5 15.8839V19.1161ZM30 33.3839L31.6161 35H30V33.3839ZM36.25 37.5H26.25V36.25H36.25V37.5ZM32.5 14.1161L30 11.6161V11.25H32.5V14.1161ZM33.75 10H28.75V5H33.75V10ZM36.875 8.3268L35 9.0768V5.625H36.875V8.3268Z" fill="white"/>
<path d="M4.375 33.75H5.625V36.25H4.375V33.75Z" fill="white"/>
<path d="M6.875 33.75H8.125V36.25H6.875V33.75Z" fill="white"/>
<path d="M9.375 33.75H10.625V36.25H9.375V33.75Z" fill="white"/>
<path d="M25 25.625C25 25.4592 24.9342 25.3003 24.8169 25.1831C24.6997 25.0658 24.5408 25 24.375 25H22.5V19.375C22.5 19.2092 22.4342 19.0503 22.3169 18.9331C22.1997 18.8158 22.0408 18.75 21.875 18.75H11.875C11.7092 18.75 11.5503 18.8158 11.4331 18.9331C11.3158 19.0503 11.25 19.2092 11.25 19.375V25H4.375C4.20924 25 4.05027 25.0658 3.93306 25.1831C3.81585 25.3003 3.75 25.4592 3.75 25.625V31.25H2.5C2.33424 31.25 2.17527 31.3158 2.05806 31.4331C1.94085 31.5503 1.875 31.7092 1.875 31.875V38.125C1.875 38.2908 1.94085 38.4497 2.05806 38.5669C2.17527 38.6842 2.33424 38.75 2.5 38.75H22.5C22.6658 38.75 22.8247 38.6842 22.9419 38.5669C23.0592 38.4497 23.125 38.2908 23.125 38.125V32.5H24.375C24.5408 32.5 24.6997 32.4342 24.8169 32.3169C24.9342 32.1997 25 32.0408 25 31.875V25.625ZM12.5 20H21.25V25H12.5V20ZM5 26.25H13.75V31.25H5V26.25ZM3.125 32.5H11.875V37.5H3.125V32.5ZM21.875 37.5H13.125V32.5H21.875V37.5ZM23.75 31.25H15V26.25H23.75V31.25Z" fill="white"/>
<path d="M16.25 27.5H17.5V30H16.25V27.5Z" fill="white"/>
<path d="M18.75 27.5H20V30H18.75V27.5Z" fill="white"/>
<path d="M21.25 27.5H22.5V30H21.25V27.5Z" fill="white"/>
<path d="M6.25 27.5H7.5V30H6.25V27.5Z" fill="white"/>
<path d="M8.75 27.5H10V30H8.75V27.5Z" fill="white"/>
<path d="M11.25 27.5H12.5V30H11.25V27.5Z" fill="white"/>
<path d="M13.75 21.25H15V23.75H13.75V21.25Z" fill="white"/>
<path d="M16.25 21.25H17.5V23.75H16.25V21.25Z" fill="white"/>
<path d="M18.75 21.25H20V23.75H18.75V21.25Z" fill="white"/>
<path d="M14.375 33.75H15.625V36.25H14.375V33.75Z" fill="white"/>
<path d="M16.875 33.75H18.125V36.25H16.875V33.75Z" fill="white"/>
<path d="M19.375 33.75H20.625V36.25H19.375V33.75Z" fill="white"/>
</svg>
