<svg width="40" height="40" viewBox="0 0 40 40" fill="none" xmlns="http://www.w3.org/2000/svg">
<path d="M37.3333 3.33333H32.6667V2.66667C32.6667 2.2985 32.3682 2 32 2H30V0.666667C30 0.2985 29.7015 0 29.3333 0H5.33333C4.96517 0 4.66667 0.2985 4.66667 0.666667V2H2.66667C2.2985 2 2 2.2985 2 2.66667V8C2 8.36817 2.2985 8.66667 2.66667 8.66667H4.66667V10C4.66667 10.3682 4.96517 10.6667 5.33333 10.6667H29.3333C29.7015 10.6667 30 10.3682 30 10V8.66667H32C32.3682 8.66667 32.6667 8.36817 32.6667 8V7.33333H34V14.6667H16C15.6318 14.6667 15.3333 14.9652 15.3333 15.3333V22.6667H14.6667C14.2985 22.6667 14 22.9652 14 23.3333V39.3333C14 39.7015 14.2985 40 14.6667 40H20C20.3682 40 20.6667 39.7015 20.6667 39.3333V23.3333C20.6667 22.9652 20.3682 22.6667 20 22.6667H19.3333V18.6667H37.3333C37.7015 18.6667 38 18.3682 38 18V4C38 3.63183 37.7015 3.33333 37.3333 3.33333ZM4.66667 7.33333H3.33333V3.33333H4.66667V7.33333ZM28.6667 9.33333H6V1.33333H28.6667V9.33333ZM31.3333 7.33333H30V3.33333H31.3333V7.33333ZM19.3333 38.6667H15.3333V24H19.3333V38.6667ZM36.6667 17.3333H18.6667C18.2985 17.3333 18 17.6318 18 18V22.6667H16.6667V16H34.6667C35.0348 16 35.3333 15.7015 35.3333 15.3333V6.66667C35.3333 6.2985 35.0348 6 34.6667 6H32.6667V4.66667H36.6667V17.3333Z" fill="white"/>
<path d="M9.33333 6.66675H7.99999C7.63183 6.66675 7.33333 6.96525 7.33333 7.33341C7.33333 7.70158 7.63183 8.00008 7.99999 8.00008H9.33333C9.70149 8.00008 9.99999 7.70158 9.99999 7.33341C9.99999 6.96525 9.70149 6.66675 9.33333 6.66675Z" fill="white"/>
<path d="M26.6667 6.66675H12C11.6318 6.66675 11.3333 6.96525 11.3333 7.33341C11.3333 7.70158 11.6318 8.00008 12 8.00008H26.6667C27.0348 8.00008 27.3333 7.70158 27.3333 7.33341C27.3333 6.96525 27.0348 6.66675 26.6667 6.66675Z" fill="white"/>
</svg>
