<svg width="40" height="40" viewBox="0 0 40 40" fill="none" xmlns="http://www.w3.org/2000/svg">
<path d="M39.3333 0H28.6667C28.2985 0 28 0.2985 28 0.666667V9.33333H19.3333C18.9652 9.33333 18.6667 9.63183 18.6667 10V18.6667H10C9.63183 18.6667 9.33333 18.9652 9.33333 19.3333V28H0.666667C0.2985 28 0 28.2985 0 28.6667V39.3333C0 39.7015 0.2985 40 0.666667 40H39.3333C39.7015 40 40 39.7015 40 39.3333V0.666667C40 0.2985 39.7015 0 39.3333 0ZM38.6667 38.6667H1.33333V29.3333H10C10.3682 29.3333 10.6667 29.0348 10.6667 28.6667V20H19.3333C19.7015 20 20 19.7015 20 19.3333V10.6667H28.6667C29.0348 10.6667 29.3333 10.3682 29.3333 10V1.33333H38.6667V38.6667Z" fill="white"/>
</svg>
