<svg width="40" height="40" viewBox="0 0 40 40" fill="none" xmlns="http://www.w3.org/2000/svg">
<path d="M10.625 22.5H3.75C3.08719 22.4993 2.45173 22.2356 1.98306 21.7669C1.51438 21.2983 1.25074 20.6628 1.25 20V3.75C1.25074 3.08719 1.51438 2.45173 1.98306 1.98306C2.45173 1.51438 3.08719 1.25074 3.75 1.25H20C20.6628 1.25074 21.2983 1.51438 21.7669 1.98306C22.2356 2.45173 22.4993 3.08719 22.5 3.75V14.375H21.25V3.75C21.2496 3.4186 21.1178 3.10089 20.8834 2.86655C20.6491 2.63222 20.3314 2.50039 20 2.5H3.75C3.4186 2.50039 3.10089 2.63222 2.86655 2.86655C2.63222 3.10089 2.50039 3.4186 2.5 3.75V20C2.50039 20.3314 2.63222 20.6491 2.86655 20.8834C3.10089 21.1178 3.4186 21.2496 3.75 21.25H10.625V22.5Z" fill="white"/>
<path d="M9.375 20H5.625C5.45924 20 5.30027 19.9342 5.18306 19.8169C5.06585 19.6997 5 19.5408 5 19.375V4.375C5 4.20924 5.06585 4.05027 5.18306 3.93306C5.30027 3.81585 5.45924 3.75 5.625 3.75H13.125C14.6168 3.75 16.0476 4.34263 17.1025 5.39752C18.1574 6.45242 18.75 7.88316 18.75 9.375C18.75 10.8668 18.1574 12.2976 17.1025 13.3525C16.0476 14.4074 14.6168 15 13.125 15H10V19.375C10 19.5408 9.93415 19.6997 9.81694 19.8169C9.69973 19.9342 9.54076 20 9.375 20ZM6.25 18.75H8.75V14.375C8.75 14.2092 8.81585 14.0503 8.93306 13.9331C9.05027 13.8158 9.20924 13.75 9.375 13.75H13.125C14.2853 13.75 15.3981 13.2891 16.2186 12.4686C17.0391 11.6481 17.5 10.5353 17.5 9.375C17.5 8.21468 17.0391 7.10188 16.2186 6.28141C15.3981 5.46094 14.2853 5 13.125 5H6.25V18.75ZM13.125 11.25H9.375C9.20924 11.25 9.05027 11.1842 8.93306 11.0669C8.81585 10.9497 8.75 10.7908 8.75 10.625V8.125C8.75 7.95924 8.81585 7.80027 8.93306 7.68306C9.05027 7.56585 9.20924 7.5 9.375 7.5H13.125C13.6223 7.5 14.0992 7.69754 14.4508 8.04917C14.8025 8.40081 15 8.87772 15 9.375C15 9.87228 14.8025 10.3492 14.4508 10.7008C14.0992 11.0525 13.6223 11.25 13.125 11.25ZM10 10H13.125C13.2908 10 13.4497 9.93415 13.5669 9.81694C13.6842 9.69973 13.75 9.54076 13.75 9.375C13.75 9.20924 13.6842 9.05027 13.5669 8.93306C13.4497 8.81585 13.2908 8.75 13.125 8.75H10V10Z" fill="white"/>
<path d="M37.942 25.808C37.4464 25.31 36.7785 25.0215 36.0762 25.002L33.5202 17.3343C33.3546 16.8363 33.0364 16.4031 32.6106 16.0963C32.1848 15.7895 31.6732 15.6246 31.1484 15.625H16.3516C15.8268 15.6246 15.3152 15.7895 14.8894 16.0963C14.4636 16.4031 14.1454 16.8363 13.9798 17.3343L11.4238 25.002C10.7072 25.0239 10.0273 25.3239 9.52818 25.8385C9.02905 26.3531 8.74993 27.0419 8.75 27.7588V32.5C8.75074 33.1628 9.01438 33.7983 9.48306 34.2669C9.95174 34.7356 10.5872 34.9993 11.25 35H15.625V37.5H11.875V36.25H10.625V37.5C10.6254 37.8314 10.7572 38.1491 10.9916 38.3834C11.2259 38.6178 11.5436 38.7496 11.875 38.75H15.625C15.9564 38.7496 16.2741 38.6178 16.5084 38.3834C16.7428 38.1491 16.8746 37.8314 16.875 37.5V35H30.625V37.5C30.6254 37.8314 30.7572 38.1491 30.9915 38.3834C31.2259 38.6178 31.5436 38.7496 31.875 38.75H35.625C35.9564 38.7496 36.2741 38.6178 36.5084 38.3834C36.7428 38.1491 36.8746 37.8314 36.875 37.5V34.9209C37.4113 34.7816 37.8863 34.4684 38.2256 34.0304C38.5649 33.5923 38.7493 33.0541 38.75 32.5V27.7588C38.751 27.3964 38.6801 27.0374 38.5414 26.7025C38.4027 26.3676 38.1989 26.0636 37.942 25.808ZM16.3516 16.875H31.1484C31.4109 16.8748 31.6667 16.9573 31.8796 17.1107C32.0925 17.2642 32.2516 17.4808 32.3345 17.7298L32.4662 18.125H15.0338L15.1655 17.7298C15.2484 17.4808 15.4075 17.2642 15.6204 17.1107C15.8333 16.9573 16.0891 16.8748 16.3516 16.875ZM14.6172 19.375H32.8828L34.7578 25H12.7422L14.6172 19.375ZM35.625 37.5H31.875V35H35.625L35.6256 37.5H35.625ZM37.5 32.5C37.4996 32.8314 37.3678 33.1491 37.1334 33.3835C36.8991 33.6178 36.5814 33.7496 36.25 33.75H11.25C10.9186 33.7496 10.6009 33.6178 10.3666 33.3835C10.1322 33.1491 10.0004 32.8314 10 32.5V27.7588C10 27.3587 10.159 26.9749 10.4419 26.692C10.7249 26.409 11.1087 26.25 11.5088 26.25H35.9912C36.3913 26.25 36.7751 26.409 37.058 26.692C37.341 26.9749 37.5 27.3587 37.5 27.7588V32.5Z" fill="white"/>
<path d="M13.75 27.5C13.2555 27.5 12.7722 27.6466 12.3611 27.9213C11.95 28.196 11.6295 28.5865 11.4403 29.0433C11.2511 29.5001 11.2016 30.0028 11.298 30.4877C11.3945 30.9727 11.6326 31.4181 11.9822 31.7678C12.3319 32.1174 12.7773 32.3555 13.2623 32.452C13.7472 32.5484 14.2499 32.4989 14.7067 32.3097C15.1635 32.1205 15.554 31.8001 15.8287 31.3889C16.1034 30.9778 16.25 30.4945 16.25 30C16.2493 29.3372 15.9856 28.7017 15.5169 28.2331C15.0483 27.7644 14.4128 27.5007 13.75 27.5ZM13.75 31.25C13.5028 31.25 13.2611 31.1767 13.0555 31.0393C12.85 30.902 12.6898 30.7068 12.5952 30.4784C12.5005 30.25 12.4758 29.9986 12.524 29.7561C12.5723 29.5137 12.6913 29.2909 12.8661 29.1161C13.0409 28.9413 13.2637 28.8223 13.5061 28.774C13.7486 28.7258 13.9999 28.7505 14.2284 28.8452C14.4568 28.9398 14.652 29.1 14.7893 29.3055C14.9267 29.5111 15 29.7528 15 30C14.9996 30.3314 14.8678 30.6491 14.6335 30.8835C14.3991 31.1178 14.0814 31.2496 13.75 31.25Z" fill="white"/>
<path d="M33.75 27.5C33.2556 27.5 32.7722 27.6466 32.3611 27.9213C31.95 28.196 31.6295 28.5865 31.4403 29.0433C31.2511 29.5001 31.2016 30.0028 31.298 30.4877C31.3945 30.9727 31.6326 31.4181 31.9822 31.7678C32.3319 32.1174 32.7773 32.3555 33.2623 32.452C33.7472 32.5484 34.2499 32.4989 34.7067 32.3097C35.1635 32.1205 35.554 31.8001 35.8287 31.3889C36.1034 30.9778 36.25 30.4945 36.25 30C36.2493 29.3372 35.9856 28.7017 35.517 28.2331C35.0483 27.7644 34.4128 27.5007 33.75 27.5ZM33.75 31.25C33.5028 31.25 33.2611 31.1767 33.0555 31.0393C32.85 30.902 32.6898 30.7068 32.5952 30.4784C32.5005 30.25 32.4758 29.9986 32.524 29.7561C32.5723 29.5137 32.6913 29.2909 32.8661 29.1161C33.0409 28.9413 33.2637 28.8223 33.5061 28.774C33.7486 28.7258 34 28.7505 34.2284 28.8452C34.4568 28.9398 34.652 29.1 34.7893 29.3055C34.9267 29.5111 35 29.7528 35 30C34.9996 30.3314 34.8678 30.6491 34.6335 30.8835C34.3991 31.1178 34.0814 31.2496 33.75 31.25Z" fill="white"/>
<path d="M17.5 28.125H30V29.375H17.5V28.125Z" fill="white"/>
<path d="M17.5 30.625H30V31.875H17.5V30.625Z" fill="white"/>
</svg>
