<svg width="40" height="40" viewBox="0 0 40 40" fill="none" xmlns="http://www.w3.org/2000/svg">
<path d="M12.5001 25.7875V5C12.5001 2.5875 10.5369 0.625 8.12507 0.625C5.7132 0.625 3.75007 2.5875 3.75007 5V25.7875C1.53445 27.3794 0.361947 30.0187 0.675697 32.7575C1.06882 36.1837 3.84195 38.9469 7.27007 39.3275C7.54945 39.3581 7.82882 39.3737 8.10695 39.3737C9.95382 39.3737 11.7469 38.6987 13.1263 37.4644C14.7144 36.0425 15.6251 34.005 15.6251 31.875C15.6251 29.4494 14.4632 27.1987 12.5001 25.7875ZM12.2926 36.5331C10.9507 37.7344 9.2132 38.2869 7.4082 38.085C4.55445 37.7687 2.24507 35.4681 1.91757 32.6156C1.64507 30.235 2.71757 27.9456 4.71695 26.6406C4.8932 26.525 5.00007 26.3281 5.00007 26.1169V5C5.00007 3.27687 6.40195 1.875 8.12507 1.875C9.8482 1.875 11.2501 3.27687 11.2501 5V6.875H8.75007V8.125H11.2501V9.375H8.75007V10.625H11.2501V11.875H8.75007V13.125H11.2501V26.1169C11.2501 26.3281 11.3569 26.525 11.5332 26.64C13.3132 27.8019 14.3751 29.7587 14.3751 31.875C14.3751 33.65 13.6157 35.3481 12.2926 36.5331Z" fill="white"/>
<path d="M10 27.2412V15C10 14.655 9.72062 14.375 9.375 14.375H6.875C6.52938 14.375 6.25 14.655 6.25 15V27.2412C4.38875 27.9975 3.125 29.84 3.125 31.875C3.125 34.6319 5.36813 36.875 8.125 36.875C10.8819 36.875 13.125 34.6319 13.125 31.875C13.125 29.84 11.8612 27.9975 10 27.2412ZM7.05312 28.2825C7.31812 28.2037 7.5 27.96 7.5 27.6837V15.625H8.75V27.6837C8.75 27.96 8.93188 28.2037 9.19688 28.2825C10.5706 28.6919 11.5819 29.8663 11.82 31.25H10.625C10.4587 31.25 10.3 31.3156 10.1831 31.4331L9.375 32.2412L7.31687 30.1831C7.0725 29.9387 6.6775 29.9387 6.43313 30.1831L5.36625 31.25H4.43C4.66812 29.8663 5.67937 28.6919 7.05312 28.2825ZM8.125 35.625C6.27063 35.625 4.73063 34.2706 4.43125 32.5H5.625C5.79125 32.5 5.95 32.4344 6.06687 32.3169L6.875 31.5088L8.93313 33.5669C9.055 33.6888 9.215 33.75 9.375 33.75C9.535 33.75 9.695 33.6888 9.81687 33.5669L10.8837 32.5H11.8188C11.5194 34.2706 9.97937 35.625 8.125 35.625Z" fill="white"/>
<path d="M20.8082 32.058L18.3082 34.558L19.192 35.4418L20.6251 34.0087V38.7499H21.8751V34.0087L23.3082 35.4418L24.192 34.558L21.692 32.058C21.4476 31.8137 21.0526 31.8137 20.8082 32.058Z" fill="white"/>
<path d="M28.3081 27.058L25.8081 29.558L26.6919 30.4418L28.125 29.0087V38.7499H29.375V29.0087L30.8081 30.4418L31.6919 29.558L29.1919 27.058C28.9475 26.8137 28.5525 26.8137 28.3081 27.058Z" fill="white"/>
<path d="M35.8081 22.058L33.3081 24.558L34.1919 25.4418L35.625 24.0087V38.7499H36.875V24.0087L38.3081 25.4418L39.1919 24.558L36.6919 22.058C36.4475 21.8137 36.0525 21.8137 35.8081 22.058Z" fill="white"/>
</svg>
