<svg width="40" height="40" viewBox="0 0 40 40" fill="none" xmlns="http://www.w3.org/2000/svg">
<path d="M39.2763 0H27.7204C27.3208 0 26.9967 0.324063 26.9967 0.723751C26.9967 1.12344 27.3208 1.4475 27.7204 1.4475H30.9027V7.71056H16.8988V1.4475H25.3079C25.7076 1.4475 26.0316 1.12344 26.0316 0.723751C26.0316 0.324063 25.7076 0 25.3079 0H0.723751C0.324063 0 0 0.324063 0 0.723751V8.43431V16.1448V23.8553V31.5658V39.2763C0 39.676 0.324063 40.0001 0.723751 40.0001H39.2762C39.6759 40.0001 40 39.676 40 39.2763V0.723751C40.0001 0.324063 39.676 0 39.2763 0ZM24.5486 9.15806H38.5524V15.421H29.1679C28.7682 15.421 28.4441 15.7451 28.4441 16.1448C28.4441 16.5445 28.7682 16.8685 29.1679 16.8685H30.9027V23.1315H16.8988V16.8685H26.7553C27.155 16.8685 27.479 16.5445 27.479 16.1448C27.479 15.7451 27.155 15.421 26.7553 15.421H24.5486V9.15806ZM38.5525 24.579V30.842H24.5486V24.579H38.5525ZM23.1011 9.15806V15.421H9.09736V9.15806H23.1011ZM1.4475 1.4475H15.4513V7.71056H1.4475V1.4475ZM1.4475 9.15806H7.64986V15.421H1.4475V9.15806ZM1.4475 16.8686H15.4513V23.1316H1.4475V16.8686ZM1.4475 24.579H7.64986V30.842H1.4475V24.579ZM15.4513 38.5525H1.4475V32.2895H11.8943C12.294 32.2895 12.6181 31.9655 12.6181 31.5658C12.6181 31.1661 12.294 30.842 11.8943 30.842H9.09736V24.579H23.1011V30.842H14.3068C13.9071 30.842 13.5831 31.1661 13.5831 31.5658C13.5831 31.9655 13.9071 32.2895 14.3068 32.2895H15.4513V38.5525ZM30.9027 38.5525H16.8988V32.2895H30.9027V38.5525ZM38.5526 38.5526H32.3502V32.2896H38.5526V38.5526ZM38.5526 23.1315H32.3502V16.8685H38.5526V23.1315ZM38.5526 7.71056H32.3502V1.4475H38.5526V7.71056Z" fill="white"/>
</svg>
