<svg width="36" height="40" viewBox="0 0 36 40" fill="none" xmlns="http://www.w3.org/2000/svg">
<path d="M35.1875 9.37531H20.3438V0.78125C20.3438 0.349844 19.994 0 19.5625 0H0.8125C0.381016 0 0.03125 0.349844 0.03125 0.78125V39.2187C0.03125 39.6501 0.381016 39.9999 0.8125 39.9999H19.5625H35.1875C35.619 39.9999 35.9688 39.6501 35.9688 39.2187V10.1566C35.9688 9.72508 35.6189 9.37531 35.1875 9.37531ZM20.3438 10.9378H34.4062V30.6249H20.3438V10.9378ZM7.84375 38.4374V32.1874H12.5312V38.4374H7.84375ZM13.3125 30.6249H7.0625C6.63102 30.6249 6.28125 30.9748 6.28125 31.4062V38.4374H1.59375V1.5625H18.7812V38.4374H14.0938V31.4062C14.0938 30.9748 13.7439 30.6249 13.3125 30.6249ZM20.3437 38.4374V32.1874H34.4062V38.4374H20.3437Z" fill="white"/>
<path d="M9.40613 6.25H10.9684C11.3999 6.25 11.7496 5.90023 11.7496 5.46875V3.90625C11.7496 3.47477 11.3999 3.125 10.9684 3.125H9.40613C8.97464 3.125 8.62488 3.47477 8.62488 3.90625V5.46875C8.62488 5.90023 8.97464 6.25 9.40613 6.25Z" fill="white"/>
<path d="M9.40613 11.7188H10.9684C11.3999 11.7188 11.7496 11.369 11.7496 10.9375V9.375C11.7496 8.94352 11.3999 8.59375 10.9684 8.59375H9.40613C8.97464 8.59375 8.62488 8.94352 8.62488 9.375V10.9375C8.62488 11.369 8.97464 11.7188 9.40613 11.7188Z" fill="white"/>
<path d="M9.40613 17.1875H10.9684C11.3999 17.1875 11.7496 16.8377 11.7496 16.4062V14.8438C11.7496 14.4123 11.3999 14.0625 10.9684 14.0625H9.40613C8.97464 14.0625 8.62488 14.4123 8.62488 14.8438V16.4062C8.62488 16.8377 8.97464 17.1875 9.40613 17.1875Z" fill="white"/>
<path d="M9.40613 22.6562H10.9684C11.3999 22.6562 11.7496 22.3065 11.7496 21.875V20.3125C11.7496 19.881 11.3999 19.5312 10.9684 19.5312H9.40613C8.97464 19.5312 8.62488 19.881 8.62488 20.3125V21.875C8.62488 22.3065 8.97464 22.6562 9.40613 22.6562Z" fill="white"/>
<path d="M9.40613 28.125H10.9684C11.3999 28.125 11.7496 27.7752 11.7496 27.3438V25.7812C11.7496 25.3498 11.3999 25 10.9684 25H9.40613C8.97464 25 8.62488 25.3498 8.62488 25.7812V27.3438C8.62488 27.7752 8.97464 28.125 9.40613 28.125Z" fill="white"/>
<path d="M3.93762 6.25H5.49989C5.93137 6.25 6.28114 5.90023 6.28114 5.46875V3.90625C6.28114 3.47477 5.93137 3.125 5.49989 3.125H3.93762C3.50614 3.125 3.15637 3.47477 3.15637 3.90625V5.46875C3.15637 5.90023 3.50614 6.25 3.93762 6.25Z" fill="white"/>
<path d="M3.93762 11.7188H5.49989C5.93137 11.7188 6.28114 11.369 6.28114 10.9375V9.375C6.28114 8.94352 5.93137 8.59375 5.49989 8.59375H3.93762C3.50614 8.59375 3.15637 8.94352 3.15637 9.375V10.9375C3.15637 11.369 3.50614 11.7188 3.93762 11.7188Z" fill="white"/>
<path d="M3.93762 17.1875H5.49989C5.93137 17.1875 6.28114 16.8377 6.28114 16.4062V14.8438C6.28114 14.4123 5.93137 14.0625 5.49989 14.0625H3.93762C3.50614 14.0625 3.15637 14.4123 3.15637 14.8438V16.4062C3.15637 16.8377 3.50614 17.1875 3.93762 17.1875Z" fill="white"/>
<path d="M3.93762 22.6562H5.49989C5.93137 22.6562 6.28114 22.3065 6.28114 21.875V20.3125C6.28114 19.881 5.93137 19.5312 5.49989 19.5312H3.93762C3.50614 19.5312 3.15637 19.881 3.15637 20.3125V21.875C3.15637 22.3065 3.50614 22.6562 3.93762 22.6562Z" fill="white"/>
<path d="M3.93762 28.125H5.49989C5.93137 28.125 6.28114 27.7752 6.28114 27.3438V25.7812C6.28114 25.3498 5.93137 25 5.49989 25H3.93762C3.50614 25 3.15637 25.3498 3.15637 25.7812V27.3438C3.15637 27.7752 3.50614 28.125 3.93762 28.125Z" fill="white"/>
<path d="M16.4374 3.125H14.8751C14.4436 3.125 14.0939 3.47477 14.0939 3.90625V5.46875C14.0939 5.90023 14.4436 6.25 14.8751 6.25H16.4374C16.8689 6.25 17.2186 5.90023 17.2186 5.46875V3.90625C17.2186 3.47477 16.8689 3.125 16.4374 3.125Z" fill="white"/>
<path d="M16.4374 8.59375H14.8751C14.4436 8.59375 14.0939 8.94352 14.0939 9.375V10.9375C14.0939 11.369 14.4436 11.7188 14.8751 11.7188H16.4374C16.8689 11.7188 17.2186 11.369 17.2186 10.9375V9.375C17.2186 8.94359 16.8689 8.59375 16.4374 8.59375Z" fill="white"/>
<path d="M16.4374 14.0625H14.8751C14.4436 14.0625 14.0939 14.4123 14.0939 14.8438V16.4062C14.0939 16.8377 14.4436 17.1875 14.8751 17.1875H16.4374C16.8689 17.1875 17.2186 16.8377 17.2186 16.4062V14.8438C17.2186 14.4123 16.8689 14.0625 16.4374 14.0625Z" fill="white"/>
<path d="M16.4374 19.5312H14.8751C14.4436 19.5312 14.0939 19.881 14.0939 20.3125V21.875C14.0939 22.3065 14.4436 22.6562 14.8751 22.6562H16.4374C16.8689 22.6562 17.2186 22.3065 17.2186 21.875V20.3125C17.2186 19.8811 16.8689 19.5312 16.4374 19.5312Z" fill="white"/>
<path d="M16.4374 25H14.8751C14.4436 25 14.0939 25.3498 14.0939 25.7812V27.3438C14.0939 27.7752 14.4436 28.125 14.8751 28.125H16.4374C16.8689 28.125 17.2186 27.7752 17.2186 27.3438V25.7812C17.2186 25.3498 16.8689 25 16.4374 25Z" fill="white"/>
<path d="M30.8904 14.0625H29.3281C28.8966 14.0625 28.5469 14.4123 28.5469 14.8438V16.4062C28.5469 16.8377 28.8966 17.1875 29.3281 17.1875H30.8904C31.3219 17.1875 31.6716 16.8377 31.6716 16.4062V14.8438C31.6716 14.4123 31.3218 14.0625 30.8904 14.0625Z" fill="white"/>
<path d="M30.8904 19.5312H29.3281C28.8966 19.5312 28.5469 19.881 28.5469 20.3125V21.875C28.5469 22.3065 28.8966 22.6562 29.3281 22.6562H30.8904C31.3219 22.6562 31.6716 22.3065 31.6716 21.875V20.3125C31.6716 19.8811 31.3218 19.5312 30.8904 19.5312Z" fill="white"/>
<path d="M30.8904 25H29.3281C28.8966 25 28.5469 25.3498 28.5469 25.7812V27.3438C28.5469 27.7752 28.8966 28.125 29.3281 28.125H30.8904C31.3219 28.125 31.6716 27.7752 31.6716 27.3438V25.7812C31.6716 25.3498 31.3218 25 30.8904 25Z" fill="white"/>
<path d="M25.4218 14.0625H23.8596C23.4281 14.0625 23.0783 14.4123 23.0783 14.8438V16.4062C23.0783 16.8377 23.4281 17.1875 23.8596 17.1875H25.4218C25.8533 17.1875 26.2031 16.8377 26.2031 16.4062V14.8438C26.2031 14.4123 25.8532 14.0625 25.4218 14.0625Z" fill="white"/>
<path d="M25.4218 19.5312H23.8596C23.4281 19.5312 23.0783 19.881 23.0783 20.3125V21.875C23.0783 22.3065 23.4281 22.6562 23.8596 22.6562H25.4218C25.8533 22.6562 26.2031 22.3065 26.2031 21.875V20.3125C26.2031 19.8811 25.8532 19.5312 25.4218 19.5312Z" fill="white"/>
<path d="M25.4218 25H23.8596C23.4281 25 23.0783 25.3498 23.0783 25.7812V27.3438C23.0783 27.7752 23.4281 28.125 23.8596 28.125H25.4218C25.8533 28.125 26.2031 27.7752 26.2031 27.3438V25.7812C26.2031 25.3498 25.8532 25 25.4218 25Z" fill="white"/>
</svg>
