<svg width="40" height="40" viewBox="0 0 40 40" fill="none" xmlns="http://www.w3.org/2000/svg">
<path d="M3.75 0.625H5V2.5H3.75V0.625Z" fill="white"/>
<path d="M5.80707 2.68359L7.05688 1.43378L7.94076 2.31767L6.69095 3.56748L5.80707 2.68359Z" fill="white"/>
<path d="M0.807678 2.31714L1.69156 1.43326L2.94137 2.68307L2.05749 3.56695L0.807678 2.31714Z" fill="white"/>
<path d="M38.75 20.625H32.5C32.155 20.625 31.875 20.905 31.875 21.25V38.75C31.875 39.095 32.155 39.375 32.5 39.375H38.75C39.095 39.375 39.375 39.095 39.375 38.75V21.25C39.375 20.905 39.095 20.625 38.75 20.625ZM33.125 31.2006L38.125 34.7006V36.3L33.125 32.8V31.2006ZM33.125 29.6744V26.825L38.125 30.325V33.1744L33.125 29.6744ZM33.125 25.2994V23.7L38.125 27.2V28.7994L33.125 25.2994ZM38.125 21.875V25.6744L33.125 22.1744V21.875H38.125ZM33.125 38.125V34.3256L38.125 37.8256V38.125H33.125Z" fill="white"/>
<path d="M38.75 13.125H10.4513C10.2344 12.7531 9.83562 12.5 9.375 12.5H6.875V11.25C7.56437 11.25 8.125 10.6894 8.125 10V8.75C8.125 8.28937 7.87187 7.89062 7.5 7.67375V6.875C7.5 5.15188 6.09812 3.75 4.375 3.75C2.65188 3.75 1.25 5.15188 1.25 6.875V7.67375C0.878125 7.89062 0.625 8.28937 0.625 8.75V10C0.625 10.6894 1.18562 11.25 1.875 11.25V20.625H1.25C0.905 20.625 0.625 20.905 0.625 21.25V38.75C0.625 39.095 0.905 39.375 1.25 39.375H7.5C7.845 39.375 8.125 39.095 8.125 38.75V21.25C8.125 20.905 7.845 20.625 7.5 20.625H6.875V18.75H9.375C9.83562 18.75 10.2344 18.4969 10.4513 18.125H38.75C39.095 18.125 39.375 17.845 39.375 17.5V13.75C39.375 13.405 39.095 13.125 38.75 13.125ZM1.875 10V8.75H6.875L6.87563 10H1.875ZM4.375 5C5.40875 5 6.25 5.84125 6.25 6.875V7.5H2.5V6.875C2.5 5.84125 3.34125 5 4.375 5ZM6.875 21.875V25.6744L1.875 22.1744V21.875H6.875ZM1.875 31.2006L6.875 34.7006V36.3L1.875 32.8V31.2006ZM1.875 29.6744V26.825L6.875 30.325V33.1744L1.875 29.6744ZM1.875 25.2994V23.7L6.875 27.2V28.7994L1.875 25.2994ZM1.875 38.125V34.3256L6.875 37.8256V38.125H1.875ZM5.625 20.625H3.125V11.25H5.625V12.765C4.52312 13.2487 3.75 14.3469 3.75 15.625C3.75 16.9031 4.52312 18.0013 5.625 18.485V20.625ZM9.375 17.5H6.875C5.84125 17.5 5 16.6587 5 15.625C5 14.5913 5.84125 13.75 6.875 13.75H9.375V17.5ZM13.3837 14.375H15.3663L17.8663 16.875H15.8837L13.3837 14.375ZM14.1163 16.875H10.625V14.375H11.6163L14.1163 16.875ZM17.1337 14.375H20.3662L22.8662 16.875H19.6337L17.1337 14.375ZM22.1338 14.375H24.1162L26.6162 16.875H24.6338L22.1338 14.375ZM25.8838 14.375H29.1162L31.6162 16.875H28.3838L25.8838 14.375ZM30.8838 14.375H32.8662L35.3662 16.875H33.3838L30.8838 14.375ZM38.125 16.875H37.1338L34.6338 14.375H38.125V16.875Z" fill="white"/>
<path d="M7.5 16.875C8.19036 16.875 8.75 16.3154 8.75 15.625C8.75 14.9346 8.19036 14.375 7.5 14.375C6.80964 14.375 6.25 14.9346 6.25 15.625C6.25 16.3154 6.80964 16.875 7.5 16.875Z" fill="white"/>
</svg>
