<svg width="40" height="40" viewBox="0 0 40 40" fill="none" xmlns="http://www.w3.org/2000/svg">
<path d="M36.1719 0.625H1.25C1.08424 0.625 0.925268 0.690848 0.808058 0.808058C0.690848 0.925268 0.625 1.08424 0.625 1.25C0.625 1.41576 0.690848 1.57473 0.808058 1.69194C0.925268 1.80915 1.08424 1.875 1.25 1.875H14.375V2.5C14.3758 3.32855 14.7053 4.12292 15.2912 4.7088C15.8771 5.29467 16.6715 5.62417 17.5 5.625H19.375V20.625H18.125C17.9592 20.625 17.8003 20.6908 17.6831 20.8081C17.5658 20.9253 17.5 21.0842 17.5 21.25V24.1508L8.89219 34.6023C8.81707 34.6939 8.76949 34.8049 8.75496 34.9225C8.74044 35.04 8.75957 35.1593 8.81013 35.2664C8.8607 35.3735 8.94062 35.464 9.04061 35.5275C9.1406 35.591 9.25656 35.6248 9.375 35.625H15.6703C15.8206 36.6662 16.3409 37.6183 17.1361 38.307C17.9313 38.9957 18.948 39.3748 20 39.3748C21.052 39.3748 22.0687 38.9957 22.8639 38.307C23.6591 37.6183 24.1795 36.6662 24.3297 35.625H30.625C30.7434 35.6248 30.8594 35.591 30.9594 35.5275C31.0594 35.464 31.1393 35.3735 31.1899 35.2664C31.2404 35.1593 31.2596 35.04 31.245 34.9225C31.2305 34.8049 31.1829 34.6939 31.1078 34.6023L22.5 24.1508V21.25C22.5 21.0842 22.4342 20.9253 22.3169 20.8081C22.1997 20.6908 22.0408 20.625 21.875 20.625H20.625V5.625H22.5C23.3285 5.62417 24.1229 5.29467 24.7088 4.7088C25.2947 4.12292 25.6242 3.32855 25.625 2.5V1.875H36.1719C36.3376 1.875 36.4966 1.80915 36.6138 1.69194C36.731 1.57473 36.7969 1.41576 36.7969 1.25C36.7969 1.08424 36.731 0.925268 36.6138 0.808058C36.4966 0.690848 36.3376 0.625 36.1719 0.625ZM20 38.125C19.2799 38.1241 18.582 37.875 18.0242 37.4196C17.4663 36.9642 17.0825 36.3304 16.9375 35.625H23.0625C22.9175 36.3304 22.5337 36.9642 21.9758 37.4196C21.418 37.875 20.7201 38.1241 20 38.125ZM29.3008 34.375H10.6992L18.4203 25H21.5797L29.3008 34.375ZM21.25 21.875V23.75H18.75V21.875H21.25ZM24.375 2.5C24.3743 2.99708 24.1766 3.47361 23.8251 3.82509C23.4736 4.17658 22.9971 4.37434 22.5 4.375H17.5C17.0029 4.37434 16.5264 4.17658 16.1749 3.82509C15.8234 3.47361 15.6257 2.99708 15.625 2.5V1.875H24.375V2.5Z" fill="white"/>
<path d="M38.75 0.625H38.125C37.9592 0.625 37.8003 0.690848 37.6831 0.808058C37.5658 0.925268 37.5 1.08424 37.5 1.25C37.5 1.41576 37.5658 1.57473 37.6831 1.69194C37.8003 1.80915 37.9592 1.875 38.125 1.875H38.75C38.9158 1.875 39.0747 1.80915 39.1919 1.69194C39.3092 1.57473 39.375 1.41576 39.375 1.25C39.375 1.08424 39.3092 0.925268 39.1919 0.808058C39.0747 0.690848 38.9158 0.625 38.75 0.625Z" fill="white"/>
</svg>
