<svg width="40" height="40" viewBox="0 0 40 40" fill="none" xmlns="http://www.w3.org/2000/svg">
<path d="M18.9066 5.33333H20.2399C20.2399 5.16406 20.2907 5.10482 20.4815 4.90527C20.8701 4.56413 21.0931 4.07194 21.0931 3.55469C21.0931 3.03744 20.8701 2.54525 20.4815 2.2041C20.2907 2.00391 20.2399 1.94531 20.2399 1.77604C20.2399 1.60677 20.28 1.55924 20.4808 1.34993C20.8675 1.00749 21.0905 0.516602 21.0934 0H19.7601C19.7601 0.162109 19.7201 0.216797 19.5186 0.426107C19.1299 0.766927 18.9069 1.25911 18.9069 1.77637C18.9069 2.29362 19.1299 2.78581 19.5186 3.12663C19.7093 3.32682 19.7601 3.38542 19.7601 3.55469C19.7601 3.72396 19.7093 3.7832 19.5186 3.98275C19.1322 4.32552 18.9095 4.81673 18.9066 5.33333Z" fill="white"/>
<path d="M23.5732 5.33333H24.9066C24.9066 5.16406 24.9574 5.10482 25.1481 4.90527C25.5368 4.56413 25.7598 4.07194 25.7598 3.55469C25.7598 3.03744 25.5368 2.54525 25.1481 2.2041C24.9574 2.00391 24.9066 1.94531 24.9066 1.77604C24.9066 1.60677 24.9466 1.55924 25.1475 1.34993C25.5342 1.00749 25.7572 0.516602 25.7601 0H24.4268C24.4268 0.162109 24.3867 0.216797 24.1852 0.426107C23.7965 0.766927 23.5736 1.25911 23.5736 1.77637C23.5736 2.29362 23.7965 2.78581 24.1852 3.12663C24.376 3.32682 24.4268 3.38542 24.4268 3.55469C24.4268 3.72396 24.376 3.7832 24.1852 3.98275C23.7988 4.32552 23.5762 4.81673 23.5732 5.33333Z" fill="white"/>
<path d="M28.2399 5.33333H29.5732C29.5732 5.16406 29.624 5.10482 29.8148 4.90527C30.2034 4.56413 30.4264 4.07194 30.4264 3.55469C30.4264 3.03744 30.2034 2.54525 29.8148 2.2041C29.624 2.00391 29.5732 1.94531 29.5732 1.77604C29.5732 1.60677 29.6133 1.55924 29.8141 1.34993C30.2008 1.00749 30.4238 0.516602 30.4267 0H29.0934C29.0934 0.162109 29.0534 0.216797 28.8519 0.426107C28.4632 0.766927 28.2402 1.25911 28.2402 1.77637C28.2402 2.29362 28.4632 2.78581 28.8519 3.12663C29.0426 3.32682 29.0934 3.38542 29.0934 3.55469C29.0934 3.72396 29.0426 3.7832 28.8519 3.98275C28.4655 4.32552 28.2428 4.81673 28.2399 5.33333Z" fill="white"/>
<path d="M9.57324 5.33333H10.9066C10.9066 5.16406 10.9574 5.10482 11.1481 4.90527C11.5368 4.56413 11.7598 4.07194 11.7598 3.55469C11.7598 3.03744 11.5368 2.54525 11.1481 2.2041C10.9574 2.00391 10.9066 1.94531 10.9066 1.77604C10.9066 1.60677 10.9466 1.55924 11.1475 1.34993C11.5342 1.00749 11.7572 0.516602 11.7601 0H10.4268C10.4268 0.162109 10.3867 0.216797 10.1852 0.426107C9.79655 0.766927 9.57357 1.25911 9.57357 1.77637C9.57357 2.29362 9.79655 2.78581 10.1852 3.12663C10.376 3.32682 10.4268 3.38542 10.4268 3.55469C10.4268 3.72396 10.376 3.7832 10.1852 3.98275C9.79883 4.32552 9.57617 4.81673 9.57324 5.33333Z" fill="white"/>
<path d="M14.2399 5.33333H15.5732C15.5732 5.16406 15.624 5.10482 15.8148 4.90527C16.2035 4.56413 16.4264 4.07194 16.4264 3.55469C16.4264 3.03744 16.2035 2.54525 15.8148 2.2041C15.624 2.00391 15.5732 1.94531 15.5732 1.77604C15.5732 1.60677 15.6133 1.55924 15.8141 1.34993C16.2009 1.00749 16.4238 0.516602 16.4268 0H15.0934C15.0934 0.162109 15.0534 0.216797 14.8519 0.426107C14.4632 0.766927 14.2402 1.25911 14.2402 1.77637C14.2402 2.29362 14.4632 2.78581 14.8519 3.12663C15.0426 3.32682 15.0934 3.38542 15.0934 3.55469C15.0934 3.72396 15.0426 3.7832 14.8519 3.98275C14.4655 4.32552 14.2428 4.81673 14.2399 5.33333Z" fill="white"/>
<path d="M39.3333 24.6667C39.7015 24.6667 40 24.3682 40 24.0001V18.6667C40 18.2986 39.7015 18.0001 39.3333 18.0001H36V8.66675C36 7.56226 35.1045 6.66675 34 6.66675C32.8955 6.66675 32 7.56226 32 8.66675V9.33341H29.3333V8.66675C29.3333 7.56226 28.4378 6.66675 27.3333 6.66675C26.2288 6.66675 25.3333 7.56226 25.3333 8.66675V9.33341H22.6667C22.6667 7.86076 21.4727 6.66675 20 6.66675C18.5273 6.66675 17.3333 7.86076 17.3333 9.33341H14.6667V8.66675C14.6667 7.56226 13.7712 6.66675 12.6667 6.66675C11.5622 6.66675 10.6667 7.56226 10.6667 8.66675V9.33341H8V8.66675C8 7.56226 7.10449 6.66675 6 6.66675C4.89551 6.66675 4 7.56226 4 8.66675V18.0001H0.666667C0.298503 18.0001 0 18.2986 0 18.6667V24.0001C0 24.3682 0.298503 24.6667 0.666667 24.6667H1.33333V38.6667H0V40.0001H4V38.6667H2.66667V24.6667H4V34.0001C4 35.1046 4.89551 36.0001 6 36.0001C7.10449 36.0001 8 35.1046 8 34.0001V33.3334H10.6667V34.0001C10.6667 35.1046 11.5622 36.0001 12.6667 36.0001C13.7712 36.0001 14.6667 35.1046 14.6667 34.0001V33.3334H17.3333C17.3333 34.8061 18.5273 36.0001 20 36.0001C21.4727 36.0001 22.6667 34.8061 22.6667 33.3334H25.3333V34.0001C25.3333 35.1046 26.2288 36.0001 27.3333 36.0001C28.4378 36.0001 29.3333 35.1046 29.3333 34.0001V33.3334H32V34.0001C32 35.1046 32.8955 36.0001 34 36.0001C35.1045 36.0001 36 35.1046 36 34.0001V24.6667H37.3333V38.6667H36V40.0001H40V38.6667H38.6667V24.6667H39.3333ZM1.33333 23.3334V19.3334H4V23.3334H1.33333ZM6.66667 34.0001C6.66667 34.3682 6.36816 34.6667 6 34.6667C5.63184 34.6667 5.33333 34.3682 5.33333 34.0001V8.66675C5.33333 8.29858 5.63184 8.00008 6 8.00008C6.36816 8.00008 6.66667 8.29858 6.66667 8.66675V34.0001ZM8 32.0001V10.6667H10.6667V32.0001H8ZM13.3333 34.0001C13.3333 34.3682 13.0348 34.6667 12.6667 34.6667C12.2985 34.6667 12 34.3682 12 34.0001V8.66675C12 8.29858 12.2985 8.00008 12.6667 8.00008C13.0348 8.00008 13.3333 8.29858 13.3333 8.66675V34.0001ZM14.6667 32.0001V10.6667H17.3333V32.0001H14.6667ZM21.3333 33.3334C21.3333 34.0697 20.7363 34.6667 20 34.6667C19.2637 34.6667 18.6667 34.0697 18.6667 33.3334V9.33341C18.6667 8.59709 19.2637 8.00008 20 8.00008C20.7363 8.00008 21.3333 8.59709 21.3333 9.33341V33.3334ZM22.6667 32.0001V10.6667H25.3333V32.0001H22.6667ZM28 34.0001C28 34.3682 27.7015 34.6667 27.3333 34.6667C26.9652 34.6667 26.6667 34.3682 26.6667 34.0001V8.66675C26.6667 8.29858 26.9652 8.00008 27.3333 8.00008C27.7015 8.00008 28 8.29858 28 8.66675V34.0001ZM29.3333 32.0001V10.6667H32V32.0001H29.3333ZM34.6667 34.0001C34.6667 34.3682 34.3682 34.6667 34 34.6667C33.6318 34.6667 33.3333 34.3682 33.3333 34.0001V8.66675C33.3333 8.29858 33.6318 8.00008 34 8.00008C34.3682 8.00008 34.6667 8.29858 34.6667 8.66675V34.0001ZM36 23.3334V19.3334H38.6667V23.3334H36Z" fill="white"/>
</svg>
