<svg width="40" height="40" viewBox="0 0 40 40" fill="none" xmlns="http://www.w3.org/2000/svg">
<path d="M39.3334 38.6675H36.6255C36.6539 38.4485 36.6667 38.2248 36.6667 38.0009C36.6667 36.1192 35.5838 34.5175 34.0001 33.7757V11.3343C34.0001 10.9343 33.7334 10.6676 33.3334 10.6676H23.3334V0.667617C23.3334 0.267617 23.0668 0.00097658 22.6668 0.00097658H4.6668C4.26664 0.000898455 4 0.267539 4 0.667539V38.6675H0.666641C0.266641 38.6675 0 38.9342 0 39.3342C0 39.7342 0.266641 40.0009 0.666641 40.0009H4.66664H6.66664H22.6666H35.8H39.3334C39.7334 40.0009 40 39.7343 40 39.3343C40 38.9343 39.7334 38.6675 39.3334 38.6675ZM32.6666 33.3813C32.4491 33.3509 32.2267 33.3342 32 33.3342C31.4967 33.3342 31.003 33.4199 30.5366 33.5801C30.4205 33.4253 30.2332 33.3342 30 33.3342C29.6 33.3342 29.3334 33.6008 29.3334 34.0008V34.2051C29.0807 34.3871 28.8458 34.5948 28.6326 34.8257C28.5989 34.8613 28.5658 34.8974 28.5334 34.9341C27.9809 34.2436 27.2694 33.744 26.4648 33.5008C26.3493 33.3948 26.19 33.3341 26 33.3341C25.9257 33.3341 25.856 33.3434 25.7917 33.361C25.6412 33.3434 25.4883 33.3341 25.3334 33.3341C24.9155 33.3341 24.4451 33.3883 24.0639 33.5431C24.0167 33.559 23.9698 33.5754 23.9234 33.593C23.4627 33.2185 22.9239 32.9489 22.3561 32.8005C22.3501 32.7989 22.3439 32.7977 22.338 32.7961C22.2884 32.7833 22.2388 32.7712 22.1888 32.7604C22.1484 32.7514 22.1074 32.7437 22.0666 32.7361C22.0488 32.7328 22.0311 32.7293 22.0133 32.7262C21.9704 32.7188 21.9273 32.7122 21.884 32.7062C21.8646 32.7035 21.8452 32.7011 21.8258 32.6986C21.786 32.6937 21.7461 32.6891 21.7059 32.6854C21.6766 32.6827 21.6473 32.6807 21.6179 32.6786C21.5865 32.6764 21.5552 32.6738 21.5235 32.6723C21.4602 32.6693 21.3968 32.6674 21.3334 32.6674C21.2843 32.6674 21.2356 32.6684 21.1872 32.6702C21.1555 32.6713 21.1238 32.6732 21.0922 32.675C21.0795 32.6758 21.0667 32.6764 21.0541 32.6772C20.4467 32.7175 19.85 32.8889 19.3333 33.1925V12.0009H22.6666H32.6666V33.3813ZM5.33336 1.33426H22V10.6676H18.6666C18.2666 10.6676 18 10.9343 18 11.3343V32.0676C17.6593 31.7269 17.2666 31.4387 16.839 31.2132C16.8013 31.193 16.7631 31.1735 16.7248 31.1544C16.7098 31.147 16.6948 31.1393 16.6797 31.132C16.2039 30.9012 15.6862 30.7498 15.1452 30.6932C15.1376 30.6924 15.1299 30.6918 15.1223 30.691C15.0595 30.6847 14.9963 30.6798 14.9329 30.6761C14.9161 30.6751 14.8993 30.6741 14.8824 30.6732C14.8108 30.6699 14.7389 30.6676 14.6666 30.6676C13.6745 30.6676 12.7552 30.9939 12 31.5424V31.3343C12 30.9343 11.7334 30.6677 11.3334 30.6677C10.9334 30.6677 10.6667 30.9343 10.6667 31.3343V32.6677C10.6667 32.7677 10.6834 32.8593 10.7146 32.9406C10.3873 33.48 10.1617 34.0882 10.0667 34.7344C9.29922 34.8221 8.59742 35.0983 8.00008 35.5112V35.3344C8.00008 34.9344 7.73344 34.6678 7.33344 34.6678C6.93344 34.6678 6.6668 34.9344 6.6668 35.3344V36.6678C6.6668 36.7456 6.67719 36.8182 6.69641 36.8849C6.36586 37.4195 6.14094 38.0244 6.04828 38.6677H5.33352V1.33426H5.33336ZM10.3633 36.0147C10.3765 36.0136 10.3898 36.0128 10.4031 36.0118C10.4383 36.009 10.4734 36.0064 10.5089 36.0047C10.5612 36.0024 10.6137 36.0008 10.6667 36.0008C11.0667 36.0008 11.3334 35.7342 11.3334 35.3342C11.3334 33.4675 12.8 32.0008 14.6667 32.0008C16.3334 32.0008 17.7334 33.2008 17.9334 34.8675C17.9784 35.0478 18.0855 35.1964 18.2319 35.2951C18.2411 35.3016 18.2505 35.3077 18.2602 35.3137C18.2705 35.32 18.2807 35.3264 18.2914 35.3322C18.316 35.3458 18.3416 35.3582 18.3684 35.3689C18.3694 35.3693 18.3703 35.3697 18.3713 35.3702C18.4019 35.3824 18.4338 35.3926 18.4666 35.4008C18.4667 35.4008 18.4667 35.4008 18.4668 35.4009C18.5065 35.4141 18.5516 35.4192 18.5992 35.4177C18.8184 35.4209 19.0222 35.3011 19.1334 35.1344C19.1334 35.1343 19.1334 35.1343 19.1335 35.1343L19.2002 35.0676C19.7335 34.401 20.4668 34.001 21.3335 34.001C21.7837 34.001 22.2336 34.1271 22.6374 34.3629C21.8422 35.1106 21.3912 36.0854 21.3388 37.1283C21.3353 37.1965 21.3335 37.2653 21.3335 37.3343C21.3335 37.7979 21.4106 38.2422 21.5632 38.6677H7.4C7.71203 37.2323 8.90031 36.1476 10.3633 36.0147ZM23.137 38.6675C22.8823 38.2368 22.7334 37.7275 22.7334 37.2675C22.7334 36.5303 23.024 35.8662 23.5235 35.3807C23.619 35.2922 23.7208 35.2105 23.8283 35.1365C23.9324 35.1373 24.0372 35.1156 24.1334 35.0675C25.6 34.2675 27.3334 35.0009 27.8667 36.4675C27.9334 36.6675 28.1334 36.8675 28.4667 36.8675C28.53 36.8675 28.6 36.8474 28.6703 36.8116C28.8376 36.7842 28.9698 36.6614 29.0667 36.4675C29.3251 35.9186 29.7251 35.4803 30.212 35.173C30.317 35.1437 30.4073 35.0918 30.4791 35.0214C30.937 34.7913 31.456 34.6675 32.0001 34.6675C33.8667 34.6675 35.3334 36.1342 35.3334 38.0009C35.3334 38.2009 35.3334 38.4675 35.2668 38.6675H23.137Z" fill="white"/>
<path d="M22 17.3335C21.6 17.3335 21.3334 17.6001 21.3334 18.0001V19.3335C21.3334 19.7335 21.6 20.0001 22 20.0001C22.4 20.0001 22.6666 19.7335 22.6666 19.3335V18.0001C22.6666 17.6001 22.4 17.3335 22 17.3335Z" fill="white"/>
<path d="M22 29.3333C21.6 29.3333 21.3334 29.5999 21.3334 29.9999V31.3333C21.3334 31.7333 21.6 31.9999 22 31.9999C22.4 31.9999 22.6666 31.7333 22.6666 31.3333V29.9999C22.6666 29.5999 22.4 29.3333 22 29.3333Z" fill="white"/>
<path d="M22 21.3335C21.6 21.3335 21.3334 21.6001 21.3334 22.0001V23.3335C21.3334 23.7335 21.6 24.0001 22 24.0001C22.4 24.0001 22.6666 23.7335 22.6666 23.3335V22.0001C22.6666 21.6001 22.4 21.3335 22 21.3335Z" fill="white"/>
<path d="M22 25.3333C21.6 25.3333 21.3334 25.5999 21.3334 25.9999V27.3333C21.3334 27.7333 21.6 27.9999 22 27.9999C22.4 27.9999 22.6666 27.7333 22.6666 27.3333V25.9999C22.6666 25.5999 22.4 25.3333 22 25.3333Z" fill="white"/>
<path d="M22 13.3333C21.6 13.3333 21.3334 13.5999 21.3334 13.9999V15.3333C21.3334 15.7333 21.6 15.9999 22 15.9999C22.4 15.9999 22.6666 15.7333 22.6666 15.3333V13.9999C22.6666 13.5999 22.4 13.3333 22 13.3333Z" fill="white"/>
<path d="M26 20.0001C26.4 20.0001 26.6667 19.7335 26.6667 19.3335V18.0001C26.6667 17.6001 26.4 17.3335 26 17.3335C25.6 17.3335 25.3334 17.6001 25.3334 18.0001V19.3335C25.3334 19.7335 25.6 20.0001 26 20.0001Z" fill="white"/>
<path d="M26 15.9999C26.4 15.9999 26.6667 15.7333 26.6667 15.3333V13.9999C26.6667 13.5999 26.4 13.3333 26 13.3333C25.6 13.3333 25.3334 13.5999 25.3334 13.9999V15.3333C25.3334 15.7333 25.6 15.9999 26 15.9999Z" fill="white"/>
<path d="M26 24.0001C26.4 24.0001 26.6667 23.7335 26.6667 23.3335V22.0001C26.6667 21.6001 26.4 21.3335 26 21.3335C25.6 21.3335 25.3334 21.6001 25.3334 22.0001V23.3335C25.3334 23.7335 25.6 24.0001 26 24.0001Z" fill="white"/>
<path d="M26 27.9999C26.4 27.9999 26.6667 27.7333 26.6667 27.3333V25.9999C26.6667 25.5999 26.4 25.3333 26 25.3333C25.6 25.3333 25.3334 25.5999 25.3334 25.9999V27.3333C25.3334 27.7333 25.6 27.9999 26 27.9999Z" fill="white"/>
<path d="M26 31.9999C26.4 31.9999 26.6667 31.7333 26.6667 31.3333V29.9999C26.6667 29.5999 26.4 29.3333 26 29.3333C25.6 29.3333 25.3334 29.5999 25.3334 29.9999V31.3333C25.3334 31.7333 25.6 31.9999 26 31.9999Z" fill="white"/>
<path d="M30 24.0001C30.4 24.0001 30.6667 23.7335 30.6667 23.3335V22.0001C30.6667 21.6001 30.4 21.3335 30 21.3335C29.6 21.3335 29.3334 21.6001 29.3334 22.0001V23.3335C29.3334 23.7335 29.6 24.0001 30 24.0001Z" fill="white"/>
<path d="M30 20.0001C30.4 20.0001 30.6667 19.7335 30.6667 19.3335V18.0001C30.6667 17.6001 30.4 17.3335 30 17.3335C29.6 17.3335 29.3334 17.6001 29.3334 18.0001V19.3335C29.3334 19.7335 29.6 20.0001 30 20.0001Z" fill="white"/>
<path d="M30 31.9999C30.4 31.9999 30.6667 31.7333 30.6667 31.3333V29.9999C30.6667 29.5999 30.4 29.3333 30 29.3333C29.6 29.3333 29.3334 29.5999 29.3334 29.9999V31.3333C29.3334 31.7333 29.6 31.9999 30 31.9999Z" fill="white"/>
<path d="M30 27.9999C30.4 27.9999 30.6667 27.7333 30.6667 27.3333V25.9999C30.6667 25.5999 30.4 25.3333 30 25.3333C29.6 25.3333 29.3334 25.5999 29.3334 25.9999V27.3333C29.3334 27.7333 29.6 27.9999 30 27.9999Z" fill="white"/>
<path d="M30 15.9999C30.4 15.9999 30.6667 15.7333 30.6667 15.3333V13.9999C30.6667 13.5999 30.4 13.3333 30 13.3333C29.6 13.3333 29.3334 13.5999 29.3334 13.9999V15.3333C29.3334 15.7333 29.6 15.9999 30 15.9999Z" fill="white"/>
<path d="M7.33336 25.3334C7.73336 25.3334 8 25.0667 8 24.6667V23.3334C8 22.9334 7.73336 22.6667 7.33336 22.6667C6.93336 22.6667 6.66672 22.9334 6.66672 23.3334V24.6667C6.66664 25.0667 6.93336 25.3334 7.33336 25.3334Z" fill="white"/>
<path d="M7.33336 29.3334C7.73336 29.3334 8 29.0667 8 28.6667V27.3334C8 26.9334 7.73336 26.6667 7.33336 26.6667C6.93336 26.6667 6.66672 26.9334 6.66672 27.3334V28.6667C6.66664 29.0667 6.93336 29.3334 7.33336 29.3334Z" fill="white"/>
<path d="M7.33336 33.3334C7.73336 33.3334 8 33.0667 8 32.6667V31.3334C8 30.9334 7.73336 30.6667 7.33336 30.6667C6.93336 30.6667 6.66672 30.9334 6.66672 31.3334V32.6667C6.66664 33.0667 6.93336 33.3334 7.33336 33.3334Z" fill="white"/>
<path d="M7.33336 5.33339C7.73336 5.33339 8 5.06675 8 4.66675V3.33339C8 2.93339 7.73336 2.66675 7.33336 2.66675C6.93336 2.66675 6.66672 2.93339 6.66672 3.33339V4.66675C6.66664 5.06667 6.93336 5.33339 7.33336 5.33339Z" fill="white"/>
<path d="M7.33336 9.33339C7.73336 9.33339 8 9.06675 8 8.66675V7.33339C8 6.93339 7.73336 6.66675 7.33336 6.66675C6.93336 6.66675 6.66672 6.93339 6.66672 7.33339V8.66675C6.66664 9.06667 6.93336 9.33339 7.33336 9.33339Z" fill="white"/>
<path d="M7.33336 13.3334C7.73336 13.3334 8 13.0667 8 12.6667V11.3334C8 10.9334 7.73336 10.6667 7.33336 10.6667C6.93336 10.6667 6.66672 10.9334 6.66672 11.3334V12.6667C6.66664 13.0667 6.93336 13.3334 7.33336 13.3334Z" fill="white"/>
<path d="M7.33336 17.3334C7.73336 17.3334 8 17.0667 8 16.6667V15.3334C8 14.9334 7.73336 14.6667 7.33336 14.6667C6.93336 14.6667 6.66672 14.9334 6.66672 15.3334V16.6667C6.66664 17.0667 6.93336 17.3334 7.33336 17.3334Z" fill="white"/>
<path d="M7.33336 21.3331C7.73336 21.3331 8 21.0665 8 20.6665V19.3331C8 18.9331 7.73336 18.6665 7.33336 18.6665C6.93336 18.6665 6.66672 18.9331 6.66672 19.3331V20.6665C6.66664 21.0664 6.93336 21.3331 7.33336 21.3331Z" fill="white"/>
<path d="M11.3334 9.33339C11.7334 9.33339 12 9.06675 12 8.66675V7.33339C12 6.93339 11.7334 6.66675 11.3334 6.66675C10.9334 6.66675 10.6667 6.93339 10.6667 7.33339V8.66675C10.6666 9.06667 10.9334 9.33339 11.3334 9.33339Z" fill="white"/>
<path d="M11.3334 5.33339C11.7334 5.33339 12 5.06675 12 4.66675V3.33339C12 2.93339 11.7334 2.66675 11.3334 2.66675C10.9334 2.66675 10.6667 2.93339 10.6667 3.33339V4.66675C10.6666 5.06667 10.9334 5.33339 11.3334 5.33339Z" fill="white"/>
<path d="M11.3334 17.3334C11.7334 17.3334 12 17.0667 12 16.6667V15.3334C12 14.9334 11.7334 14.6667 11.3334 14.6667C10.9334 14.6667 10.6667 14.9334 10.6667 15.3334V16.6667C10.6666 17.0667 10.9334 17.3334 11.3334 17.3334Z" fill="white"/>
<path d="M11.3334 13.3334C11.7334 13.3334 12 13.0667 12 12.6667V11.3334C12 10.9334 11.7334 10.6667 11.3334 10.6667C10.9334 10.6667 10.6667 10.9334 10.6667 11.3334V12.6667C10.6666 13.0667 10.9334 13.3334 11.3334 13.3334Z" fill="white"/>
<path d="M11.3334 21.3331C11.7334 21.3331 12 21.0665 12 20.6665V19.3331C12 18.9331 11.7334 18.6665 11.3334 18.6665C10.9334 18.6665 10.6667 18.9331 10.6667 19.3331V20.6665C10.6666 21.0664 10.9334 21.3331 11.3334 21.3331Z" fill="white"/>
<path d="M11.3334 25.3334C11.7334 25.3334 12 25.0667 12 24.6667V23.3334C12 22.9334 11.7334 22.6667 11.3334 22.6667C10.9334 22.6667 10.6667 22.9334 10.6667 23.3334V24.6667C10.6666 25.0667 10.9334 25.3334 11.3334 25.3334Z" fill="white"/>
<path d="M11.3334 29.3334C11.7334 29.3334 12 29.0667 12 28.6667V27.3334C12 26.9334 11.7334 26.6667 11.3334 26.6667C10.9334 26.6667 10.6667 26.9334 10.6667 27.3334V28.6667C10.6666 29.0667 10.9334 29.3334 11.3334 29.3334Z" fill="white"/>
<path d="M15.3334 13.3334C15.7334 13.3334 16 13.0667 16 12.6667V11.3334C16 10.9334 15.7334 10.6667 15.3334 10.6667C14.9334 10.6667 14.6667 10.9334 14.6667 11.3334V12.6667C14.6666 13.0667 14.9334 13.3334 15.3334 13.3334Z" fill="white"/>
<path d="M15.3334 9.33339C15.7334 9.33339 16 9.06675 16 8.66675V7.33339C16 6.93339 15.7334 6.66675 15.3334 6.66675C14.9334 6.66675 14.6667 6.93339 14.6667 7.33339V8.66675C14.6666 9.06667 14.9334 9.33339 15.3334 9.33339Z" fill="white"/>
<path d="M15.3334 5.33339C15.7334 5.33339 16 5.06675 16 4.66675V3.33339C16 2.93339 15.7334 2.66675 15.3334 2.66675C14.9334 2.66675 14.6667 2.93339 14.6667 3.33339V4.66675C14.6666 5.06667 14.9334 5.33339 15.3334 5.33339Z" fill="white"/>
<path d="M15.3334 29.3334C15.7334 29.3334 16 29.0667 16 28.6667V27.3334C16 26.9334 15.7334 26.6667 15.3334 26.6667C14.9334 26.6667 14.6667 26.9334 14.6667 27.3334V28.6667C14.6666 29.0667 14.9334 29.3334 15.3334 29.3334Z" fill="white"/>
<path d="M15.3334 25.3334C15.7334 25.3334 16 25.0667 16 24.6667V23.3334C16 22.9334 15.7334 22.6667 15.3334 22.6667C14.9334 22.6667 14.6667 22.9334 14.6667 23.3334V24.6667C14.6666 25.0667 14.9334 25.3334 15.3334 25.3334Z" fill="white"/>
<path d="M15.3334 21.3331C15.7334 21.3331 16 21.0665 16 20.6665V19.3331C16 18.9331 15.7334 18.6665 15.3334 18.6665C14.9334 18.6665 14.6667 18.9331 14.6667 19.3331V20.6665C14.6666 21.0664 14.9334 21.3331 15.3334 21.3331Z" fill="white"/>
<path d="M15.3334 17.3334C15.7334 17.3334 16 17.0667 16 16.6667V15.3334C16 14.9334 15.7334 14.6667 15.3334 14.6667C14.9334 14.6667 14.6667 14.9334 14.6667 15.3334V16.6667C14.6666 17.0667 14.9334 17.3334 15.3334 17.3334Z" fill="white"/>
<path d="M19.3334 9.33339C19.7334 9.33339 20 9.06675 20 8.66675V7.33339C20 6.93339 19.7334 6.66675 19.3334 6.66675C18.9334 6.66675 18.6667 6.93339 18.6667 7.33339V8.66675C18.6666 9.06667 18.9334 9.33339 19.3334 9.33339Z" fill="white"/>
<path d="M19.3334 5.33339C19.7334 5.33339 20 5.06675 20 4.66675V3.33339C20 2.93339 19.7334 2.66675 19.3334 2.66675C18.9334 2.66675 18.6667 2.93339 18.6667 3.33339V4.66675C18.6666 5.06667 18.9334 5.33339 19.3334 5.33339Z" fill="white"/>
</svg>
