<svg width="41" height="40" viewBox="0 0 41 40" fill="none" xmlns="http://www.w3.org/2000/svg">
<path d="M22.8161 11.7241L18.6781 8.62069V5.51724H19.3678C19.5507 5.51724 19.7261 5.44458 19.8555 5.31525C19.9848 5.18591 20.0575 5.01049 20.0575 4.82759V0.689655C20.0575 0.506747 19.9848 0.331331 19.8555 0.201995C19.7261 0.0726599 19.5507 0 19.3678 0H5.57467C5.39176 0 5.21634 0.0726599 5.08701 0.201995C4.95767 0.331331 4.88501 0.506747 4.88501 0.689655V4.82759C4.88501 5.01049 4.95767 5.18591 5.08701 5.31525C5.21634 5.44458 5.39176 5.51724 5.57467 5.51724H6.26433V8.62069L2.12638 11.7241C1.69906 12.0462 1.35215 12.4629 1.11284 12.9415C0.873537 13.4201 0.748341 13.9477 0.74707 14.4828V36.5517C0.748097 37.466 1.11173 38.3424 1.75818 38.9889C2.40464 39.6353 3.28113 39.999 4.19535 40H20.7471C21.6613 39.999 22.5378 39.6353 23.1843 38.9889C23.8307 38.3424 24.1944 37.466 24.1954 36.5517V14.4828C24.1941 13.9477 24.0689 13.4201 23.8296 12.9415C23.5903 12.4629 23.2434 12.0462 22.8161 11.7241ZM9.02295 4.13793V1.37931H11.7816V4.13793H9.02295ZM13.1609 1.37931H15.9195V4.13793H13.1609V1.37931ZM18.6781 4.13793H17.2988V1.37931H18.6781V4.13793ZM6.26433 1.37931H7.64364V4.13793H6.26433V1.37931ZM2.95397 12.8276L7.36778 9.51724C7.45343 9.453 7.52295 9.3697 7.57083 9.27394C7.61871 9.17818 7.64364 9.07258 7.64364 8.96552V5.51724H17.2988V8.96552C17.2988 9.07258 17.3238 9.17818 17.3716 9.27394C17.4195 9.3697 17.489 9.453 17.5747 9.51724L21.9885 12.8276C22.2449 13.0208 22.4531 13.2708 22.5966 13.558C22.7402 13.8452 22.8153 14.1617 22.8161 14.4828V15.1724H2.12638V14.4828C2.12714 14.1617 2.20225 13.8452 2.34583 13.558C2.48942 13.2708 2.69757 13.0208 2.95397 12.8276ZM22.8161 31.7241H2.12638V16.5517H22.8161V31.7241ZM20.7471 38.6207H4.19535C3.64682 38.6201 3.12093 38.4019 2.73305 38.014C2.34518 37.6262 2.127 37.1003 2.12638 36.5517V33.1034H22.8161V36.5517C22.8155 37.1003 22.5973 37.6261 22.2094 38.014C21.8215 38.4019 21.2956 38.6201 20.7471 38.6207Z" fill="white"/>
<path d="M8.33333 26.2069H10.4023V28.2758C10.4023 28.4587 10.475 28.6341 10.6043 28.7635C10.7336 28.8928 10.909 28.9655 11.092 28.9655H13.8506C14.0335 28.9655 14.2089 28.8928 14.3382 28.7635C14.4676 28.6341 14.5402 28.4587 14.5402 28.2758V26.2069H16.6092C16.7921 26.2069 16.9675 26.1343 17.0969 26.0049C17.2262 25.8756 17.2989 25.7002 17.2989 25.5173V22.7587C17.2989 22.5758 17.2262 22.4004 17.0969 22.2711C16.9675 22.1417 16.7921 22.0691 16.6092 22.0691H14.5402V20.0002C14.5402 19.8173 14.4676 19.6419 14.3382 19.5125C14.2089 19.3832 14.0335 19.3105 13.8506 19.3105H11.092C10.909 19.3105 10.7336 19.3832 10.6043 19.5125C10.475 19.6419 10.4023 19.8173 10.4023 20.0002V22.0691H8.33333C8.15042 22.0691 7.97501 22.1417 7.84567 22.2711C7.71634 22.4004 7.64368 22.5758 7.64368 22.7587V25.5173C7.64368 25.7002 7.71634 25.8756 7.84567 26.0049C7.97501 26.1343 8.15042 26.2069 8.33333 26.2069Z" fill="white"/>
<path d="M38.3577 28.9998C39.0034 28.3526 39.366 27.4757 39.366 26.5615C39.366 25.6473 39.0034 24.7704 38.3577 24.1232C37.0832 22.7879 34.7554 22.787 33.4812 24.1232L27.6293 29.9752C26.9873 30.6228 26.6279 31.4983 26.6299 32.4103C26.6319 33.3222 26.995 34.1962 27.6398 34.841C28.2846 35.4859 29.1586 35.849 30.0705 35.8511C30.9824 35.8531 31.858 35.4938 32.5056 34.8518L38.3577 28.9998ZM31.5301 33.8763C31.3384 34.0704 31.1103 34.2246 30.8588 34.3301C30.6072 34.4357 30.3373 34.4904 30.0646 34.4912C29.7918 34.4921 29.5216 34.439 29.2695 34.335C29.0173 34.231 28.7882 34.0782 28.5953 33.8853C28.4025 33.6924 28.2496 33.4633 28.1456 33.2112C28.0416 32.959 27.9885 32.6888 27.9893 32.416C27.9902 32.1433 28.0449 31.8734 28.1504 31.6219C28.2559 31.3704 28.4102 31.1422 28.6042 30.9505L31.0425 28.5122L33.9684 31.4381L31.5301 33.8763Z" fill="white"/>
<path d="M37.2988 33.1037C36.6168 33.1037 35.9502 33.3059 35.3831 33.6848C34.816 34.0637 34.3741 34.6022 34.1131 35.2322C33.8521 35.8622 33.7838 36.5555 33.9168 37.2244C34.0499 37.8932 34.3783 38.5076 34.8606 38.9898C35.3428 39.472 35.9572 39.8004 36.6261 39.9334C37.295 40.0665 37.9883 39.9982 38.6184 39.7372C39.2485 39.4763 39.787 39.0343 40.1659 38.4673C40.5448 37.9003 40.7471 37.2336 40.7471 36.5517C40.746 35.6375 40.3824 34.7611 39.736 34.1147C39.0895 33.4683 38.213 33.1047 37.2988 33.1037ZM37.2988 34.4829C37.7265 34.4834 38.1435 34.6163 38.4927 34.8632C38.8419 35.1102 39.1061 35.4591 39.2492 35.8621H35.3485C35.4915 35.4591 35.7558 35.1102 36.1049 34.8632C36.4541 34.6163 36.8712 34.4834 37.2988 34.4829ZM37.2988 38.6205C36.8712 38.6199 36.4541 38.4871 36.1049 38.2402C35.7558 37.9932 35.4915 37.6443 35.3485 37.2413H39.2492C39.1061 37.6443 38.8419 37.9932 38.4927 38.2402C38.1435 38.4871 37.7265 38.6199 37.2988 38.6205Z" fill="white"/>
<path d="M32.4714 21.3798C32.4714 20.6977 32.2692 20.031 31.8903 19.464C31.5114 18.8969 30.9728 18.4549 30.3427 18.1939C29.7126 17.9329 29.0193 17.8646 28.3504 17.9977C27.6815 18.1307 27.0671 18.4591 26.5848 18.9414C26.1026 19.4237 25.7741 20.0381 25.6411 20.707C25.508 21.3759 25.5763 22.0693 25.8373 22.6994C26.0983 23.3295 26.5403 23.8681 27.1074 24.247C27.6744 24.6259 28.3411 24.8281 29.0231 24.8281C29.9374 24.8271 30.8138 24.4635 31.4603 23.817C32.1068 23.1705 32.4704 22.294 32.4714 21.3798ZM29.0231 19.3107C29.4508 19.3113 29.8679 19.4442 30.217 19.6911C30.5662 19.9381 30.8305 20.287 30.9735 20.6901H27.0728C27.2158 20.287 27.48 19.9381 27.8292 19.6911C28.1784 19.4442 28.5954 19.3113 29.0231 19.3107ZM27.0728 22.0694H30.9735C30.8307 22.4726 30.5666 22.8217 30.2173 23.0685C29.868 23.3154 29.4508 23.4479 29.0231 23.4479C28.5954 23.4479 28.1782 23.3154 27.829 23.0685C27.4797 22.8217 27.2155 22.4726 27.0728 22.0694Z" fill="white"/>
</svg>
