<svg width="40" height="28" viewBox="0 0 40 28" fill="none" xmlns="http://www.w3.org/2000/svg">
<path d="M38.6207 21.1903C38.6278 21.1284 38.6278 21.0657 38.6207 21.0037C38.6181 17.5234 37.8478 14.0984 36.3791 11.0371C34.9104 7.97576 32.7893 5.37413 30.2069 3.46641C30.1047 3.30511 29.9518 3.19389 29.7793 3.15546C26.845 1.09835 23.4595 0.00551447 20.0039 2.08148e-05C16.5484 -0.00547284 13.1601 1.07659 10.2207 3.12437C10.0482 3.16279 9.89528 3.27402 9.79313 3.43531C7.20679 5.34592 5.0833 7.95248 3.61437 11.0197C2.14545 14.0869 1.37732 17.5182 1.37935 21.0037C1.3722 21.0657 1.3722 21.1284 1.37935 21.1903C0.971954 21.3838 0.624011 21.7081 0.378778 22.1227C0.133546 22.5373 0.00184232 23.0241 4.21194e-05 23.5224V25.4347C-0.00177415 25.7702 0.0551669 26.1028 0.167602 26.4134C0.280036 26.7241 0.445754 27.0066 0.655257 27.245C0.864759 27.4833 1.11393 27.6726 1.38848 27.8022C1.66303 27.9318 1.95757 27.999 2.25521 28H37.7448C38.3424 27.9979 38.9149 27.7295 39.3374 27.2532C39.76 26.7769 39.9981 26.1316 40 25.458V23.5457C40.0022 23.0434 39.8724 22.5516 39.627 22.1324C39.3815 21.7132 39.0313 21.3854 38.6207 21.1903ZM37.2414 21.0037H29.8345C29.8479 20.9163 29.8479 20.8269 29.8345 20.7394L26.8345 11.4111C26.7863 11.2608 26.6982 11.131 26.5822 11.0392C26.4662 10.9474 26.3279 10.8981 26.1862 10.898H22.7586V1.8184C24.9565 2.22139 27.0643 3.10045 28.9655 4.40702V10.1206C28.9655 10.3268 29.0382 10.5245 29.1675 10.6703C29.2968 10.8161 29.4723 10.898 29.6552 10.898C29.8381 10.898 30.0135 10.8161 30.1428 10.6703C30.2722 10.5245 30.3448 10.3268 30.3448 10.1206V5.45646C32.4861 7.26669 34.2241 9.61401 35.4211 12.3125C36.6182 15.0111 37.2414 17.9867 37.2414 21.0037ZM21.3793 1.6396V11.6754C21.3793 11.8815 21.452 12.0793 21.5813 12.225C21.7106 12.3708 21.8861 12.4527 22.069 12.4527H25.669L28.4276 21.0037H11.5793L14.3379 12.4527H17.931C18.114 12.4527 18.2894 12.3708 18.4187 12.225C18.548 12.0793 18.6207 11.8815 18.6207 11.6754V1.6396C19.0759 1.56964 19.5379 1.56964 20 1.56964C20.4621 1.56964 20.9241 1.56964 21.3793 1.6396ZM9.6552 5.45646V10.1206C9.6552 10.3268 9.72786 10.5245 9.85719 10.6703C9.98653 10.8161 10.1619 10.898 10.3449 10.898C10.5278 10.898 10.7032 10.8161 10.8325 10.6703C10.9618 10.5245 11.0345 10.3268 11.0345 10.1206V4.40702C12.9358 3.10045 15.0435 2.22139 17.2414 1.8184V10.898H13.8483C13.7066 10.8981 13.5683 10.9474 13.4523 11.0392C13.3363 11.131 13.2482 11.2608 13.2 11.4111L10.2 20.7394C10.1751 20.8246 10.1634 20.914 10.1655 21.0037H2.75866C2.75866 17.9867 3.38185 15.0111 4.57888 12.3125C5.7759 9.61401 7.51389 7.26669 9.6552 5.45646ZM38.6207 25.458C38.6207 25.7199 38.5284 25.971 38.3641 26.1561C38.1999 26.3413 37.9771 26.4453 37.7448 26.4453H2.25521C2.02292 26.4453 1.80014 26.3413 1.63588 26.1561C1.47163 25.971 1.37935 25.7199 1.37935 25.458V23.5457C1.37935 23.2839 1.47163 23.0328 1.63588 22.8476C1.80014 22.6625 2.02292 22.5585 2.25521 22.5585H37.7448C37.9771 22.5585 38.1999 22.6625 38.3641 22.8476C38.5284 23.0328 38.6207 23.2839 38.6207 23.5457V25.458Z" fill="white"/>
</svg>
