<svg width="17" height="17" viewBox="0 0 17 17" fill="none" xmlns="http://www.w3.org/2000/svg">
<path d="M8.5 7.4375C7.327 7.4375 6.375 8.3895 6.375 9.5625C6.375 10.7355 7.327 11.6875 8.5 11.6875C9.673 11.6875 10.625 10.7355 10.625 9.5625C10.625 8.3895 9.673 7.4375 8.5 7.4375ZM15.9375 3.1875H13.2781L12.75 1.88169C12.4674 1.25375 12.1359 1.0625 11.6875 1.0625H5.3125C4.86412 1.0625 4.53263 1.25375 4.25 1.88169L3.72194 3.1875H1.0625C0.478125 3.1875 0 3.66563 0 4.25V14.875C0 15.4594 0.478125 15.9375 1.0625 15.9375H15.9375C16.5219 15.9375 17 15.4594 17 14.875V4.25C17 3.66563 16.5219 3.1875 15.9375 3.1875ZM8.5 13.8125C6.15294 13.8125 4.25 11.9096 4.25 9.5625C4.25 7.21544 6.15294 5.3125 8.5 5.3125C10.8471 5.3125 12.75 7.21544 12.75 9.5625C12.75 11.9096 10.8471 13.8125 8.5 13.8125Z" fill="#328FCD"/>
</svg>
