<svg width="40" height="40" viewBox="0 0 40 40" fill="none" xmlns="http://www.w3.org/2000/svg">
<g clip-path="url(#clip0)">
<path d="M34.0067 3.99996C34.0067 2.38212 33.0321 0.92357 31.5374 0.304446C30.0427 -0.314678 28.3223 0.0275452 27.1783 1.17154C26.0343 2.31553 25.6921 4.036 26.3112 5.5307C26.9303 7.0254 28.3889 7.99996 30.0067 7.99996C32.2148 7.99739 34.0041 6.20804 34.0067 3.99996ZM27.34 3.99996C27.34 2.5272 28.5339 1.3333 30.0067 1.3333C31.4795 1.3333 32.6734 2.5272 32.6734 3.99996C32.6734 5.47272 31.4795 6.66663 30.0067 6.66663C28.5339 6.66663 27.34 5.47272 27.34 3.99996Z" fill="white"/>
<path d="M1.33333 29.3334H15.3333C16.0697 29.3334 16.6667 28.7365 16.6667 28.0001V25.3334C16.6632 24.6454 16.1367 24.073 15.4513 24.0121L19.324 0.77675C19.3751 0.41844 19.131 0.0847857 18.7741 0.0250483C18.4171 -0.0346891 18.0776 0.201315 18.0093 0.55675L14.102 24.0001H12.6667V17.3334C12.6684 16.617 12.3798 15.9305 11.8668 15.4304C11.3538 14.9303 10.6601 14.6594 9.944 14.6794L5.33933 12.7834C4.30682 12.4208 3.1746 12.9554 2.79849 13.983C2.42237 15.0107 2.94202 16.1498 3.96467 16.5394L6.69067 17.6621C6.65733 17.9834 6.66667 17.6781 6.66667 21.3334H4.66667C4.01734 21.3321 3.40815 21.6475 3.03436 22.1784C2.66056 22.7094 2.56912 23.3892 2.78933 24.0001H1.33333C0.596954 24.0001 0 24.597 0 25.3334V28.0001C0 28.7365 0.596954 29.3334 1.33333 29.3334ZM4.03933 14.4434C4.15636 14.1058 4.52015 13.922 4.86133 14.0281L9.55733 15.9614C9.90279 16.0836 10.0849 16.4617 9.96508 16.8079C9.84525 17.1542 9.46842 17.3389 9.12133 17.2214L4.44267 15.2948C4.09642 15.1708 3.91594 14.7899 4.03933 14.4434ZM4 23.3334C4 22.9652 4.29848 22.6668 4.66667 22.6668H9.33333C9.70152 22.6668 10 22.3683 10 22.0001C10 21.6319 9.70152 21.3334 9.33333 21.3334H8V18.2001C8.41095 18.4247 8.86599 18.5569 9.33333 18.5874C10.2835 18.5911 11.1025 17.9198 11.2853 16.9874C11.3553 17.2608 11.3333 16.7334 11.3333 24.0001H4.66667C4.29848 24.0001 4 23.7016 4 23.3334ZM1.33333 25.3334H15.3333V28.0001H1.33333V25.3334Z" fill="white"/>
<path d="M13.3333 10.3333C13.3333 8.67646 11.9901 7.33331 10.3333 7.33331C8.6764 7.33331 7.33325 8.67646 7.33325 10.3333C7.33325 11.9902 8.6764 13.3333 10.3333 13.3333C11.9893 13.3315 13.3314 11.9894 13.3333 10.3333ZM8.66659 10.3333C8.66659 9.41284 9.41278 8.66665 10.3333 8.66665C11.2537 8.66665 11.9999 9.41284 11.9999 10.3333C11.9999 11.2538 11.2537 12 10.3333 12C9.41278 12 8.66659 11.2538 8.66659 10.3333Z" fill="white"/>
<path d="M38.6667 35.9998H34.254C34.523 35.5623 34.6679 35.06 34.6733 34.5464C34.6733 9.14042 34.678 11.1231 34.6627 10.9398C34.6445 10.1195 34.1956 9.36939 33.4811 8.96588C32.7667 8.56237 31.8925 8.56511 31.1807 8.97309L19.838 15.4151C19.0829 15.8507 18.6336 16.6709 18.673 17.5417C18.7124 18.4126 19.234 19.1888 20.0253 19.5544C19.9598 20.2051 20.174 20.8529 20.6145 21.3362C21.0549 21.8195 21.6801 22.0928 22.334 22.0878C23.0827 22.0878 23.1267 21.9798 26.6733 20.0138V34.6664C26.6758 35.136 26.8038 35.5963 27.044 35.9998H19.5107C19.866 35.4074 20.3721 34.92 20.9773 34.5871C21.2966 34.4107 21.4148 34.0105 21.2426 33.6889C21.0705 33.3673 20.6718 33.2438 20.348 33.4118C19.9849 33.6175 19.6448 33.8613 19.3333 34.1391V31.9998C19.3333 31.6316 19.0349 31.3331 18.6667 31.3331C18.2985 31.3331 18 31.6316 18 31.9998V34.1391C17.6871 33.861 17.3454 33.6172 16.9807 33.4118C16.6569 33.2438 16.2582 33.3673 16.086 33.6889C15.9138 34.0105 16.0321 34.4107 16.3513 34.5871C16.9578 34.9195 17.4651 35.407 17.8213 35.9998H8.84533C9.20156 35.407 9.70886 34.9195 10.3153 34.5871C10.6346 34.4107 10.7528 34.0105 10.5806 33.6889C10.4085 33.3673 10.0098 33.2438 9.686 33.4118C9.32129 33.6172 8.97957 33.861 8.66667 34.1391V31.9998C8.66667 31.6316 8.36819 31.3331 8 31.3331C7.63181 31.3331 7.33333 31.6316 7.33333 31.9998V34.1391C7.02043 33.861 6.67871 33.6172 6.314 33.4118C5.99019 33.2438 5.59155 33.3673 5.41936 33.6889C5.24718 34.0105 5.3654 34.4107 5.68467 34.5871C6.29114 34.9195 6.79844 35.407 7.15467 35.9998H1.33333C0.596954 35.9998 0 36.5967 0 37.3331V38.6664C0 39.4028 0.596954 39.9998 1.33333 39.9998H38.6667C39.403 39.9998 40 39.4028 40 38.6664V37.3331C40 36.5967 39.403 35.9998 38.6667 35.9998ZM20.0347 17.1791C20.1028 16.9228 20.2709 16.7045 20.5013 16.5731L31.85 10.1278C32.3242 9.89294 32.8993 10.0683 33.1619 10.5277C33.4245 10.9872 33.2837 11.5716 32.8407 11.8611L21.5073 18.3058C21.1561 18.5087 20.7173 18.4803 20.3951 18.2338C20.0729 17.9873 19.9307 17.5712 20.0347 17.1791ZM22.8307 20.6171C22.5225 20.7968 22.1415 20.7971 21.833 20.6178C21.5246 20.4384 21.3363 20.1072 21.34 19.7504C21.962 19.6598 21.802 19.6724 26.6733 16.9031V18.4904L22.8307 20.6171ZM28.0067 34.6664V16.1418L33.34 13.1098V34.5464C33.3371 34.9556 33.1688 35.3461 32.8733 35.6291C32.4932 35.9896 31.9341 36.0874 31.4541 35.8774C30.9741 35.6673 30.6665 35.1903 30.6733 34.6664V23.9998C30.6733 23.6316 30.3749 23.3331 30.0067 23.3331C29.6385 23.3331 29.34 23.6316 29.34 23.9998V34.6664C29.3435 35.1359 29.4717 35.5961 29.7113 35.9998H29.34C28.6036 35.9998 28.0067 35.4028 28.0067 34.6664ZM1.33333 38.6664V37.3331H38.6667V38.6664H1.33333Z" fill="white"/>
</g>
<defs>
<clipPath id="clip0">
<rect width="40" height="40" fill="white"/>
</clipPath>
</defs>
</svg>
