<svg width="40" height="40" viewBox="0 0 40 40" fill="none" xmlns="http://www.w3.org/2000/svg">
<path d="M8.33333 40C6.495 40 5 38.505 5 36.6666C5 34.8283 6.495 33.3333 8.33333 33.3333C10.1717 33.3333 11.6667 34.8283 11.6667 36.6666C11.6667 38.505 10.1717 40 8.33333 40ZM8.33333 35C7.41417 35 6.66667 35.7475 6.66667 36.6666C6.66667 37.5858 7.41417 38.3333 8.33333 38.3333C9.2525 38.3333 10 37.5858 10 36.6666C10 35.7475 9.2525 35 8.33333 35Z" fill="white"/>
<path d="M26.6667 40C24.8284 40 23.3334 38.505 23.3334 36.6666C23.3334 34.8283 24.8284 33.3333 26.6667 33.3333C28.505 33.3333 30 34.8283 30 36.6666C30 38.505 28.505 40 26.6667 40ZM26.6667 35C25.7475 35 25 35.7475 25 36.6666C25 37.5858 25.7475 38.3333 26.6667 38.3333C27.5859 38.3333 28.3334 37.5858 28.3334 36.6666C28.3334 35.7475 27.5859 35 26.6667 35Z" fill="white"/>
<path d="M17.5001 13.3341C17.0392 13.3341 16.6667 12.9616 16.6667 12.5008V0.834096C16.6667 0.373263 17.0392 0.000762939 17.5001 0.000762939C17.9609 0.000762939 18.3334 0.373263 18.3334 0.834096V12.5008C18.3334 12.9616 17.9609 13.3341 17.5001 13.3341Z" fill="white"/>
<path d="M22.5 6.66746C22.2867 6.66746 22.0734 6.58579 21.9109 6.42329L17.5 2.01245L13.0892 6.42329C12.7634 6.74912 12.2367 6.74912 11.9109 6.42329C11.585 6.09746 11.585 5.57079 11.9109 5.24496L16.9109 0.244955C17.2367 -0.0808785 17.7634 -0.0808785 18.0892 0.244955L23.0892 5.24496C23.415 5.57079 23.415 6.09746 23.0892 6.42329C22.9267 6.58579 22.7134 6.66746 22.5 6.66746Z" fill="white"/>
<path d="M26.6667 35H8.33333C7.8725 35 7.5 34.6275 7.5 34.1667C7.5 33.7058 7.8725 33.3333 8.33333 33.3333H26.0067L32.5217 5.6425C32.6108 5.26583 32.9467 5 33.3333 5H39.1667C39.6275 5 40 5.3725 40 5.83333C40 6.29417 39.6275 6.66667 39.1667 6.66667H33.9933L27.4783 34.3575C27.3892 34.7342 27.0533 35 26.6667 35Z" fill="white"/>
<path d="M27.5 31.6667H5.83338C5.47421 31.6667 5.15671 31.4375 5.04338 31.0967L0.0433775 16.0967C-0.0424558 15.8425 0.000877492 15.5625 0.157544 15.3458C0.314211 15.1283 0.565877 15 0.833377 15H30.8334C31.2942 15 31.6667 15.3725 31.6667 15.8333C31.6667 16.2942 31.2942 16.6667 30.8334 16.6667H1.99004L6.43421 30H27.5C27.9609 30 28.3334 30.3725 28.3334 30.8333C28.3334 31.2942 27.9609 31.6667 27.5 31.6667Z" fill="white"/>
</svg>
