<svg width="16" height="16" viewBox="0 0 16 16" fill="none" xmlns="http://www.w3.org/2000/svg">
<path d="M7.77582 2.14891C7.86752 1.9631 8.13248 1.9631 8.22418 2.14891L9.44592 4.62442C9.70083 5.14092 10.1936 5.49891 10.7636 5.58174L13.4954 5.9787C13.7005 6.0085 13.7824 6.26049 13.634 6.40513L11.6572 8.33204C11.2447 8.73408 11.0565 9.31333 11.1539 9.88101L11.6206 12.6019C11.6556 12.8061 11.4412 12.9618 11.2578 12.8654L8.81435 11.5808C8.30453 11.3128 7.69547 11.3128 7.18565 11.5808L4.74218 12.8654C4.55878 12.9618 4.34442 12.8061 4.37945 12.6019L4.84611 9.88102C4.94347 9.31333 4.75526 8.73408 4.34281 8.33204L2.36601 6.40512C2.21763 6.26049 2.2995 6.0085 2.50456 5.9787L5.23644 5.58174C5.80644 5.49891 6.29917 5.14091 6.55408 4.62441L5.88153 4.29249L6.55408 4.62441L7.77582 2.14891Z" stroke="white" stroke-width="1.5"/>
</svg>
