<svg width="17" height="17" viewBox="0 0 17 17" fill="none" xmlns="http://www.w3.org/2000/svg">
<path d="M14.8795 5.39741C14.7266 5.39741 14.5736 5.41632 14.4227 5.45414C14.3691 5.46714 14.3223 5.49313 14.2708 5.51086V2.0682C14.2708 0.927735 13.4632 0 12.4682 0H4.5327C3.5387 0 2.73011 0.927735 2.73011 2.0682V5.51204C2.66264 5.489 2.59878 5.45827 2.52822 5.44232C2.39432 5.41218 2.25732 5.39741 2.12187 5.39741C1.10882 5.39741 0.233274 6.22646 0.0401403 7.36929C-0.18132 8.67816 0.534564 9.92735 1.67019 10.2128C1.78401 10.2405 1.86642 10.3593 1.86642 10.4923V13.7582C1.86642 14.7333 2.45972 15.5493 3.25286 15.765L2.85372 16.5568C2.78213 16.6975 2.82436 16.8789 2.94745 16.9598C2.98814 16.9876 3.03243 17 3.07621 17C3.16479 17 3.25132 16.9468 3.29921 16.8523L3.81681 15.8264H13.182L13.7012 16.8523C13.7485 16.9468 13.8351 17 13.9236 17C13.9679 17 14.0122 16.9876 14.0524 16.9598C14.176 16.8789 14.2182 16.698 14.1461 16.5568L13.748 15.765C14.5406 15.5481 15.134 14.7333 15.134 13.7582V10.4923C15.134 10.3593 15.2164 10.2417 15.3302 10.2128C15.8833 10.0733 16.3571 9.69571 16.6641 9.14735C16.97 8.59957 17.0715 7.94779 16.9499 7.31256C16.7393 6.20282 15.8684 5.39741 14.8795 5.39741ZM3.24514 2.0682C3.24514 1.25392 3.82299 0.590914 4.5327 0.590914H12.4682C13.1784 0.590914 13.7558 1.25392 13.7558 2.0682V5.77323C13.0275 6.29205 12.6212 7.28301 12.7983 8.35139C12.7983 8.50975 12.6866 8.63798 12.5491 8.63798L4.40652 8.63325C4.27106 8.60312 4.18248 8.45243 4.20875 8.29702C4.38077 7.28065 3.96875 6.29205 3.24617 5.77323L3.24514 2.0682ZM16.2315 8.82825C15.9992 9.24307 15.6413 9.52967 15.2215 9.63544C14.8723 9.72171 14.62 10.0822 14.62 10.4917V13.7577C14.62 14.5713 14.0426 15.2349 13.3324 15.2349H3.67003C2.96033 15.2349 2.38247 14.5713 2.38247 13.7577V10.4917C2.38247 10.0822 2.12959 9.72171 1.78144 9.63544C0.921862 9.41858 0.379541 8.47311 0.547439 7.48156C0.693706 6.61646 1.35654 5.98832 2.12341 5.98832C2.22487 5.98832 2.32839 5.99955 2.43191 6.02259C3.30179 6.21641 3.87244 7.1861 3.70402 8.18475C3.62368 8.65984 3.8951 9.12076 4.31021 9.21353C4.3581 9.22476 4.406 9.22889 4.45441 9.22889H12.5491C12.9714 9.22889 13.3144 8.83534 13.3144 8.35139C13.3144 8.29525 13.3092 8.23911 13.3005 8.18416C13.1326 7.1926 13.6749 6.24714 14.5345 6.03087C15.3863 5.81814 16.2634 6.46814 16.4488 7.43842C16.5389 7.92002 16.4627 8.41343 16.2315 8.82825Z" fill="#4FB778"/>
<path d="M6.09135 3.17594C6.44414 3.17594 6.73101 2.84621 6.73101 2.44143C6.73101 2.03666 6.44414 1.70752 6.09135 1.70752C5.73856 1.70752 5.45117 2.03666 5.45117 2.44143C5.45117 2.84621 5.73856 3.17594 6.09135 3.17594ZM6.09135 2.29843C6.15985 2.29843 6.21598 2.36284 6.21598 2.44143C6.21598 2.5998 5.9662 2.59921 5.9662 2.44143C5.96671 2.36284 6.02182 2.29843 6.09135 2.29843Z" fill="#4FB778"/>
<path d="M6.09135 5.87589C6.44414 5.87589 6.73101 5.54616 6.73101 5.14138C6.73101 4.73661 6.44414 4.40747 6.09135 4.40747C5.73856 4.40747 5.45117 4.73661 5.45117 5.14138C5.45117 5.54616 5.73856 5.87589 6.09135 5.87589ZM6.09135 4.99838C6.15985 4.99838 6.21598 5.06279 6.21598 5.14138C6.21598 5.29975 5.9662 5.29916 5.9662 5.14138C5.96671 5.06279 6.02182 4.99838 6.09135 4.99838Z" fill="#4FB778"/>
<path d="M10.9111 3.17594C11.2645 3.17594 11.5508 2.84621 11.5508 2.44143C11.5508 2.03666 11.2639 1.70752 10.9111 1.70752C10.5584 1.70752 10.2715 2.03666 10.2715 2.44143C10.2715 2.84621 10.5578 3.17594 10.9111 3.17594ZM10.9111 2.29843C10.9796 2.29843 11.0358 2.36284 11.0358 2.44143C11.0358 2.5998 10.7865 2.59921 10.7865 2.44143C10.7865 2.36284 10.8416 2.29843 10.9111 2.29843Z" fill="#4FB778"/>
<path d="M10.9111 5.87589C11.2645 5.87589 11.5508 5.54616 11.5508 5.14138C11.5508 4.73661 11.2639 4.40747 10.9111 4.40747C10.5584 4.40747 10.2715 4.73661 10.2715 5.14138C10.2715 5.54616 10.5578 5.87589 10.9111 5.87589ZM10.9111 4.99838C10.9796 4.99838 11.0358 5.06279 11.0358 5.14138C11.0358 5.29975 10.7865 5.29916 10.7865 5.14138C10.7865 5.06279 10.8416 4.99838 10.9111 4.99838Z" fill="#4FB778"/>
</svg>
