<svg width="40" height="40" viewBox="0 0 40 40" fill="none" xmlns="http://www.w3.org/2000/svg">
<path d="M30.6666 17.3333V21.3333H36V17.3333H30.6666ZM34.6666 20H32V18.6666H34.6666V20Z" fill="white"/>
<path d="M30.6666 22.6667V26.6667H36V22.6667H30.6666ZM34.6666 25.3334H32V24H34.6666V25.3334Z" fill="white"/>
<path d="M30.6666 28V32H36V28H30.6666ZM34.6666 30.6667H32V29.3333H34.6666V30.6667Z" fill="white"/>
<path d="M30.6666 33.3333V37.3333H36V33.3333H30.6666ZM34.6666 36H32V34.6666H34.6666V36Z" fill="white"/>
<path d="M22.6667 6.66669V2.66669H17.3334V6.66669H13.3334V12H17.3334V16H22.6667V12H26.6667V6.66669H22.6667ZM25.3334 10.6667H21.3334V14.6667H18.6667V10.6667H14.6667V8.00002H18.6667V4.00002H21.3334V8.00002H25.3334V10.6667Z" fill="white"/>
<path d="M29.3334 14.6667V0H10.6667V14.6667H1.33337V40H38.6667V14.6667H29.3334ZM10.6667 38.6667H2.66671V16H10.6667V38.6667ZM19.3334 38.6667H16V26.6667H19.3334V38.6667ZM24 38.6667H20.6667V26.6667H24V38.6667ZM28 38.6667H25.3334V25.3333H14.6667V38.6667H12V1.33333H28V38.6667ZM37.3334 38.6667H29.3334V16H37.3334V38.6667Z" fill="white"/>
<path d="M4 17.3333V21.3333H9.33333V17.3333H4ZM8 20H5.33333V18.6666H8V20Z" fill="white"/>
<path d="M4 22.6667V26.6667H9.33333V22.6667H4ZM8 25.3334H5.33333V24H8V25.3334Z" fill="white"/>
<path d="M4 28V32H9.33333V28H4ZM8 30.6667H5.33333V29.3333H8V30.6667Z" fill="white"/>
<path d="M4 33.3333V37.3333H9.33333V33.3333H4ZM8 36H5.33333V34.6666H8V36Z" fill="white"/>
</svg>
