<svg width="40" height="34" viewBox="0 0 40 34" fill="none" xmlns="http://www.w3.org/2000/svg">
<path d="M39.1667 6.29147H28.0167V2.44487C28.0167 1.79645 27.7533 1.17459 27.2844 0.716086C26.8156 0.257584 26.1797 0 25.5167 0L14.4833 0C13.8203 0 13.1844 0.257584 12.7156 0.716086C12.2467 1.17459 11.9833 1.79645 11.9833 2.44487V6.29147H0.833333C0.61232 6.29147 0.400358 6.37733 0.244078 6.53016C0.0877974 6.683 0 6.89028 0 7.10642L0 16.8859C0.000417502 17.6784 0.237137 18.4536 0.681171 19.1165C1.1252 19.7795 1.75728 20.3014 2.5 20.6184V33.185C2.5 33.4012 2.5878 33.6085 2.74408 33.7613C2.90036 33.9141 3.11232 34 3.33333 34H36.6667C36.8877 34 37.0996 33.9141 37.2559 33.7613C37.4122 33.6085 37.5 33.4012 37.5 33.185V20.6184C38.2427 20.3014 38.8748 19.7795 39.3188 19.1165C39.7629 18.4536 39.9996 17.6784 40 16.8859V7.10642C40 6.89028 39.9122 6.683 39.7559 6.53016C39.5996 6.37733 39.3877 6.29147 39.1667 6.29147ZM13.65 2.44487C13.65 2.22873 13.7378 2.02144 13.8941 1.86861C14.0504 1.71577 14.2623 1.62991 14.4833 1.62991H25.5333C25.7543 1.62991 25.9663 1.71577 26.1226 1.86861C26.2789 2.02144 26.3667 2.22873 26.3667 2.44487V6.29147H13.65V2.44487ZM35.8333 32.3701H4.16667V20.9607H8.33333V21.9386C8.32447 22.2624 8.38149 22.5847 8.50107 22.8868C8.62065 23.1888 8.80041 23.4646 9.02991 23.6981C9.2594 23.9317 9.53407 24.1183 9.83793 24.2471C10.1418 24.376 10.4688 24.4445 10.8 24.4487H12.4667C12.8035 24.4532 13.1377 24.3911 13.4493 24.2662C13.761 24.1412 14.0436 23.9559 14.2802 23.7215C14.5168 23.4871 14.7025 23.2083 14.8262 22.9019C14.9499 22.5956 15.009 22.2679 15 21.9386V20.9607H25V21.9386C25 22.5871 25.2634 23.2089 25.7322 23.6674C26.2011 24.1259 26.837 24.3835 27.5 24.3835H29.1667C29.8297 24.3835 30.4656 24.1259 30.9344 23.6674C31.4033 23.2089 31.6667 22.5871 31.6667 21.9386V20.9607H35.8333V32.3701ZM10 20.1457V18.8255H13.3333V21.9223C13.3333 22.1385 13.2455 22.3458 13.0893 22.4986C12.933 22.6514 12.721 22.7373 12.5 22.7373H10.8333C10.6123 22.7373 10.4004 22.6514 10.2441 22.4986C10.0878 22.3458 10 22.1385 10 21.9223V20.1457ZM30 21.9386C30 22.1548 29.9122 22.3621 29.7559 22.5149C29.5996 22.6677 29.3877 22.7536 29.1667 22.7536H27.5C27.279 22.7536 27.067 22.6677 26.9107 22.5149C26.7545 22.3621 26.6667 22.1548 26.6667 21.9386V18.8418H30V21.9386ZM38.3333 16.8859C38.3333 17.5343 38.0699 18.1562 37.6011 18.6147C37.1323 19.0732 36.4964 19.3308 35.8333 19.3308H31.6667V18.0105C31.6667 17.7944 31.5789 17.5871 31.4226 17.4343C31.2663 17.2815 31.0543 17.1956 30.8333 17.1956H25.8333C25.6123 17.1956 25.4004 17.2815 25.2441 17.4343C25.0878 17.5871 25 17.7944 25 18.0105V19.3308H15V18.0105C15 17.7944 14.9122 17.5871 14.7559 17.4343C14.5996 17.2815 14.3877 17.1956 14.1667 17.1956H9.16667C8.94565 17.1956 8.73369 17.2815 8.57741 17.4343C8.42113 17.5871 8.33333 17.7944 8.33333 18.0105V19.3308H4.16667C3.50363 19.3308 2.86774 19.0732 2.3989 18.6147C1.93006 18.1562 1.66667 17.5343 1.66667 16.8859V7.92138H38.3333V16.8859Z" fill="white"/>
</svg>
