<svg width="40" height="40" viewBox="0 0 40 40" fill="none" xmlns="http://www.w3.org/2000/svg">
<mask id="mask0" mask-type="alpha" maskUnits="userSpaceOnUse" x="0" y="0" width="40" height="40">
<path d="M20 40C31.0457 40 40 31.0457 40 20C40 8.9543 31.0457 0 20 0C8.9543 0 0 8.9543 0 20C0 31.0457 8.9543 40 20 40Z" fill="white"/>
</mask>
<g mask="url(#mask0)">
<path d="M20 40C31.0457 40 40 31.0457 40 20C40 8.9543 31.0457 0 20 0C8.9543 0 0 8.9543 0 20C0 31.0457 8.9543 40 20 40Z" fill="#213AF9"/>
<path fill-rule="evenodd" clip-rule="evenodd" d="M28.99 11.856L24.79 16.105C23.507 14.677 21.675 13.763 19.621 13.763H17.202V18.457H12.564V23.205H10.005C8.705 23.205 7.638 22.125 7.638 20.81C7.638 19.495 8.705 18.415 10.005 18.415H12.564V13.749H17.202V9H12.564V13.721H10.005C6.133 13.721 3 16.906 3 20.811C3 24.729 6.133 27.913 10.005 27.913H13.015V27.899H17.202V18.47H19.624V18.467C20.908 18.469 21.951 19.515 21.978 20.808V27.964H26.628V27.58H26.632V20.895L28.989 18.51L31.351 20.9V28H36V18.95L28.99 11.856Z" fill="white"/>
</g>
</svg>
