<svg width="129" height="30" viewBox="0 0 129 30" fill="none" xmlns="http://www.w3.org/2000/svg">
<g clip-path="url(#clip0)">
<path d="M16.265 30C24.55 30 31.2664 23.2837 31.2664 14.9987C31.2664 6.71365 24.55 -0.00268555 16.265 -0.00268555C7.98 -0.00268555 1.26367 6.71365 1.26367 14.9987C1.26367 23.2837 7.98 30 16.265 30Z" fill="#007FC0"/>
<path fill-rule="evenodd" clip-rule="evenodd" d="M12.1039 11.247H11.7214C11.5665 11.2461 11.4173 11.3055 11.3053 11.4125C11.1932 11.5195 11.1271 11.6658 11.1208 11.8206V14.3119H7.6735V11.8206C7.67601 11.7475 7.66405 11.6747 7.6383 11.6062C7.61256 11.5378 7.57353 11.4751 7.52347 11.4218C7.47341 11.3685 7.41331 11.3256 7.34661 11.2956C7.27992 11.2656 7.20795 11.249 7.13485 11.247H6.74163C6.6663 11.247 6.5917 11.2618 6.5221 11.2906C6.45251 11.3195 6.38927 11.3617 6.336 11.415C6.28273 11.4682 6.24047 11.5315 6.21164 11.6011C6.18281 11.6707 6.16798 11.7453 6.16798 11.8206V18.1417C6.16762 18.2172 6.1822 18.2921 6.21087 18.362C6.23954 18.4319 6.28174 18.4955 6.33504 18.549C6.38835 18.6026 6.45171 18.6451 6.52148 18.6741C6.59126 18.7031 6.66607 18.718 6.74163 18.718H7.12407C7.19741 18.7159 7.26961 18.6993 7.33649 18.6691C7.40336 18.639 7.46359 18.5958 7.51369 18.5422C7.56378 18.4886 7.60275 18.4256 7.62833 18.3569C7.65391 18.2881 7.6656 18.215 7.66272 18.1417V15.8443H11.1101V18.1417C11.1157 18.2969 11.1815 18.4439 11.2936 18.5515C11.4057 18.6591 11.5553 18.7188 11.7107 18.718H12.1039C12.1772 18.7159 12.2494 18.6993 12.3163 18.6691C12.3832 18.639 12.4434 18.5958 12.4935 18.5422C12.5436 18.4886 12.5825 18.4256 12.6081 18.3569C12.6337 18.2881 12.6454 18.215 12.6425 18.1417V11.8206C12.645 11.7475 12.6331 11.6747 12.6073 11.6062C12.5816 11.5378 12.5426 11.4751 12.4925 11.4218C12.4424 11.3685 12.3823 11.3256 12.3156 11.2956C12.2489 11.2656 12.177 11.249 12.1039 11.247Z" fill="white"/>
<path fill-rule="evenodd" clip-rule="evenodd" d="M16.8874 11.2631H16.8362H14.0649C13.9139 11.27 13.7714 11.3349 13.667 11.4443C13.5627 11.5536 13.5045 11.699 13.5047 11.8502V12.2353C13.505 12.3099 13.5202 12.3837 13.5493 12.4524C13.5784 12.5211 13.6209 12.5833 13.6743 12.6355C13.7277 12.6876 13.7909 12.7286 13.8602 12.7561C13.9296 12.7835 14.0037 12.7969 14.0783 12.7955H16.4134C16.4134 12.7955 17.6361 12.712 17.9189 14.3118H14.0649C13.912 14.3215 13.7686 14.3894 13.6644 14.5017C13.5602 14.6139 13.503 14.7619 13.5047 14.9151V15.2975C13.5045 15.3713 13.5195 15.4443 13.5488 15.5121C13.578 15.5798 13.6208 15.6408 13.6746 15.6914C13.7284 15.7419 13.792 15.7808 13.8614 15.8057C13.9309 15.8306 14.0047 15.841 14.0783 15.8362H17.8731C17.5418 17.2744 16.3972 17.3471 16.3972 17.3471H14.0649C13.9912 17.3423 13.9174 17.3527 13.848 17.3776C13.7785 17.4025 13.7149 17.4414 13.6611 17.4919C13.6074 17.5424 13.5645 17.6034 13.5353 17.6712C13.5061 17.7389 13.4911 17.812 13.4912 17.8857V18.2682C13.4912 18.586 13.7471 18.7126 14.0649 18.7126H16.8443H16.882C16.882 18.7126 19.6156 18.6802 19.5752 15.1252C19.5591 11.2415 16.8874 11.2631 16.8874 11.2631Z" fill="white"/>
<path fill-rule="evenodd" clip-rule="evenodd" d="M25.6247 14.3253C25.6049 14.3244 25.5852 14.3244 25.5654 14.3253H22.0642V12.7848H26.1983C26.3583 12.7667 26.5057 12.6896 26.6118 12.5686C26.7179 12.4475 26.775 12.2913 26.772 12.1303V11.861C26.7735 11.7054 26.7146 11.5552 26.6076 11.4421C26.5006 11.3291 26.3538 11.262 26.1983 11.255H21.504C21.504 11.255 21.504 11.255 21.4825 11.255C20.7311 11.2281 20.4806 11.6402 20.5183 12.2461V17.9019C20.5183 18.2197 21.0273 18.7099 21.3424 18.7099H21.4421C21.4421 18.7099 21.4582 18.7099 21.4663 18.7099H25.0645C25.0645 18.7099 27.3376 18.7099 27.3645 16.4476C27.3887 14.4519 25.8294 14.3334 25.6247 14.3253ZM25.086 17.3875H22.0588V15.6531H25.1991C25.4068 15.6601 25.6032 15.749 25.7455 15.9004C25.8878 16.0518 25.9644 16.2534 25.9586 16.4611C25.9638 16.6991 25.8752 16.9296 25.7119 17.1029C25.5487 17.2762 25.3239 17.3784 25.086 17.3875Z" fill="white"/>
<path d="M40.2836 8.52141H42.6483C42.8422 8.52141 42.8745 8.49717 42.8745 8.28171V5.41341H44.372V8.28171C44.372 8.49717 44.4178 8.52141 44.6117 8.52141H46.9656C47.181 8.52141 47.2053 8.49717 47.2053 8.28171V7.10477C47.2053 6.88661 47.181 6.86507 46.9656 6.86507H46.6101V2.34312H46.9656C47.181 2.34312 47.2053 2.29464 47.2053 2.10073V0.913007C47.2053 0.719094 47.181 0.684082 46.9656 0.684082H44.6117C44.4178 0.684082 44.372 0.719094 44.372 0.913007V3.60625H42.8745V0.913007C42.8745 0.719094 42.8422 0.684082 42.6483 0.684082H40.2836C40.0655 0.684082 40.0439 0.719094 40.0439 0.913007V2.10073C40.0439 2.29464 40.0655 2.34312 40.2836 2.34312H40.6365V6.86507H40.2836C40.0655 6.86507 40.0439 6.88661 40.0439 7.10477V8.28171C40.0439 8.49717 40.0655 8.52141 40.2836 8.52141Z" fill="#1C1A19"/>
<path d="M53.9574 6.95668H53.6153C53.5899 6.85155 53.5746 6.74423 53.5696 6.63618V4.64857C53.5819 4.39453 53.5546 4.14012 53.4888 3.89446C53.2194 3.07302 52.3818 2.6825 51.2722 2.6825C50.5437 2.65408 49.8191 2.80287 49.1607 3.11612C49.0126 3.19961 48.9776 3.21038 49.0234 3.34504L49.4327 4.4789C49.4785 4.59201 49.5378 4.59201 49.6401 4.54623C50.0724 4.34745 50.5366 4.22707 51.011 4.19072C51.6035 4.19072 51.6735 4.35231 51.6735 4.53545V4.86672C50.2003 4.86672 48.6221 5.25455 48.6221 6.86511C48.6221 7.9828 49.3546 8.68035 50.5989 8.68035C51.103 8.67371 51.5871 8.48201 51.959 8.1417C52.0048 8.25482 52.0371 8.34639 52.0721 8.42719C52.1071 8.50798 52.1637 8.51876 52.2795 8.51876H53.9574C54.084 8.51876 54.1163 8.49452 54.1163 8.37063V7.11558C54.1163 7.00246 54.084 6.95668 53.9574 6.95668ZM51.6735 7.03747C51.4847 7.24774 51.2226 7.37782 50.941 7.40106C50.8642 7.3985 50.7888 7.3802 50.7194 7.34727C50.6501 7.31435 50.5882 7.26751 50.5377 7.20968C50.4872 7.15184 50.4491 7.08423 50.4258 7.01106C50.4025 6.93788 50.3945 6.8607 50.4023 6.78431C50.4023 6.3507 50.7093 6.06521 51.6708 6.06521L51.6735 7.03747Z" fill="#1C1A19"/>
<path d="M55.6893 8.52137H60.2678V9.96495C60.2678 10.0915 60.3028 10.1239 60.4267 10.1239H61.7734C61.9215 10.1239 61.9323 10.0915 61.9323 9.96495V7.15052C61.9323 7.05894 61.9107 7.01316 61.8191 7.01316H61.1755V4.47882H61.5175C61.6198 4.47882 61.6791 4.45458 61.6791 4.328V3.03794C61.6791 2.90058 61.5983 2.87634 61.5175 2.87634H59.2094C59.1842 2.87967 59.1611 2.89228 59.1447 2.9117C59.1282 2.93112 59.1196 2.95596 59.1205 2.98138V7.00239H58.089V2.96253C58.089 2.87096 58.0459 2.88173 57.9759 2.88173H55.692C55.6112 2.88173 55.5304 2.90597 55.5304 3.04332V4.33339C55.5304 4.45997 55.5897 4.48421 55.692 4.48421H56.0341V6.92159H55.692C55.5654 6.92159 55.5304 6.9566 55.5304 7.08049V8.37325C55.5197 8.52137 55.587 8.52137 55.6893 8.52137Z" fill="#1C1A19"/>
<path d="M63.3699 4.4788H63.712V8.34898C63.712 8.49981 63.7443 8.51058 63.8709 8.51058H65.5057C65.5679 8.51394 65.6299 8.49951 65.6842 8.46899C65.7386 8.43847 65.7831 8.39311 65.8127 8.33821L66.6018 6.83C66.8789 6.3348 67.1193 5.8199 67.3209 5.28946H67.3694C67.3478 5.52916 67.3128 6.06512 67.3128 6.3506V8.36245C67.3128 8.52135 67.3478 8.51058 67.4502 8.51058H69.5051C69.6075 8.51058 69.6667 8.51058 69.6667 8.36245V7.05892C69.6667 6.93234 69.6075 6.91079 69.5051 6.91079H69.1631V3.01637C69.1631 2.85478 69.1065 2.87632 69.015 2.87632H67.426C67.3499 2.87635 67.2756 2.89922 67.2127 2.94196C67.1498 2.98469 67.1012 3.04533 67.0731 3.11602L66.2032 4.75082C65.953 5.18255 65.736 5.63273 65.5541 6.09744H65.5191C65.5434 5.76886 65.5649 5.33256 65.5649 5.00129V2.9625C65.5649 2.87093 65.5191 2.88171 65.4491 2.88171H63.3726C63.2918 2.88171 63.211 2.90595 63.211 3.0433V4.33336C63.2083 4.45456 63.2649 4.4788 63.3699 4.4788Z" fill="#1C1A19"/>
<path d="M73.7983 8.71535C75.5677 8.71535 76.5831 7.47108 76.5831 5.7097C76.5831 3.90523 75.6135 2.6825 73.809 2.6825C72.0046 2.6825 71 3.90523 71 5.68815C71 7.51417 71.9696 8.71535 73.7983 8.71535ZM73.7848 4.07759C74.2642 4.07759 74.5497 4.4331 74.5497 5.69354C74.5497 6.95397 74.2642 7.30948 73.7848 7.30948C73.3054 7.30948 73.0307 6.96744 73.0307 5.69354C73.0307 4.41963 73.2946 4.07759 73.7848 4.07759Z" fill="#1C1A19"/>
<path d="M78.1423 8.52137H80.4289C80.507 8.52137 80.542 8.52137 80.542 8.4298V6.33985H81.6839V8.37325C81.6839 8.47559 81.6839 8.52137 81.8078 8.52137H84.0836C84.1859 8.52137 84.2425 8.52137 84.2425 8.37325V7.08049C84.2425 6.9566 84.2075 6.92159 84.0836 6.92159H83.7389V4.47882H84.0836C84.1859 4.47882 84.2425 4.45458 84.2425 4.328V3.03794C84.2425 2.90058 84.1617 2.87634 84.0836 2.87634H81.8778C81.797 2.87634 81.6839 2.88981 81.6839 3.03794V4.87742H80.542V3.03794C80.542 2.90058 80.4612 2.87634 80.3588 2.87634H78.1423C78.0642 2.87634 77.9834 2.90058 77.9834 3.03794V4.328C77.9834 4.45458 78.04 4.47882 78.1423 4.47882H78.487V6.92159H78.1423C78.0184 6.92159 77.9834 6.9566 77.9834 7.08049V8.37325C77.9834 8.52137 78.04 8.52137 78.1423 8.52137Z" fill="#1C1A19"/>
<path d="M85.6436 6.86508C85.6436 7.98278 86.3734 8.68033 87.6177 8.68033C88.1218 8.67369 88.6058 8.48198 88.9778 8.14168C89.0263 8.25479 89.0586 8.34636 89.0909 8.42716C89.1232 8.50796 89.1852 8.51873 89.2983 8.51873H90.9789C91.1027 8.51873 91.1378 8.49449 91.1378 8.3706V7.11555C91.1378 7.00244 91.1027 6.95665 90.9789 6.95665H90.6341C90.6087 6.85153 90.5933 6.74421 90.5883 6.63616V4.64855C90.6001 4.39469 90.5738 4.1405 90.5102 3.89444C90.2409 3.073 89.4006 2.68248 88.2937 2.68248C87.5643 2.65415 86.8389 2.80293 86.1795 3.11609C86.0314 3.19958 85.9964 3.21036 86.0421 3.34502L86.4542 4.47887C86.5 4.59199 86.5566 4.59199 86.6589 4.5462C87.0912 4.34742 87.5554 4.22705 88.0298 4.1907C88.625 4.1907 88.6923 4.35229 88.6923 4.53543V4.8667C87.2191 4.8667 85.6436 5.25453 85.6436 6.86508ZM88.6923 7.03745C88.5071 7.24511 88.2502 7.37501 87.9732 7.40104C87.8966 7.39809 87.8214 7.37953 87.7522 7.34648C87.683 7.31342 87.6213 7.26659 87.5709 7.20884C87.5204 7.15108 87.4823 7.08364 87.4589 7.01063C87.4354 6.93763 87.4272 6.8606 87.4346 6.78429C87.4346 6.35067 87.7443 6.06519 88.7031 6.06519L88.6923 7.03745Z" fill="#1C1A19"/>
<path d="M92.9556 8.71529C93.8363 8.71529 94.3507 8.4298 94.6578 8.12008C95.1614 7.61914 95.2961 6.89735 95.3553 6.32638C95.4011 5.882 95.4361 5.01208 95.4361 4.51114V4.38456H96.3599V8.37325C96.3599 8.49713 96.4164 8.52137 96.5323 8.52137H98.7596C98.8619 8.52137 98.9185 8.52137 98.9185 8.37325V7.05894C98.9185 6.93236 98.8619 6.91082 98.7596 6.91082H98.4175V3.07295C98.4175 2.94637 98.4391 2.87634 98.2694 2.87634H93.3219C93.2411 2.87634 93.163 2.90058 93.163 3.03794V4.328C93.163 4.45458 93.2196 4.47882 93.3219 4.47882H93.6532V5.28679C93.6397 6.00589 93.5724 6.63341 93.2303 6.92967C93.0567 7.06102 92.8513 7.14375 92.6351 7.16937L92.5328 7.19361C92.5061 7.2019 92.4814 7.21571 92.4604 7.23415C92.4394 7.2526 92.4225 7.27525 92.4108 7.30066C92.3991 7.32606 92.3929 7.35363 92.3926 7.38159C92.3923 7.40955 92.3978 7.43726 92.4089 7.46293L92.6863 8.48636C92.7159 8.61833 92.7375 8.71529 92.9556 8.71529Z" fill="#1C1A19"/>
<path d="M105.263 5.20869C104.725 4.77508 103.984 4.77508 103.526 4.77508H102.888V3.02716C102.888 2.90058 102.831 2.87634 102.726 2.87634H100.534C100.453 2.87634 100.375 2.90058 100.375 3.03794V4.328C100.375 4.45458 100.432 4.47882 100.534 4.47882H100.876V6.92159H100.534C100.407 6.92159 100.375 6.9566 100.375 7.08049V8.37325C100.375 8.52137 100.432 8.52137 100.534 8.52137H103.607C104.03 8.52137 104.784 8.47559 105.296 8.05275C105.494 7.88399 105.651 7.67123 105.753 7.43138C105.854 7.19153 105.899 6.93121 105.883 6.67112C105.899 6.39606 105.852 6.12086 105.745 5.86712C105.637 5.61338 105.472 5.388 105.263 5.20869ZM103.857 7.1155C103.776 7.18355 103.681 7.23476 103.579 7.26619C103.478 7.29761 103.371 7.30864 103.265 7.29864H102.888V5.99781H103.254C103.453 5.97632 103.654 6.02385 103.822 6.13247C103.891 6.1961 103.944 6.27447 103.979 6.36171C104.013 6.44894 104.026 6.54276 104.019 6.63611C104.031 6.81099 103.973 6.98337 103.857 7.1155Z" fill="#1C1A19"/>
<path d="M107.335 8.52137H109.619C109.699 8.52137 109.734 8.52137 109.734 8.4298V6.33985H110.876V8.37325C110.876 8.47559 110.876 8.52137 111.003 8.52137H113.273C113.378 8.52137 113.435 8.52137 113.435 8.37325V7.08049C113.435 6.9566 113.4 6.92159 113.273 6.92159H112.931V4.47882H113.273C113.378 4.47882 113.435 4.45458 113.435 4.328V3.03794C113.435 2.90058 113.354 2.87634 113.273 2.87634H111.07C110.989 2.87634 110.876 2.88981 110.876 3.03794V4.87742H109.734V3.03794C109.734 2.90058 109.654 2.87634 109.551 2.87634H107.335C107.257 2.87634 107.176 2.90058 107.176 3.03794V4.328C107.176 4.45458 107.232 4.47882 107.335 4.47882H107.677V6.92159H107.335C107.208 6.92159 107.176 6.9566 107.176 7.08049V8.37325C107.176 8.52137 107.23 8.52137 107.335 8.52137Z" fill="#1C1A19"/>
<path d="M120.173 6.95665H119.831C119.806 6.85153 119.791 6.74421 119.786 6.63616V4.64855C119.798 4.39451 119.771 4.1401 119.705 3.89444C119.435 3.073 118.598 2.68248 117.491 2.68248C116.762 2.65415 116.036 2.80293 115.377 3.11609C115.229 3.19958 115.194 3.21036 115.239 3.34502L115.651 4.47887C115.697 4.59199 115.754 4.59199 115.856 4.5462C116.289 4.34791 116.753 4.22755 117.227 4.1907C117.822 4.1907 117.89 4.35229 117.89 4.53543V4.8667C116.416 4.8667 114.841 5.25453 114.841 6.86508C114.841 7.98278 115.571 8.68033 116.818 8.68033C117.317 8.67091 117.796 8.47936 118.164 8.14168C118.21 8.25479 118.245 8.34636 118.28 8.42716C118.315 8.50796 118.369 8.51873 118.485 8.51873H120.163C120.289 8.51873 120.322 8.49449 120.322 8.3706V7.11555C120.332 7.00244 120.3 6.95665 120.173 6.95665ZM117.89 7.03745C117.704 7.24511 117.447 7.37501 117.17 7.40104C117.094 7.39848 117.018 7.38017 116.949 7.34725C116.88 7.31433 116.818 7.26749 116.767 7.20965C116.717 7.15182 116.679 7.08421 116.655 7.01104C116.632 6.93786 116.624 6.86068 116.632 6.78429C116.632 6.35067 116.939 6.06519 117.898 6.06519L117.89 7.03745Z" fill="#1C1A19"/>
<path d="M127.575 6.92159H127.233V3.03794C127.233 2.88981 127.198 2.87634 127.074 2.87634H124.48C123.909 2.87634 123.214 2.91135 122.721 3.31265C122.544 3.47101 122.404 3.66657 122.311 3.88538C122.218 4.10418 122.174 4.34084 122.183 4.57847C122.175 4.9 122.285 5.21326 122.493 5.45916C122.658 5.6489 122.876 5.78412 123.12 5.84699V5.87123C122.977 5.92605 122.845 6.00736 122.732 6.11092C122.601 6.24775 122.508 6.41684 122.463 6.60109L122.406 6.78423C122.372 6.90123 122.309 7.00776 122.223 7.09396C122.144 7.16451 122.044 7.2079 121.938 7.21784L121.8 7.24208C121.77 7.24566 121.741 7.25612 121.716 7.27265C121.691 7.28919 121.67 7.31135 121.654 7.33741C121.639 7.36347 121.63 7.39273 121.627 7.42291C121.625 7.45309 121.63 7.48338 121.641 7.51141L121.959 8.5887C121.994 8.71529 122.156 8.71529 122.247 8.71529C122.614 8.71529 123.284 8.71529 123.71 8.29245C123.899 8.07969 124.027 7.82022 124.082 7.54103L124.17 7.16398C124.211 6.96425 124.315 6.78292 124.467 6.64688C124.619 6.54933 124.798 6.50134 124.978 6.50952H125.232V8.37325C125.232 8.48636 125.253 8.52137 125.366 8.52137H127.583C127.688 8.52137 127.744 8.52137 127.744 8.37325V7.08049C127.736 6.9566 127.699 6.92159 127.575 6.92159ZM125.223 5.28949H124.927C124.695 5.3134 124.462 5.26142 124.262 5.14136C124.202 5.08179 124.156 5.01003 124.127 4.931C124.098 4.85197 124.086 4.76754 124.092 4.68351C124.085 4.59455 124.1 4.50516 124.135 4.42336C124.171 4.34156 124.227 4.26992 124.297 4.21488C124.475 4.11709 124.679 4.07665 124.881 4.09907H125.223V5.28949Z" fill="#1C1A19"/>
<path d="M41.6306 15.9979H40.2839C40.1681 15.9979 40.09 16.041 40.09 16.1811V17.5277C40.0776 17.6277 40.0935 17.7291 40.1359 17.8205C40.1783 17.9119 40.2454 17.9896 40.3297 18.0448C40.7849 18.4434 41.5282 18.7181 42.522 18.7181C43.4135 18.7181 44.3265 18.535 45.0133 17.6785C45.7001 16.8221 45.8213 15.497 45.8213 14.6055C45.8213 13.407 45.6839 12.2193 44.8948 11.3736C44.2565 10.6869 43.4781 10.4929 42.6217 10.4929C42.1271 10.4824 41.6351 10.5674 41.1727 10.7434C40.8282 10.8568 40.5148 11.0485 40.257 11.3036C40.1651 11.3951 40.112 11.5186 40.1089 11.6483V12.995C40.1089 13.1673 40.1547 13.1781 40.3028 13.1781H41.6494C41.7975 13.1781 41.8326 13.1431 41.8326 12.995V12.2409C42.0275 12.1945 42.2274 12.1719 42.4278 12.1735C42.7068 12.1567 42.9825 12.2419 43.2034 12.4132C43.5455 12.7202 43.5805 13.3963 43.5805 13.7141H42.0049C41.9808 13.7117 41.9564 13.7149 41.9336 13.7234C41.9109 13.732 41.8904 13.7456 41.8738 13.7633C41.8571 13.781 41.8448 13.8022 41.8376 13.8255C41.8305 13.8487 41.8287 13.8732 41.8326 13.8972V15.163C41.8326 15.2546 41.8326 15.3919 41.9942 15.3919H43.5805V15.4593C43.601 15.8358 43.5308 16.2117 43.3758 16.5554C43.2814 16.7156 43.1427 16.845 42.9764 16.9282C42.8101 17.0113 42.6233 17.0446 42.4385 17.024C42.228 17.0343 42.0177 16.9994 41.8218 16.9217V16.1811C41.8137 16.0518 41.7571 15.9979 41.6306 15.9979Z" fill="#1C1A19"/>
<path d="M49.8775 16.3264C49.9232 15.882 49.9556 15.0121 49.9556 14.5111V14.3846H50.882V18.3732C50.882 18.4971 50.9386 18.5214 51.0517 18.5214H53.279C53.384 18.5214 53.4379 18.5214 53.4379 18.3732V17.0589C53.4379 16.9324 53.384 16.9108 53.279 16.9108H52.937V13.0729C52.937 12.9464 52.9585 12.8763 52.7888 12.8763H47.8441C47.7633 12.8763 47.6825 12.9006 47.6825 13.0379V14.328C47.6825 14.4546 47.739 14.4788 47.8441 14.4788H48.1753V15.2868C48.1753 16.0059 48.0972 16.6334 47.7525 16.9297C47.5799 17.0609 47.3753 17.1437 47.16 17.1694L47.0576 17.1936C47.0307 17.2016 47.0057 17.2152 46.9844 17.2335C46.9631 17.2518 46.9459 17.2745 46.934 17.2999C46.922 17.3253 46.9156 17.353 46.9151 17.3811C46.9146 17.4092 46.92 17.4371 46.931 17.4629L47.2165 18.4891C47.2515 18.6129 47.2731 18.718 47.4859 18.718C48.3639 18.718 48.8783 18.4325 49.188 18.1228C49.6835 17.6191 49.8182 16.8973 49.8775 16.3264Z" fill="#1C1A19"/>
<path d="M57.6527 18.7153C58.448 18.7271 59.2286 18.5001 59.8935 18.0636C60.0174 17.9828 60.0282 17.9505 59.9716 17.8481L59.4572 16.8866C59.3899 16.7627 59.3333 16.7277 59.1879 16.8085C58.7488 17.0935 58.2354 17.2424 57.712 17.2367C57.1383 17.2367 56.8205 16.927 56.7505 16.1271H59.9366C60.0874 16.1271 60.1547 16.1271 60.1547 15.9682C60.1547 13.8648 59.4006 12.6879 57.5962 12.6879C55.8375 12.6879 54.7871 13.9914 54.7871 15.7501C54.7871 17.5949 55.7567 18.7153 57.6527 18.7153ZM57.5288 13.9402C57.9732 13.9402 58.1914 14.1557 58.2345 14.9017H56.7505C56.8663 14.1799 57.0494 13.9402 57.5288 13.9402Z" fill="#1C1A19"/>
<path d="M64.0276 18.3598V16.3265H64.3696C64.5182 16.3138 64.6659 16.3591 64.7817 16.453C64.8824 16.5774 64.9459 16.7277 64.9649 16.8866L65.0645 17.4253C65.1208 17.7448 65.2664 18.0417 65.4846 18.2817C65.9156 18.7154 66.6831 18.7154 66.9686 18.7154C67.2541 18.7154 67.2891 18.6696 67.3107 18.543L67.5396 17.5384C67.5638 17.4118 67.5638 17.2879 67.378 17.2529L67.2353 17.2368C67.1108 17.2234 66.9924 17.1759 66.8932 17.0994C66.801 16.9837 66.7423 16.8449 66.7235 16.6981L66.6427 16.3911C66.5956 16.1836 66.4974 15.991 66.3573 15.8309C66.242 15.7061 66.0963 15.6133 65.9344 15.5616V15.54C66.0802 15.5016 66.2137 15.4265 66.3222 15.3219C66.4355 15.2037 66.5179 15.0594 66.5619 14.9017L66.702 14.4897C66.7233 14.3851 66.7695 14.2872 66.8367 14.2042C66.9203 14.1229 67.028 14.0709 67.1437 14.056L67.3511 14.021C67.4534 14.021 67.4884 13.8945 67.4642 13.8029L67.1949 12.7256C67.1598 12.6017 67.0333 12.5909 66.9094 12.5909C66.3945 12.5628 65.8893 12.739 65.5035 13.0811C65.3226 13.286 65.1965 13.5334 65.1372 13.8002L65.0456 14.188C65.0262 14.3738 64.9511 14.5493 64.8302 14.6917C64.775 14.7381 64.711 14.773 64.6421 14.7943C64.5732 14.8156 64.5007 14.8228 64.4289 14.8155H64.0195V13.038C64.0195 12.8656 63.9172 12.8764 63.7906 12.8764H61.6198C61.5417 12.8764 61.4609 12.9006 61.4609 13.038V14.3281C61.4609 14.4546 61.5175 14.4789 61.6198 14.4789H61.9834V18.3733C61.9834 18.5214 62.0373 18.5214 62.1531 18.5214H63.9253C64.0276 18.5214 64.0276 18.5214 64.0276 18.3598Z" fill="#1C1A19"/>
<path d="M69.9931 14.5004H70.6018V16.9243H70.257C70.1331 16.9243 70.0981 16.9593 70.0981 17.0832V18.3759C70.0981 18.5241 70.1547 18.5241 70.257 18.5241H72.9503C73.0553 18.5241 73.1092 18.4998 73.1092 18.3759V17.0589C73.1092 16.9324 73.0553 16.9108 72.9503 16.9108H72.6082V14.5004H73.2142V15.1952C73.2142 15.3003 73.2358 15.3568 73.3623 15.3568H74.3211C74.4342 15.3568 74.4693 15.3353 74.4693 15.2195V13.0487C74.4693 12.8763 74.4019 12.8763 74.2646 12.8763H68.94C68.8054 12.8763 68.7354 12.8763 68.7354 13.0487V15.2195C68.7354 15.3353 68.7704 15.3568 68.8835 15.3568H69.845C69.9689 15.3568 69.9931 15.3003 69.9931 15.1952V14.5004Z" fill="#1C1A19"/>
<path d="M75.6943 13.0165V14.3281C75.6943 14.4547 75.7267 14.4789 75.8532 14.4789H76.2572C76.281 14.5759 76.2927 14.6754 76.2922 14.7752V19.2298H75.934C75.8074 19.2298 75.7724 19.2621 75.7724 19.3779V20.6788C75.7724 20.8053 75.8074 20.8403 75.934 20.8403H78.7081C78.8347 20.8403 78.8697 20.8053 78.8697 20.6788V19.3914C78.8697 19.2756 78.8347 19.2433 78.7081 19.2433H78.366V18.5107C78.6384 18.6504 78.9381 18.7285 79.244 18.7396C80.9569 18.7396 81.6895 17.6623 81.6895 15.6882C81.6895 13.8945 80.9461 12.6825 79.3598 12.6825C78.8741 12.6687 78.4024 12.8456 78.0455 13.1754C77.954 12.9249 77.9189 12.8549 77.7951 12.8549H75.8532C75.7186 12.8549 75.6943 12.9007 75.6943 13.0165ZM78.366 14.3954C78.5526 14.2305 78.7905 14.1354 79.0393 14.1261C79.4029 14.1261 79.7019 14.5139 79.7019 15.7259C79.7019 17.1291 79.4325 17.4388 78.9478 17.4388C78.7479 17.4407 78.5499 17.4013 78.366 17.323V14.3954Z" fill="#1C1A19"/>
<path d="M88.7059 15.7097C88.7059 13.9052 87.7336 12.6825 85.9319 12.6825C84.1301 12.6825 83.1201 13.9052 83.1201 15.6881C83.1201 17.5142 84.0924 18.7154 85.9184 18.7154C87.6878 18.7154 88.7059 17.4711 88.7059 15.7097ZM85.1535 15.7097C85.1535 14.4196 85.4228 14.0776 85.9076 14.0776C86.3924 14.0776 86.6725 14.4331 86.6725 15.6935C86.6725 16.954 86.387 17.3095 85.9076 17.3095C85.4282 17.3095 85.1454 16.9674 85.1454 15.7097H85.1535Z" fill="#1C1A19"/>
<path d="M96.203 14.4788C96.3053 14.4788 96.3646 14.4546 96.3646 14.328V13.0379C96.3646 12.9006 96.2838 12.8763 96.203 12.8763H93.9999C93.9191 12.8763 93.806 12.8763 93.806 13.0379V14.8774H92.6614V13.0379C92.6614 12.9006 92.5833 12.8763 92.4809 12.8763H90.2617C90.2397 12.8732 90.2173 12.8752 90.1963 12.8822C90.1753 12.8892 90.1561 12.901 90.1404 12.9167C90.1248 12.9324 90.1129 12.9515 90.1059 12.9725C90.0989 12.9936 90.0969 13.016 90.1001 13.0379V14.328C90.1001 14.4546 90.1593 14.4788 90.2617 14.4788H90.6064V16.9216H90.2617C90.1351 16.9216 90.1001 16.9566 90.1001 17.0805V18.3732C90.1001 18.5214 90.1593 18.5214 90.2617 18.5214H92.5456C92.6264 18.5214 92.6587 18.5214 92.6587 18.4298V16.3398H93.8033V18.3732C93.8033 18.4756 93.8033 18.5214 93.9299 18.5214H96.2003C96.3026 18.5214 96.3619 18.5214 96.3619 18.3732V17.0805C96.3619 16.9566 96.3269 16.9216 96.2003 16.9216H95.8582V14.4788H96.203Z" fill="#1C1A19"/>
<path d="M100.47 18.4298V16.3398H101.612V18.3732C101.612 18.4756 101.612 18.5214 101.738 18.5214H103.998C104.103 18.5214 104.16 18.5214 104.16 18.3732V17.0805C104.16 16.9566 104.125 16.9216 103.998 16.9216H103.656V14.4788H103.998C104.103 14.4788 104.16 14.4546 104.16 14.328V13.0379C104.16 12.9006 104.079 12.8763 103.998 12.8763H101.795C101.714 12.8763 101.601 12.8763 101.601 13.0379V14.8774H100.47V13.0379C100.47 12.9006 100.389 12.8763 100.287 12.8763H98.073C97.9922 12.8763 97.9141 12.9006 97.9141 13.0379V14.328C97.9141 14.4546 97.9706 14.4788 98.073 14.4788H98.415V16.9216H98.073C97.9491 16.9216 97.9141 16.9566 97.9141 17.0805V18.3732C97.9141 18.5214 97.9706 18.5214 98.073 18.5214H100.357C100.435 18.5214 100.47 18.5321 100.47 18.4298Z" fill="#1C1A19"/>
<path d="M107.553 18.6804C108.052 18.6705 108.531 18.479 108.9 18.1418C108.945 18.2549 108.98 18.3464 109.015 18.4272C109.05 18.508 109.107 18.5188 109.22 18.5188H110.898C111.025 18.5188 111.06 18.4946 111.06 18.3707V17.1156C111.06 17.0025 111.025 16.9567 110.898 16.9567H110.556C110.531 16.8516 110.515 16.7443 110.51 16.6362V14.6486C110.522 14.3948 110.496 14.1406 110.432 13.8945C110.163 13.0731 109.323 12.6826 108.216 12.6826C107.486 12.6539 106.761 12.8027 106.101 13.1162C105.953 13.1997 105.918 13.2104 105.964 13.3451L106.376 14.4789C106.422 14.5921 106.478 14.5921 106.581 14.5463C107.013 14.3475 107.477 14.2271 107.952 14.1908C108.544 14.1908 108.614 14.3524 108.614 14.5355V14.8668C107.141 14.8668 105.565 15.2546 105.565 16.8652C105.576 17.9828 106.306 18.6804 107.553 18.6804ZM108.63 16.0653V17.0375C108.445 17.2452 108.188 17.3751 107.911 17.4011C107.835 17.3982 107.759 17.3796 107.69 17.3465C107.621 17.3135 107.559 17.2667 107.509 17.2089C107.458 17.1512 107.42 17.0837 107.397 17.0107C107.373 16.9377 107.365 16.8607 107.373 16.7844C107.356 16.3507 107.666 16.0653 108.625 16.0653H108.63Z" fill="#1C1A19"/>
<path d="M118.31 16.9216H117.968V13.0379C117.968 12.8898 117.933 12.8763 117.809 12.8763H115.215C114.644 12.8763 113.947 12.9114 113.457 13.3126C113.279 13.471 113.139 13.6666 113.046 13.8854C112.953 14.1042 112.909 14.3408 112.918 14.5785C112.909 14.8997 113.018 15.213 113.225 15.4592C113.39 15.6494 113.609 15.7847 113.852 15.847V15.8712C113.709 15.926 113.578 16.0074 113.465 16.1109C113.333 16.2478 113.24 16.4168 113.195 16.6011L113.139 16.7842C113.104 16.9008 113.041 17.0071 112.956 17.094C112.876 17.1645 112.776 17.2079 112.67 17.2178L112.533 17.2421C112.503 17.2457 112.474 17.2561 112.449 17.2727C112.423 17.2892 112.402 17.3113 112.387 17.3374C112.371 17.3635 112.362 17.3927 112.36 17.4229C112.358 17.4531 112.362 17.4834 112.374 17.5114L112.694 18.5887C112.727 18.7153 112.888 18.7153 112.977 18.7153C113.343 18.7153 114.019 18.7153 114.44 18.2924C114.636 18.0859 114.77 17.8283 114.827 17.5491L114.919 17.1721C114.953 16.9656 115.054 16.7762 115.207 16.6334C115.36 16.5355 115.54 16.4875 115.722 16.4961H115.972V18.3598C115.972 18.4729 115.994 18.5079 116.109 18.5079H118.323C118.428 18.5079 118.482 18.5079 118.482 18.3598V17.067C118.469 16.9674 118.436 16.9216 118.31 16.9216ZM115.959 15.2895H115.66C115.429 15.3122 115.198 15.2603 115 15.1414C114.939 15.0824 114.892 15.0108 114.863 14.9316C114.833 14.8525 114.821 14.7678 114.827 14.6835C114.822 14.5947 114.837 14.5059 114.873 14.4243C114.908 14.3428 114.963 14.271 115.032 14.2149C115.21 14.1171 115.414 14.0766 115.617 14.0991H115.959V15.2895Z" fill="#1C1A19"/>
<path d="M43.459 23.679H42.7857V22.4428H43.9384V22.8764C43.9384 23.0487 43.9949 23.073 44.1323 23.073H45.5543C45.7024 23.073 45.7482 23.038 45.7482 22.8656V20.8807C45.7482 20.7406 45.724 20.6841 45.5543 20.6841H40.2836C40.0655 20.6841 40.0439 20.7541 40.0439 20.913V22.1465C40.0439 22.2839 40.0655 22.3431 40.2379 22.3431H40.6365V26.8651H40.2379C40.0897 26.8651 40.0439 26.8866 40.0439 27.0374V28.3598C40.0439 28.5214 40.122 28.5214 40.2379 28.5214H43.23C44.038 28.5214 44.9322 28.4756 45.5705 27.8804C45.8075 27.6408 45.9919 27.3545 46.112 27.0396C46.2321 26.7247 46.2853 26.3883 46.268 26.0517C46.2865 25.7271 46.235 25.4023 46.117 25.0993C45.999 24.7963 45.8172 24.5223 45.5839 24.2957C44.9645 23.7328 44.1323 23.679 43.459 23.679ZM43.9384 26.6819C43.7202 26.8651 43.3216 26.8651 42.9903 26.8651H42.7857V25.1845H43.0685C43.6421 25.1845 43.836 25.2653 43.9384 25.3461C44.0277 25.4302 44.0967 25.5336 44.1401 25.6484C44.1835 25.7632 44.2001 25.8864 44.1888 26.0086C44.1996 26.1324 44.1828 26.257 44.1394 26.3735C44.0961 26.4899 44.0274 26.5953 43.9384 26.6819Z" fill="#1C1A19"/>
<path d="M53.8547 26.9108H53.5099V23.0164C53.5099 22.8548 53.4534 22.8763 53.3618 22.8763H51.7755C51.6991 22.8762 51.6244 22.8989 51.561 22.9417C51.4976 22.9844 51.4485 23.0451 51.42 23.116L50.5528 24.7508C50.3029 25.1832 50.0851 25.6333 49.901 26.0974H49.8633C49.8848 25.7689 49.9064 25.3326 49.9064 25.0013V22.9571C49.9064 22.8655 49.8633 22.8763 49.7933 22.8763H47.7087C47.6306 22.8763 47.5498 22.9006 47.5498 23.0379V24.328C47.5498 24.4546 47.6064 24.4788 47.7087 24.4788H48.0534V28.3598C48.0534 28.5106 48.0858 28.5214 48.2123 28.5214H49.8633C49.9259 28.5249 49.9883 28.5106 50.0431 28.4801C50.098 28.4496 50.143 28.4041 50.173 28.349L50.9594 26.8408C51.2374 26.3456 51.4786 25.8307 51.6812 25.3002H51.727C51.7028 25.5399 51.6705 26.0759 51.6705 26.3614V28.3732C51.6705 28.5321 51.7028 28.5214 51.8051 28.5214H53.8628C53.9651 28.5214 54.0217 28.5214 54.0217 28.3732V27.0589C54.0136 26.9323 53.957 26.9108 53.8547 26.9108Z" fill="#1C1A19"/>
<path d="M58.5948 22.9464C58.2551 22.9314 57.9173 23.0046 57.6142 23.159C57.3112 23.3133 57.0534 23.5435 56.8657 23.8271H56.7984C56.815 23.3783 57.0018 22.9527 57.3209 22.6367C57.7293 22.2853 58.1984 22.0115 58.7052 21.8287L60.612 21.0881C60.642 21.0814 60.67 21.0682 60.6943 21.0495C60.7186 21.0308 60.7385 21.0071 60.7526 20.9799C60.7667 20.9527 60.7747 20.9227 60.776 20.8921C60.7773 20.8615 60.7719 20.8309 60.7602 20.8026L60.2915 19.6472C60.2565 19.5449 60.1219 19.5233 60.0061 19.5691L58.0642 20.4013C57.4463 20.6413 56.8803 20.9979 56.3971 21.4517C55.5191 22.3458 55.4033 23.5093 55.4033 24.8102C55.4033 26.0679 55.4599 27.2341 56.1817 27.9855C56.4404 28.2337 56.7469 28.4266 57.0826 28.5526C57.4183 28.6785 57.7761 28.7348 58.1343 28.718C58.5139 28.7362 58.8932 28.6765 59.2489 28.5426C59.6046 28.4088 59.9292 28.2036 60.2027 27.9397C60.7507 27.3271 61.0335 26.5223 60.9891 25.7016C60.9891 25.198 60.9218 24.2527 60.2565 23.5767C60.0383 23.3622 59.7779 23.1955 59.4919 23.087C59.2058 22.9785 58.9003 22.9307 58.5948 22.9464ZM58.8103 26.8651C58.7697 26.9991 58.6864 27.1161 58.5731 27.1983C58.4598 27.2805 58.3227 27.3233 58.1827 27.3203C58.0432 27.3216 57.9069 27.2781 57.794 27.1961C57.681 27.1142 57.5973 26.9982 57.5552 26.8651C57.4398 26.5082 57.3931 26.1325 57.4179 25.7582C57.3887 25.3884 57.4555 25.0173 57.6118 24.6809C57.6636 24.5745 57.7451 24.4854 57.8464 24.4242C57.9477 24.3631 58.0645 24.3325 58.1827 24.3361C58.3158 24.3305 58.447 24.3689 58.556 24.4454C58.6651 24.5218 58.7459 24.632 58.786 24.759C58.9177 25.102 58.9728 25.4697 58.9476 25.8363C58.9586 26.1844 58.9122 26.532 58.8103 26.8651Z" fill="#1C1A19"/>
<path d="M68.5227 26.9108H68.178V23.0729C68.178 22.9464 68.1995 22.8763 68.0299 22.8763H63.0851C63.0043 22.8763 62.9262 22.9006 62.9262 23.0379V24.328C62.9262 24.4546 62.9827 24.4788 63.0851 24.4788H63.4163V25.2868C63.4029 26.0059 63.3355 26.6334 62.9935 26.9297C62.8199 27.061 62.6145 27.1438 62.3983 27.1694L62.2959 27.1936C62.2692 27.202 62.2446 27.2158 62.2235 27.2342C62.2024 27.2526 62.1854 27.2751 62.1735 27.3005C62.1616 27.3258 62.1551 27.3533 62.1544 27.3813C62.1537 27.4092 62.1588 27.437 62.1694 27.4629L62.4575 28.4891C62.4899 28.6129 62.5114 28.718 62.7269 28.718C63.6076 28.718 64.122 28.4325 64.429 28.1228C64.9326 27.6218 65.0673 26.9 65.1265 26.3291C65.1723 25.8847 65.2073 25.0148 65.2073 24.5138V24.3873H66.1311V28.3759C66.1311 28.4998 66.1877 28.5241 66.3035 28.5241H68.5308C68.6331 28.5241 68.6897 28.5241 68.6897 28.3759V27.0616C68.6816 26.9324 68.6251 26.9108 68.5227 26.9108Z" fill="#1C1A19"/>
<path d="M76.2785 26.9108H75.9337V23.0164C75.9337 22.8548 75.8772 22.8763 75.7856 22.8763H74.1966C74.1206 22.8767 74.0465 22.8997 73.9837 22.9424C73.9208 22.9851 73.8721 23.0455 73.8438 23.116L72.9739 24.7508C72.7258 25.1837 72.5089 25.6337 72.3248 26.0974H72.2925C72.314 25.7689 72.3356 25.3326 72.3356 25.0013V22.9571C72.3356 22.8655 72.2925 22.8763 72.2225 22.8763H70.1433C70.0625 22.8763 69.9844 22.9006 69.9844 23.0379V24.328C69.9844 24.4546 70.0409 24.4788 70.1433 24.4788H70.4853V28.3598C70.4853 28.5106 70.5203 28.5214 70.6442 28.5214H72.279C72.3417 28.5249 72.404 28.5106 72.4589 28.4801C72.5137 28.4496 72.5587 28.4041 72.5887 28.349L73.3752 26.8408C73.6561 26.3464 73.8992 25.8314 74.1023 25.3002H74.1508C74.1266 25.5399 74.0916 26.0759 74.0916 26.3614V28.3732C74.0916 28.5321 74.1266 28.5214 74.2289 28.5214H76.2865C76.3862 28.5214 76.4455 28.5214 76.4455 28.3732V27.0589C76.4374 26.9323 76.3781 26.9108 76.2785 26.9108Z" fill="#1C1A19"/>
<path d="M80.5825 22.6825C78.778 22.6825 77.7734 23.9052 77.7734 25.6882C77.7734 27.5142 78.743 28.7154 80.5717 28.7154C82.3412 28.7154 83.3565 27.4711 83.3565 25.7097C83.3565 23.9052 82.387 22.6825 80.5825 22.6825ZM80.5663 27.3203C80.0896 27.3203 79.8149 26.9782 79.8149 25.7043C79.8149 24.4304 80.0842 24.0722 80.5663 24.0722C81.0484 24.0722 81.3339 24.4277 81.3339 25.6882C81.3339 26.9486 81.0403 27.3203 80.5663 27.3203Z" fill="#1C1A19"/>
<path d="M90.2324 22.8763H84.9078C84.7732 22.8763 84.7031 22.8763 84.7031 23.0487V25.2195C84.7031 25.3353 84.7381 25.3568 84.8513 25.3568H85.8127C85.9366 25.3568 85.9609 25.3003 85.9609 25.1952V24.5084H86.5669V26.9324H86.2221C86.0982 26.9324 86.0632 26.9674 86.0632 27.0913V28.384C86.0632 28.5321 86.1198 28.5321 86.2221 28.5321H88.9154C89.0177 28.5321 89.0743 28.5079 89.0743 28.384V27.0697C89.0743 26.9431 89.0177 26.9216 88.9154 26.9216H88.5733V24.5084H89.1847V25.2033C89.1847 25.3083 89.2062 25.3649 89.3328 25.3649H90.2916C90.4047 25.3649 90.4397 25.3433 90.4397 25.2275V23.0487C90.437 22.8763 90.3697 22.8763 90.2324 22.8763Z" fill="#1C1A19"/>
<path d="M94.5903 22.6825C92.8343 22.6825 91.7812 23.986 91.7812 25.7447C91.7812 27.595 92.7535 28.7073 94.6495 28.7073C95.444 28.719 96.2237 28.492 96.8876 28.0555C97.0142 27.9747 97.025 27.9424 96.9684 27.8401L96.4567 26.8866C96.3867 26.7628 96.3301 26.7277 96.1874 26.8085C95.7488 27.0918 95.2362 27.2389 94.7142 27.2314C94.1432 27.2314 93.8227 26.9217 93.7527 26.1218H96.9415C97.0896 26.1218 97.157 26.1218 97.157 25.9629C97.1489 23.8594 96.3975 22.6825 94.5903 22.6825ZM93.7446 24.9017C93.8604 24.1799 94.0436 23.9402 94.5257 23.9402C95.0077 23.9402 95.1855 24.1557 95.2313 24.9017H93.7446Z" fill="#1C1A19"/>
<path d="M104.366 27.2529L104.229 27.2313C104.104 27.218 103.986 27.1704 103.887 27.094C103.795 26.982 103.736 26.8468 103.717 26.7035L103.636 26.3964C103.587 26.1898 103.489 25.9978 103.351 25.8362C103.23 25.7183 103.082 25.6323 102.92 25.5858V25.5508C103.065 25.511 103.198 25.4361 103.308 25.3326C103.421 25.2144 103.503 25.0701 103.548 24.9125L103.685 24.5004C103.71 24.397 103.755 24.2998 103.82 24.2149C103.905 24.1342 104.013 24.0824 104.129 24.0668L104.337 24.0318C104.439 24.0318 104.474 23.9052 104.45 23.8136L104.18 22.7363C104.148 22.6124 104.022 22.6017 103.898 22.6017C103.383 22.573 102.877 22.7492 102.492 23.0918C102.311 23.2967 102.185 23.5441 102.125 23.8109L102.037 24.1988C102.015 24.3844 101.939 24.5596 101.818 24.7024C101.763 24.7489 101.699 24.7838 101.63 24.8051C101.561 24.8263 101.489 24.8336 101.417 24.8263H101.005V23.038C101.005 22.8656 100.903 22.8764 100.779 22.8764H98.6108C98.53 22.8764 98.4492 22.9006 98.4492 23.038V24.328C98.4492 24.4546 98.5085 24.4788 98.6108 24.4788H98.9529V28.3733C98.9529 28.5214 99.0121 28.5214 99.1252 28.5214H100.895C101.008 28.5214 101.008 28.5214 101.008 28.3598V26.3264H101.353C101.501 26.314 101.649 26.3593 101.765 26.453C101.866 26.577 101.928 26.7276 101.945 26.8866L102.05 27.4253C102.1 27.7487 102.242 28.0508 102.459 28.2952C102.896 28.7288 103.658 28.7288 103.943 28.7288C104.229 28.7288 104.264 28.683 104.288 28.5564L104.517 27.5518C104.549 27.4118 104.549 27.2879 104.366 27.2529Z" fill="#1C1A19"/>
<path d="M111.175 26.9567H110.833C110.808 26.8515 110.793 26.7442 110.788 26.6362V24.6485C110.799 24.3947 110.773 24.1405 110.709 23.8944C110.44 23.0865 109.6 22.6825 108.493 22.6825C107.764 22.6542 107.038 22.8029 106.379 23.1161C106.233 23.1996 106.198 23.2104 106.244 23.345L106.653 24.4789C106.699 24.592 106.756 24.592 106.861 24.5462C107.292 24.3471 107.755 24.2267 108.229 24.1907C108.824 24.1907 108.892 24.3523 108.892 24.5354V24.8667C107.418 24.8667 105.843 25.2545 105.843 26.8651C105.843 27.9828 106.573 28.6803 107.82 28.6803C108.324 28.6732 108.807 28.4815 109.18 28.1417C109.223 28.2548 109.258 28.3464 109.293 28.4272C109.328 28.508 109.384 28.5187 109.498 28.5187H111.175C111.302 28.5187 111.337 28.4945 111.337 28.3706V27.1129C111.337 27.0024 111.302 26.9567 111.175 26.9567ZM108.892 27.0375C108.706 27.2451 108.449 27.375 108.172 27.401C108.096 27.3981 108.021 27.3795 107.951 27.3465C107.882 27.3134 107.821 27.2666 107.77 27.2088C107.72 27.1511 107.682 27.0836 107.658 27.0106C107.635 26.9376 107.626 26.8606 107.634 26.7843C107.634 26.3507 107.943 26.0652 108.902 26.0652L108.892 27.0375Z" fill="#1C1A19"/>
</g>
<defs>
<clipPath id="clip0">
<rect width="129" height="30" fill="white"/>
</clipPath>
</defs>
</svg>
