<svg width="31" height="30" viewBox="0 0 31 30" fill="none" xmlns="http://www.w3.org/2000/svg">
<path d="M23.9889 7.87915C23.8221 7.78025 23.6219 7.78025 23.4551 7.84618L22.2206 8.43959C21.9537 8.57146 21.8202 8.90113 21.9537 9.19783C22.0871 9.46157 22.4208 9.59344 22.7211 9.46157L23.1214 9.26377L23.1882 21.5605L18.5839 23.7693V15.3297C18.5839 15.033 18.317 14.7693 18.0167 14.7693C17.7164 14.7693 17.4495 15.033 17.4495 15.3297V23.8352L12.178 21.7253V19.5495C12.7785 18.9231 14.38 17.077 14.38 15.8572C14.38 14.5385 13.4124 13.4176 12.178 13.1868V9.1319L13.1789 9.46157C13.4792 9.56047 13.7794 9.39564 13.8795 9.1319C13.9796 8.86816 13.8128 8.53849 13.5459 8.43959L11.7776 7.84618C11.6441 7.81322 11.4773 7.81322 11.3438 7.87915L6.9064 10.055C6.77294 10.1539 6.67285 10.3517 6.67285 10.5495V24.066C6.67285 24.2638 6.77294 24.4286 6.93977 24.5275C7.10659 24.6264 7.30677 24.6594 7.47359 24.5605L11.7776 22.7473L17.8499 25.1539C17.9166 25.1868 17.9833 25.1868 18.0501 25.1868C18.1501 25.1868 18.2169 25.1539 18.2836 25.1209L24.0223 22.3846C24.2224 22.2857 24.3559 22.0879 24.3225 21.8901L24.2224 8.37366C24.2558 8.17585 24.1557 7.97805 23.9889 7.87915ZM13.3123 15.8572C13.3123 16.4176 12.4449 17.6374 11.6775 18.5275C10.9101 17.6374 10.0426 16.4506 10.0426 15.8572C10.0426 14.9671 10.7767 14.2418 11.6775 14.2418C12.5783 14.2418 13.3123 14.9671 13.3123 15.8572ZM7.80724 10.8792L11.1103 9.26377V13.1868C9.84245 13.4506 8.90826 14.5385 8.90826 15.8572C8.90826 17.077 10.5097 18.9231 11.1103 19.5495V21.8242L7.80724 23.2418V10.8792Z" fill="#328FCD"/>
<path d="M10.9769 15.8901C10.9769 16.2528 11.2771 16.5495 11.6442 16.5495C12.0112 16.5495 12.3114 16.2528 12.3114 15.8901C12.3114 15.5275 12.0112 15.2308 11.6442 15.2308C11.2771 15.2308 10.9769 15.5275 10.9769 15.8901Z" fill="#328FCD"/>
<path d="M18.05 4.64838C15.9481 4.64838 14.2465 6.32969 14.2465 8.40662C14.2465 10.3517 17.3828 13.6154 17.7164 13.978L18.0167 14.2747L18.317 13.978C18.684 13.6154 21.7868 10.3517 21.7868 8.40662C21.8202 6.32969 20.1186 4.64838 18.05 4.64838ZM18.05 7.15387C18.684 7.15387 19.2178 7.64838 19.2178 8.30772C19.2178 8.93409 18.7173 9.46156 18.05 9.46156C17.3828 9.46156 16.8823 8.96706 16.8823 8.30772C16.8823 7.68134 17.4161 7.15387 18.05 7.15387Z" fill="#328FCD"/>
</svg>
