<svg width="12" height="17" viewBox="0 0 12 17" fill="none" xmlns="http://www.w3.org/2000/svg">
<path d="M11.6631 6.06309C11.4768 6.06309 11.3261 5.92257 11.3261 5.74883V5.59618C11.3261 4.26908 10.7721 3.02144 9.76616 2.08358C8.76018 1.14528 7.42257 0.628532 5.99976 0.628532C3.06318 0.628532 0.673859 2.85713 0.673859 5.59618V5.74883C0.673859 5.92257 0.523204 6.06309 0.33693 6.06309C0.150656 6.06309 0 5.92257 0 5.74883V5.59618C0 2.51054 2.69159 0 5.99976 0C7.60258 0 9.10914 0.58229 10.2427 1.63912C11.3757 2.69595 12 4.10162 12 5.59618V5.74883C12 5.92257 11.8489 6.06309 11.6631 6.06309Z" fill="#4FB778"/>
<path d="M5.99976 9.52542C4.46769 9.52542 3.02419 9.42395 1.93542 9.23988C0.596848 9.01361 0 8.70922 0 8.25354V5.74884C0 5.57509 0.150656 5.43457 0.33693 5.43457C0.505876 5.43457 0.645943 5.5504 0.670009 5.70215C0.729213 5.75377 1.04111 5.96748 2.30075 6.15604C3.31924 6.30868 4.63279 6.39263 5.99976 6.39263C7.36673 6.39263 8.68076 6.30868 9.69877 6.15604C10.9579 5.96748 11.2703 5.75333 11.3295 5.70215C11.3536 5.55085 11.4936 5.43457 11.6626 5.43457C11.8489 5.43457 11.9995 5.57509 11.9995 5.74884V8.25354C11.9995 8.70922 11.4027 9.01361 10.0641 9.23988C8.97581 9.42395 7.53231 9.52542 5.99976 9.52542ZM0.673859 8.20999C0.741726 8.26656 1.06614 8.47577 2.30075 8.66074C3.31924 8.81338 4.63279 8.89733 5.99976 8.89733C7.36721 8.89733 8.68076 8.81338 9.69877 8.66074C10.9339 8.47577 11.2578 8.26656 11.3257 8.20999V6.42092C11.0181 6.54168 10.6008 6.64494 10.0641 6.73563C8.97533 6.9197 7.53183 7.02117 5.99976 7.02117C4.46769 7.02117 3.02419 6.9197 1.93542 6.73563C1.39874 6.64494 0.981428 6.54168 0.673859 6.42092V8.20999Z" fill="#4FB778"/>
<path d="M0.33693 12.6191C0.31527 12.6191 0.293129 12.6169 0.270987 12.6128C0.249809 12.6088 0.228631 12.6025 0.207934 12.5949C0.187718 12.5868 0.168465 12.5774 0.150174 12.5657C0.131402 12.5545 0.114075 12.5414 0.0986725 12.5266C0.0360998 12.4683 0 12.3875 0 12.3044C0 12.2842 0.00240661 12.2635 0.00673857 12.2433C0.0110705 12.2231 0.0173275 12.2034 0.0259914 12.1845C0.034174 12.1657 0.0447632 12.1473 0.0567964 12.1302C0.069311 12.1131 0.08327 12.097 0.0986725 12.0822C0.114075 12.0678 0.131402 12.0548 0.150174 12.0431C0.168465 12.0319 0.187718 12.0225 0.207934 12.0144C0.228631 12.0067 0.249809 12.0005 0.270987 11.9964C0.314788 11.9883 0.359553 11.9883 0.402872 11.9964C0.424532 12.0005 0.445711 12.0067 0.465926 12.0144C0.486142 12.0225 0.505876 12.0319 0.524167 12.0431C0.542457 12.0548 0.559785 12.0678 0.575187 12.0822C0.59059 12.097 0.60503 12.1131 0.617063 12.1302C0.629096 12.1473 0.639686 12.1657 0.647869 12.1845C0.656532 12.2034 0.662789 12.2231 0.667121 12.2433C0.671935 12.2635 0.673859 12.2842 0.673859 12.3044C0.673859 12.3875 0.63776 12.4683 0.575187 12.5266C0.559785 12.5414 0.542457 12.5545 0.524167 12.5657C0.505876 12.5774 0.486142 12.5868 0.465926 12.5949C0.445711 12.6025 0.424532 12.6088 0.402872 12.6128C0.381213 12.6169 0.359071 12.6191 0.33693 12.6191Z" fill="#4FB778"/>
<path d="M5.99976 17C4.46769 17 3.02467 16.8985 1.93542 16.714C0.596848 16.4873 0 16.1829 0 15.7272C0 15.7097 0.00096254 15.6922 0.00288785 15.6747C0.00096254 15.6612 0 15.6469 0 15.6329V13.4905C0 13.3168 0.150656 13.1763 0.33693 13.1763C0.523204 13.1763 0.673859 13.3168 0.673859 13.4905V15.5095C0.701295 15.5696 0.708034 15.6356 0.693594 15.6989C0.795154 15.7717 1.1576 15.9634 2.30075 16.1349C3.31924 16.2875 4.63279 16.3715 5.99976 16.3715C7.36673 16.3715 8.68076 16.2875 9.69925 16.1349C10.8424 15.9634 11.2048 15.7717 11.3064 15.6989C11.292 15.6356 11.2987 15.5696 11.3261 15.5095V14.6125C11.0186 14.7332 10.6013 14.8365 10.0646 14.9272C8.97581 15.1113 7.53231 15.2127 6.00024 15.2127C5.81397 15.2127 5.66331 15.0722 5.66331 14.8984V11.3589C5.66331 11.1852 5.81397 11.0446 6.00024 11.0446C7.36769 11.0446 8.68124 10.9607 9.69925 10.8081C10.9343 10.6231 11.2583 10.4139 11.3261 10.3573V8.9247C11.0186 9.04502 10.6013 9.14828 10.0646 9.23897C8.97581 9.42304 7.53231 9.5245 6.00024 9.5245C4.46817 9.5245 3.02467 9.42304 1.9359 9.23897C1.39922 9.14828 0.98191 9.04502 0.674341 8.92425V11.1039C0.674341 11.2777 0.523685 11.4182 0.337411 11.4182C0.151137 11.4182 0.000481064 11.2777 0.000481064 11.1039V8.25262C0.000481064 8.07888 0.151137 7.93835 0.337411 7.93835C0.506357 7.93835 0.646425 8.05418 0.670491 8.20593C0.729694 8.25756 1.04208 8.47126 2.30123 8.65982C3.31972 8.81246 4.63327 8.89642 6.00024 8.89642C7.36769 8.89642 8.68124 8.81246 9.69925 8.65982C10.9584 8.47126 11.2708 8.25756 11.33 8.20593C11.3541 8.05463 11.4941 7.93835 11.6631 7.93835C11.8493 7.93835 12 8.07888 12 8.25262V10.4009C12 10.8565 11.4032 11.1609 10.0646 11.3872C9.0562 11.5578 7.74313 11.6575 6.33717 11.6709V14.5819C7.58189 14.5694 8.76499 14.4872 9.69925 14.3471C10.9584 14.1586 11.2708 13.9444 11.33 13.8932C11.3541 13.742 11.4941 13.6257 11.6631 13.6257C11.8493 13.6257 12 13.7662 12 13.9399V15.6325C12 15.6469 11.999 15.6612 11.9971 15.6751C11.9981 15.6832 11.9986 15.6909 11.999 15.6989C12 15.7079 12 15.7173 12 15.7268C12 16.1825 11.4032 16.4868 10.0646 16.7136C8.97533 16.8985 7.53183 17 5.99976 17ZM11.3362 15.7999V15.8004V15.7999Z" fill="#4FB778"/>
<path d="M5.99976 7.0211C4.46769 7.0211 3.02419 6.91963 1.93542 6.73556C0.596848 6.50929 0 6.2049 0 5.74877C0 5.29308 0.596848 4.98869 1.93542 4.76197C3.02419 4.5779 4.46769 4.47644 5.99976 4.47644C7.28154 4.47644 8.49448 4.54648 9.50864 4.67937C9.69299 4.70361 9.82151 4.86254 9.79552 5.03449C9.76952 5.20644 9.59913 5.32631 9.41527 5.30206C8.43191 5.17321 7.25073 5.10542 5.99976 5.10542C4.63279 5.10542 3.31924 5.18938 2.30075 5.34202C1.28563 5.49421 0.885644 5.66257 0.737877 5.74922C0.885644 5.83587 1.28563 6.00422 2.30075 6.15642C3.31924 6.30906 4.63279 6.39301 5.99976 6.39301C7.36673 6.39301 8.68076 6.30906 9.69877 6.15642C10.9579 5.96786 11.2703 5.75371 11.3295 5.70253C11.3536 5.55123 11.4936 5.43495 11.6626 5.43495C11.8489 5.43495 11.9995 5.57547 11.9995 5.74922C11.9995 6.2049 11.4027 6.50929 10.0641 6.73601C8.97581 6.91964 7.53231 7.0211 5.99976 7.0211Z" fill="#4FB778"/>
<path d="M5.99904 15.2127C5.81277 15.2127 5.66211 15.0722 5.66211 14.8984V11.3589C5.66211 11.1851 5.81277 11.0446 5.99904 11.0446C7.36649 11.0446 8.68004 10.9607 9.69805 10.808C10.9572 10.6195 11.2696 10.4058 11.3288 10.3541C11.3529 10.2028 11.4929 10.0865 11.6619 10.0865C11.8481 10.0865 11.9988 10.2271 11.9988 10.4008V13.9399C11.9988 14.3956 11.402 14.7 10.0634 14.9267C8.97509 15.1112 7.53159 15.2127 5.99904 15.2127ZM6.33597 11.6718V14.5828C7.58068 14.5702 8.76379 14.4881 9.69805 14.348C10.9331 14.163 11.2571 13.9538 11.3249 13.8972V11.0738C11.0174 11.1941 10.6001 11.2974 10.0634 11.3881C9.05499 11.5587 7.74241 11.6579 6.33597 11.6718ZM11.3254 10.4013C11.3254 10.4013 11.3254 10.4017 11.3254 10.4013C11.3254 10.4017 11.3254 10.4013 11.3254 10.4013Z" fill="#4FB778"/>
</svg>
