<svg width="40" height="40" viewBox="0 0 40 40" fill="none" xmlns="http://www.w3.org/2000/svg">
<g clip-path="url(#clip0)">
<path d="M29.1957 30.5948H30.2897C30.6133 30.5948 30.8756 30.3326 30.8756 30.0089C30.8756 29.6852 30.6133 29.423 30.2897 29.423H29.1957C28.872 29.423 28.6097 29.6852 28.6097 30.0089C28.6097 30.3326 28.8721 30.5948 29.1957 30.5948Z" fill="white"/>
<path d="M11.2626 10.5063C12.4258 10.5063 13.3721 9.56 13.3721 8.39679C13.3721 7.23476 12.4258 6.28937 11.2626 6.28937C10.1007 6.28937 9.15527 7.23476 9.15527 8.39679C9.15535 9.56 10.1007 10.5063 11.2626 10.5063ZM11.2626 7.46132C11.7796 7.46132 12.2003 7.88101 12.2003 8.39687C12.2003 8.9139 11.7796 9.33453 11.2626 9.33453C10.7468 9.33453 10.3271 8.9139 10.3271 8.39687C10.3272 7.88101 10.7468 7.46132 11.2626 7.46132Z" fill="white"/>
<path d="M30.8446 8.39688C30.8446 7.23485 29.8982 6.28946 28.735 6.28946C27.5731 6.28946 26.6277 7.23485 26.6277 8.39688C26.6277 9.56008 27.5731 10.5064 28.735 10.5064C29.8982 10.5063 30.8446 9.56001 30.8446 8.39688ZM27.7996 8.39688C27.7996 7.88102 28.2192 7.46133 28.735 7.46133C29.2521 7.46133 29.6727 7.88102 29.6727 8.39688C29.6727 8.91391 29.2521 9.33454 28.735 9.33454C28.2192 9.33446 27.7996 8.91391 27.7996 8.39688Z" fill="white"/>
<path d="M23.3582 10.2119C24.5214 10.2119 25.4677 9.33202 25.4677 8.25061C25.4677 7.16921 24.5214 6.28937 23.3582 6.28937H16.6415C15.4783 6.28937 14.532 7.16921 14.532 8.25061C14.532 9.33202 15.4783 10.2119 16.6415 10.2119H23.3582ZM15.7039 8.25061C15.7039 7.81538 16.1246 7.46124 16.6416 7.46124H23.3582C23.8665 7.46124 24.2959 7.82272 24.2959 8.25061C24.2959 8.6785 23.8665 9.03999 23.3582 9.03999H16.6416C16.1333 9.03999 15.7039 8.6785 15.7039 8.25061Z" fill="white"/>
<path d="M25.1764 27.4699C25.1809 27.47 25.1852 27.47 25.1897 27.47H28.8348C29.9039 27.47 30.7737 26.5961 30.7737 25.5221V24.53C30.7737 23.2512 30.2123 22.6709 29.7415 22.4093C28.8126 21.8934 27.4818 22.2231 26.6383 22.7481L24.4681 24.0989C23.6983 24.5771 23.2976 25.5026 23.5152 26.2998C23.7098 27.0134 24.331 27.4508 25.1764 27.4699ZM25.0867 25.0943C25.087 25.0941 25.0872 25.094 25.0873 25.0939L27.2575 23.743C27.8306 23.3865 28.7034 23.1734 29.1724 23.4338C29.4573 23.5921 29.6018 23.9609 29.6018 24.53V25.5221C29.6018 25.95 29.2577 26.2982 28.8348 26.2982H25.1969C24.8845 26.2899 24.699 26.1866 24.6457 25.9912C24.5741 25.7293 24.7196 25.3221 25.0867 25.0943Z" fill="white"/>
<path d="M14.6819 27.4697C15.5259 27.4507 16.1462 27.0136 16.3412 26.3007C16.5592 25.5033 16.1592 24.5772 15.39 24.0987C15.3899 24.0987 15.3899 24.0986 15.3898 24.0986L13.218 22.7482C12.3762 22.2232 11.0469 21.8929 10.1174 22.4086C9.64615 22.6701 9.08435 23.2504 9.08435 24.5297V25.5218C9.08435 26.5959 9.95318 27.4698 11.0211 27.4698H14.6685C14.673 27.4699 14.6774 27.4698 14.6819 27.4697ZM11.0212 26.298C10.5995 26.298 10.2563 25.9499 10.2563 25.5219V24.5298C10.2563 23.9605 10.4009 23.5916 10.686 23.4334C10.8269 23.3553 11.0072 23.3211 11.2058 23.3211C11.6598 23.3211 12.2091 23.5002 12.5986 23.743L14.7711 25.0939C15.1376 25.3219 15.2825 25.7294 15.2108 25.9915C15.1574 26.1866 14.9726 26.2897 14.6614 26.298H11.0212Z" fill="white"/>
<path d="M21.662 23.4414H18.1963C17.8726 23.4414 17.6104 23.7037 17.6104 24.0273C17.6104 24.351 17.8726 24.6133 18.1963 24.6133H21.662C21.9857 24.6133 22.2479 24.351 22.2479 24.0273C22.2479 23.7037 21.9856 23.4414 21.662 23.4414Z" fill="white"/>
<path d="M21.662 26.2978H18.1963C17.8726 26.2978 17.6104 26.5601 17.6104 26.8838C17.6104 27.2074 17.8726 27.4697 18.1963 27.4697H21.662C21.9857 27.4697 22.2479 27.2074 22.2479 26.8838C22.2479 26.5601 21.9856 26.2978 21.662 26.2978Z" fill="white"/>
<path d="M30.8446 18.4797V14.3341C30.8446 13.1512 29.7055 12.1891 28.3054 12.1891H11.6944C10.2943 12.1891 9.15527 13.1512 9.15527 14.3341V18.4797C9.15527 19.5204 10.3253 20.2286 12.8371 20.7083C14.7329 21.0703 17.2766 21.2697 20 21.2697C22.7233 21.2697 25.267 21.0703 27.1628 20.7083C29.6746 20.2286 30.8446 19.5204 30.8446 18.4797ZM25.4887 19.785L24.2717 16.3359C24.164 16.0308 23.8293 15.8708 23.5242 15.9784C23.2191 16.086 23.0589 16.4207 23.1667 16.7259L24.2919 19.9148C22.9793 20.0345 21.5206 20.0979 20 20.0979C18.9272 20.0979 17.8861 20.0659 16.9043 20.0055L15.6307 16.3979C15.523 16.0928 15.1887 15.933 14.8832 16.0405C14.5781 16.1482 14.418 16.4829 14.5257 16.788L15.6268 19.9072C14.6821 19.819 13.8139 19.7019 13.057 19.5573C10.4875 19.0666 10.3272 18.4853 10.3272 18.4798V14.3341C10.3272 13.8066 10.9534 13.361 11.6945 13.361H28.3055C29.0466 13.361 29.6728 13.8066 29.6728 14.3341V18.4798C29.6728 18.4853 29.5124 19.0666 26.943 19.5573C26.4946 19.6428 26.0075 19.7188 25.4887 19.785Z" fill="white"/>
<path d="M33.9738 39.1565L31.2463 33.5842C32.8289 33.2049 34.0092 31.7791 34.0092 30.0819V20.6013C34.0092 20.2776 33.7469 20.0153 33.4232 20.0153C33.0995 20.0153 32.8373 20.2776 32.8373 20.6013V30.0819C32.8373 31.4219 31.747 32.5121 30.407 32.5121H30.3561H27.6882L26.2957 30.2379L26.2799 30.212C26.177 30.0428 25.9357 29.6466 25.4045 29.6466H14.5954C14.0574 29.6466 13.8157 30.0513 13.7124 30.2241L12.3117 32.5122H9.59275C8.25275 32.5122 7.16251 31.422 7.16251 30.082V6.72687C7.16251 5.38687 8.25275 4.29664 9.59275 4.29664H18.6656C18.9893 4.29664 19.2516 4.03438 19.2516 3.7107C19.2516 3.38703 18.9893 3.12477 18.6656 3.12477H12.8202L13.3763 1.17188H26.6236L27.1795 3.12477H21.4183C21.0946 3.12477 20.8324 3.38703 20.8324 3.7107C20.8324 4.03438 21.0946 4.29664 21.4183 4.29664H27.9534C27.954 4.29664 27.9546 4.2968 27.9552 4.2968C27.9559 4.2968 27.9567 4.29664 27.9574 4.29664H30.407C31.747 4.29664 32.8372 5.38687 32.8372 6.72687V17.8484C32.8372 18.1721 33.0995 18.4344 33.4231 18.4344C33.7468 18.4344 34.0091 18.1721 34.0091 17.8484V6.72687C34.0091 4.74062 32.3931 3.12477 30.407 3.12477H28.3979L27.7371 0.803672C27.5934 0.300469 27.2413 0 26.7952 0H13.2047C12.7586 0 12.4065 0.300469 12.2624 0.804219L11.6018 3.12477H9.59282C7.60657 3.12477 5.99071 4.7407 5.99071 6.72687V30.0818C5.99071 31.7507 7.13173 33.1578 8.67454 33.5649L6.02275 39.1632C5.93673 39.3448 5.9497 39.5577 6.05712 39.7274C6.16454 39.8972 6.35142 40 6.55228 40H33.4476C33.6498 40 33.8377 39.8958 33.9447 39.7242C34.0517 39.5527 34.0627 39.338 33.9738 39.1565ZM14.7058 30.8462L14.7185 30.8249C14.7198 30.8229 14.721 30.8206 14.7224 30.8184H25.277C25.2777 30.8195 25.2783 30.8204 25.2788 30.8213L26.314 32.5122H13.6859L14.7058 30.8462ZM9.91486 33.684H29.9905L30.9627 35.6702H8.97407L9.91486 33.684ZM7.47821 38.8281L8.419 36.842H31.5363L32.5084 38.8281H7.47821Z" fill="white"/>
<path d="M9.74121 29.423C9.41754 29.423 9.15527 29.6852 9.15527 30.0089C9.15527 30.3326 9.41754 30.5948 9.74121 30.5948H10.8352C11.1589 30.5948 11.4211 30.3326 11.4211 30.0089C11.4211 29.6852 11.1589 29.423 10.8352 29.423H9.74121Z" fill="white"/>
</g>
<defs>
<clipPath id="clip0">
<rect width="40" height="40" fill="white"/>
</clipPath>
</defs>
</svg>
