<svg width="16" height="16" viewBox="0 0 16 16" fill="none" xmlns="http://www.w3.org/2000/svg">
<path d="M11.5 8.94L9.035 10.175C8.95899 10.2189 8.87277 10.242 8.785 10.242C8.69723 10.242 8.61101 10.2189 8.535 10.175C7.47854 9.44437 6.56367 8.52781 5.835 7.47C5.79112 7.39399 5.76801 7.30777 5.76801 7.22C5.76801 7.13223 5.79112 7.04601 5.835 6.97L7.06 4.5L5.31 1H1V1.5C1 5.08042 2.42232 8.5142 4.95406 11.0459C7.4858 13.5777 10.9196 15 14.5 15H15V10.69L11.5 8.94ZM14 14C10.8569 13.8766 7.87579 12.5727 5.65154 10.3485C3.42729 8.12421 2.1234 5.14314 2 2H4.69L5.94 4.5L4.94 6.5C4.82249 6.73629 4.76939 6.99939 4.78607 7.26276C4.80275 7.52612 4.88862 7.78043 5.035 8C5.83046 9.17381 6.83561 10.1908 8 11C8.21957 11.1464 8.47388 11.2322 8.73724 11.2489C9.00061 11.2656 9.26371 11.2125 9.5 11.095L11.5 10.095L14 11.345V14Z" fill="#328FCD"/>
</svg>
