<svg width="98" height="14" viewBox="0 0 98 14" fill="none" xmlns="http://www.w3.org/2000/svg">
<path d="M2.85938 6.95312H3.65625C4.40104 6.95312 4.95833 6.80729 5.32812 6.51562C5.69792 6.21875 5.88281 5.78906 5.88281 5.22656C5.88281 4.65885 5.72656 4.23958 5.41406 3.96875C5.10677 3.69792 4.6224 3.5625 3.96094 3.5625H2.85938V6.95312ZM8.32812 5.14062C8.32812 6.36979 7.94271 7.3099 7.17188 7.96094C6.40625 8.61198 5.3151 8.9375 3.89844 8.9375H2.85938V13H0.4375V1.57812H4.08594C5.47135 1.57812 6.52344 1.8776 7.24219 2.47656C7.96615 3.07031 8.32812 3.95833 8.32812 5.14062ZM12.6797 13H10.2969V0.84375H12.6797V13ZM20.7344 13L20.2734 11.8125H20.2109C19.8099 12.3177 19.3958 12.6693 18.9688 12.8672C18.5469 13.0599 17.9948 13.1562 17.3125 13.1562C16.474 13.1562 15.8125 12.9167 15.3281 12.4375C14.849 11.9583 14.6094 11.276 14.6094 10.3906C14.6094 9.46354 14.9323 8.78125 15.5781 8.34375C16.2292 7.90104 17.2083 7.65625 18.5156 7.60938L20.0312 7.5625V7.17969C20.0312 6.29427 19.5781 5.85156 18.6719 5.85156C17.974 5.85156 17.1536 6.0625 16.2109 6.48438L15.4219 4.875C16.4271 4.34896 17.5417 4.08594 18.7656 4.08594C19.9375 4.08594 20.8359 4.34115 21.4609 4.85156C22.0859 5.36198 22.3984 6.13802 22.3984 7.17969V13H20.7344ZM20.0312 8.95312L19.1094 8.98438C18.4167 9.00521 17.901 9.13021 17.5625 9.35938C17.224 9.58854 17.0547 9.9375 17.0547 10.4062C17.0547 11.0781 17.4401 11.4141 18.2109 11.4141C18.763 11.4141 19.2031 11.2552 19.5312 10.9375C19.8646 10.6198 20.0312 10.1979 20.0312 9.67188V8.95312ZM32.9219 13H30.5391V7.89844C30.5391 7.26823 30.4271 6.79688 30.2031 6.48438C29.9792 6.16667 29.6224 6.00781 29.1328 6.00781C28.4661 6.00781 27.9844 6.23177 27.6875 6.67969C27.3906 7.1224 27.2422 7.85938 27.2422 8.89062V13H24.8594V4.26562H26.6797L27 5.38281H27.1328C27.3984 4.96094 27.763 4.64323 28.2266 4.42969C28.6953 4.21094 29.2266 4.10156 29.8203 4.10156C30.8359 4.10156 31.6068 4.3776 32.1328 4.92969C32.6589 5.47656 32.9219 6.26823 32.9219 7.30469V13ZM38.9922 5.79688C38.487 5.79688 38.0911 5.95833 37.8047 6.28125C37.5182 6.59896 37.3542 7.05208 37.3125 7.64062H40.6562C40.6458 7.05208 40.4922 6.59896 40.1953 6.28125C39.8984 5.95833 39.4974 5.79688 38.9922 5.79688ZM39.3281 13.1562C37.9219 13.1562 36.8229 12.7682 36.0312 11.9922C35.2396 11.2161 34.8438 10.1172 34.8438 8.69531C34.8438 7.23177 35.2083 6.10156 35.9375 5.30469C36.6719 4.5026 37.6849 4.10156 38.9766 4.10156C40.2109 4.10156 41.1719 4.45312 41.8594 5.15625C42.5469 5.85938 42.8906 6.83073 42.8906 8.07031V9.22656H37.2578C37.2839 9.90365 37.4844 10.4323 37.8594 10.8125C38.2344 11.1927 38.7604 11.3828 39.4375 11.3828C39.9635 11.3828 40.4609 11.3281 40.9297 11.2188C41.3984 11.1094 41.888 10.9349 42.3984 10.6953V12.5391C41.9818 12.7474 41.5365 12.901 41.0625 13C40.5885 13.1042 40.0104 13.1562 39.3281 13.1562ZM48.5078 11.2578C48.9245 11.2578 49.4245 11.1667 50.0078 10.9844V12.7578C49.4141 13.0234 48.6849 13.1562 47.8203 13.1562C46.8672 13.1562 46.1719 12.9167 45.7344 12.4375C45.3021 11.9531 45.0859 11.2292 45.0859 10.2656V6.05469H43.9453V5.04688L45.2578 4.25L45.9453 2.40625H47.4688V4.26562H49.9141V6.05469H47.4688V10.2656C47.4688 10.6042 47.5625 10.8542 47.75 11.0156C47.9427 11.1771 48.1953 11.2578 48.5078 11.2578Z" fill="#424242"/>
<path d="M58.5 13H52.0391V1.57812H58.5V3.15625H53.9062V6.26562H58.2109V7.82812H53.9062V11.4141H58.5V13ZM66.5859 10.5391C66.5859 11.3828 66.2786 12.0312 65.6641 12.4844C65.0495 12.9323 64.1693 13.1562 63.0234 13.1562C61.8724 13.1562 60.9479 12.9818 60.25 12.6328V11.0469C61.2656 11.5156 62.2109 11.75 63.0859 11.75C64.2161 11.75 64.7812 11.4089 64.7812 10.7266C64.7812 10.5078 64.7188 10.3255 64.5938 10.1797C64.4688 10.0339 64.263 9.88281 63.9766 9.72656C63.6901 9.57031 63.2917 9.39323 62.7812 9.19531C61.7865 8.8099 61.112 8.42448 60.7578 8.03906C60.4089 7.65365 60.2344 7.15365 60.2344 6.53906C60.2344 5.79948 60.5312 5.22656 61.125 4.82031C61.724 4.40885 62.5365 4.20312 63.5625 4.20312C64.5781 4.20312 65.5391 4.40885 66.4453 4.82031L65.8516 6.20312C64.9193 5.81771 64.1354 5.625 63.5 5.625C62.5312 5.625 62.0469 5.90104 62.0469 6.45312C62.0469 6.72396 62.1719 6.95312 62.4219 7.14062C62.6771 7.32812 63.2292 7.58594 64.0781 7.91406C64.7917 8.1901 65.3099 8.44271 65.6328 8.67188C65.9557 8.90104 66.1953 9.16667 66.3516 9.46875C66.5078 9.76562 66.5859 10.1224 66.5859 10.5391ZM71.7969 11.6719C72.2448 11.6719 72.6927 11.6016 73.1406 11.4609V12.8438C72.9375 12.9323 72.6745 13.0052 72.3516 13.0625C72.0339 13.125 71.7031 13.1562 71.3594 13.1562C69.6198 13.1562 68.75 12.2396 68.75 10.4062V5.75H67.5703V4.9375L68.8359 4.26562L69.4609 2.4375H70.5938V4.35938H73.0547V5.75H70.5938V10.375C70.5938 10.8177 70.7031 11.1458 70.9219 11.3594C71.1458 11.5677 71.4375 11.6719 71.7969 11.6719ZM80.2812 13L79.9141 11.7969H79.8516C79.4349 12.3229 79.0156 12.6823 78.5938 12.875C78.1719 13.0625 77.6302 13.1562 76.9688 13.1562C76.1198 13.1562 75.4557 12.9271 74.9766 12.4688C74.5026 12.0104 74.2656 11.362 74.2656 10.5234C74.2656 9.63281 74.5964 8.96094 75.2578 8.50781C75.9193 8.05469 76.9271 7.80729 78.2812 7.76562L79.7734 7.71875V7.25781C79.7734 6.70573 79.6432 6.29427 79.3828 6.02344C79.1276 5.7474 78.7292 5.60938 78.1875 5.60938C77.7448 5.60938 77.3203 5.67448 76.9141 5.80469C76.5078 5.9349 76.1172 6.08854 75.7422 6.26562L75.1484 4.95312C75.6172 4.70833 76.1302 4.52344 76.6875 4.39844C77.2448 4.26823 77.7708 4.20312 78.2656 4.20312C79.3646 4.20312 80.1927 4.44271 80.75 4.92188C81.3125 5.40104 81.5938 6.15365 81.5938 7.17969V13H80.2812ZM77.5469 11.75C78.2135 11.75 78.7474 11.5651 79.1484 11.1953C79.5547 10.8203 79.7578 10.2969 79.7578 9.625V8.875L78.6484 8.92188C77.7839 8.95312 77.1536 9.09896 76.7578 9.35938C76.3672 9.61458 76.1719 10.0078 76.1719 10.5391C76.1719 10.9245 76.2865 11.224 76.5156 11.4375C76.7448 11.6458 77.0885 11.75 77.5469 11.75ZM87.375 11.6719C87.8229 11.6719 88.2708 11.6016 88.7188 11.4609V12.8438C88.5156 12.9323 88.2526 13.0052 87.9297 13.0625C87.612 13.125 87.2812 13.1562 86.9375 13.1562C85.1979 13.1562 84.3281 12.2396 84.3281 10.4062V5.75H83.1484V4.9375L84.4141 4.26562L85.0391 2.4375H86.1719V4.35938H88.6328V5.75H86.1719V10.375C86.1719 10.8177 86.2812 11.1458 86.5 11.3594C86.724 11.5677 87.0156 11.6719 87.375 11.6719ZM94.2266 13.1562C92.8828 13.1562 91.8307 12.7656 91.0703 11.9844C90.3151 11.1979 89.9375 10.1172 89.9375 8.74219C89.9375 7.33073 90.2891 6.22135 90.9922 5.41406C91.6953 4.60677 92.6615 4.20312 93.8906 4.20312C95.0312 4.20312 95.9323 4.54948 96.5938 5.24219C97.2552 5.9349 97.5859 6.88802 97.5859 8.10156V9.09375H91.8281C91.8542 9.93229 92.0807 10.5781 92.5078 11.0312C92.9349 11.4792 93.5365 11.7031 94.3125 11.7031C94.8229 11.7031 95.2969 11.6562 95.7344 11.5625C96.1771 11.4635 96.651 11.3021 97.1562 11.0781V12.5703C96.7083 12.7839 96.2552 12.9349 95.7969 13.0234C95.3385 13.112 94.8151 13.1562 94.2266 13.1562ZM93.8906 5.59375C93.3073 5.59375 92.8385 5.77865 92.4844 6.14844C92.1354 6.51823 91.9271 7.05729 91.8594 7.76562H95.7812C95.7708 7.05208 95.599 6.51302 95.2656 6.14844C94.9323 5.77865 94.474 5.59375 93.8906 5.59375Z" fill="#78B634"/>
</svg>
