<svg width="40" height="40" viewBox="0 0 40 40" fill="none" xmlns="http://www.w3.org/2000/svg">
<path d="M6.875 32.5C7.8257 32.5 8.75148 32.2934 9.60938 31.8964V38.4375H3.35938C2.92797 38.4375 2.57812 38.7873 2.57812 39.2188C2.57812 39.6502 2.92797 40 3.35938 40H36.6406C37.072 40 37.4219 39.6502 37.4219 39.2188C37.4219 38.7873 37.072 38.4375 36.6406 38.4375H30.3906V31.8964C31.2485 32.2934 32.1743 32.5 33.125 32.5C36.8516 32.5 40 29.459 40 25.8594C40 22.9885 37.9143 20.3582 35.0555 19.5048C34.8898 17.6984 33.8268 16.0837 32.2507 15.2113C32.5715 14.348 32.7344 13.4393 32.7344 12.5C32.7344 11.8556 32.6554 11.2153 32.4996 10.5966C32.3941 10.1782 31.9694 9.92437 31.5512 10.0298C31.1329 10.1351 30.8791 10.5597 30.9844 10.9781C31.1088 11.4722 31.1719 11.9841 31.1719 12.5C31.1719 13.2485 31.0429 13.9721 30.7889 14.6594C30.4033 14.5745 30.0088 14.5312 29.6094 14.5312C26.7606 14.5312 24.4137 16.7205 24.1628 19.505C22.8195 19.9061 21.647 20.6997 20.7812 21.7262V15.337L25.2578 13.2053C25.6473 13.0198 25.8128 12.5536 25.6273 12.1641C25.4417 11.7745 24.9754 11.6091 24.586 11.7946L20.7812 13.6064V7.8125C20.7812 7.38102 20.4314 7.03125 20 7.03125C19.5686 7.03125 19.2188 7.38102 19.2188 7.8125V11.2627L15.4141 9.45086C15.0244 9.26547 14.5583 9.4307 14.3728 9.82031C14.1873 10.2098 14.3527 10.6761 14.7423 10.8616L19.2188 12.9933V21.7262C18.3531 20.6997 17.1806 19.9061 15.8373 19.505C15.5863 16.7205 13.2394 14.5312 10.3906 14.5312C9.99125 14.5312 9.59672 14.5745 9.21109 14.6594C8.95711 13.9722 8.82812 13.2485 8.82812 12.5C8.82812 9.40609 11.0585 6.81914 14.1315 6.34883C14.4604 6.29852 14.7213 6.04539 14.7816 5.71813C15.2109 3.38789 17.5031 1.5625 20 1.5625C22.4969 1.5625 24.7891 3.38789 25.2184 5.71813C25.2787 6.04531 25.5396 6.29852 25.8685 6.34883C26.1881 6.39773 26.5061 6.47195 26.8139 6.5693C27.2253 6.69961 27.6643 6.47164 27.7945 6.06023C27.9247 5.64891 27.6968 5.20984 27.2854 5.07969C27.0711 5.01187 26.8529 4.95305 26.6325 4.90375C25.8459 2.07336 23.0898 0 20 0C16.9102 0 14.1541 2.07344 13.3675 4.90375C9.83438 5.69617 7.26562 8.82047 7.26562 12.5C7.26562 13.4393 7.42852 14.348 7.74922 15.2112C6.17328 16.0836 5.11008 17.6983 4.94453 19.5048C2.0857 20.3582 0 22.9885 0 25.8594C0 29.459 3.14836 32.5 6.875 32.5ZM11.1719 31.8964C12.0298 32.2934 12.9555 32.5 13.9062 32.5C16.0193 32.5 17.946 31.5221 19.2188 30.0193V38.4375H11.1719V31.8964ZM20.7812 38.4375V30.0193C22.054 31.5221 23.9807 32.5 26.0938 32.5C27.0445 32.5 27.9702 32.2934 28.8281 31.8964V38.4375H20.7812ZM25.0875 20.8831C25.4655 20.8072 25.772 20.4573 25.7033 19.9651C25.7222 17.8272 27.4672 16.0938 29.6094 16.0938C31.7671 16.0938 33.4964 17.8415 33.5155 19.9651C33.4473 20.4537 33.7495 20.8065 34.1312 20.8831C36.5863 21.3762 38.4375 23.5156 38.4375 25.8594C38.4375 28.612 36.0046 30.9375 33.125 30.9375C32.1561 30.9375 31.2183 30.6537 30.3906 30.1144V27.5141L34.6462 25.3862C35.0322 25.1933 35.1886 24.724 34.9957 24.338C34.8027 23.9521 34.3331 23.7956 33.9476 23.9887L30.3906 25.7672C30.3906 25.1093 30.3906 21.0022 30.3906 20C30.3906 19.5685 30.0408 19.2188 29.6094 19.2188C29.178 19.2188 28.8281 19.5685 28.8281 20V22.8013L27.818 21.7913C27.5129 21.4862 27.0184 21.4862 26.7131 21.7913C26.408 22.0963 26.408 22.591 26.7131 22.8962L28.8281 25.0112V30.1144C28.0005 30.6537 27.0627 30.9375 26.0938 30.9375C23.2141 30.9375 20.7812 28.612 20.7812 25.8594C20.7812 23.5156 22.6325 21.3762 25.0875 20.8831ZM5.86875 20.8831C6.24633 20.8073 6.55328 20.4581 6.48453 19.9651C6.50359 17.8414 8.23109 16.0938 10.3906 16.0938C12.5328 16.0938 14.2778 17.8272 14.2967 19.9651C14.2284 20.4544 14.5316 20.8066 14.9125 20.8831C17.3675 21.3762 19.2188 23.5156 19.2188 25.8594C19.2188 28.612 16.7859 30.9375 13.9062 30.9375C12.9373 30.9375 11.9995 30.6537 11.1719 30.1144V29.6987L13.2868 27.5837C13.5919 27.2787 13.5919 26.784 13.2868 26.4788C12.9816 26.1738 12.4871 26.1738 12.1819 26.4788L11.1719 27.4888V22.3438C11.1719 21.9123 10.822 21.5625 10.3906 21.5625C9.95922 21.5625 9.60938 21.9123 9.60938 22.3438V25.7672L6.0525 23.9888C5.66656 23.7958 5.19734 23.9522 5.00437 24.3381C4.81141 24.7241 4.96781 25.1934 5.35383 25.3863L9.60938 27.5141V30.1143C8.78172 30.6537 7.84391 30.9375 6.875 30.9375C3.99539 30.9375 1.5625 28.612 1.5625 25.8594C1.5625 23.5156 3.41375 21.3762 5.86875 20.8831Z" fill="white"/>
<path d="M30 8.51562C30.4315 8.51562 30.7812 8.16585 30.7812 7.73438C30.7812 7.3029 30.4315 6.95312 30 6.95312C29.5685 6.95312 29.2188 7.3029 29.2188 7.73438C29.2188 8.16585 29.5685 8.51562 30 8.51562Z" fill="white"/>
</svg>
