<svg width="13" height="17" viewBox="0 0 13 17" fill="none" xmlns="http://www.w3.org/2000/svg">
<path d="M13 6.45504V1.66329H12.2127V0.992849C12.2127 0.445379 11.7705 0 11.227 0H0.98616C0.4424 0 0 0.445418 0 0.992849V1.21168V2.30097V2.80148C0 3.34895 0.4424 3.79433 0.98616 3.79433H2.48837C2.57436 4.20476 2.93677 4.5138 3.36965 4.5138C3.80253 4.5138 4.16493 4.20476 4.25092 3.79433H11.227C11.7705 3.79433 12.2127 3.34892 12.2127 2.80148V2.13088H12.5356V6.06327L6.21887 7.19523V8.56862H5.1312V15.6711C5.1312 16.4039 5.72329 17 6.45108 17C7.17887 17 7.77097 16.4039 7.77097 15.6711V8.56866H6.68329V7.58699L13 6.45504ZM11.7483 1.83295L10.2646 3.32674H8.74869L10.525 1.53829L10.1967 1.20767L8.09188 3.32678H6.57125L6.8206 3.07573L6.49218 2.7451L5.91444 3.32678H4.41258L7.25244 0.46759H8.75426L6.82115 2.41393L7.14949 2.74456L9.41107 0.467551H10.9317L10.5544 0.847467L10.8827 1.17809L11.5065 0.550158C11.6516 0.64352 11.7483 0.806826 11.7483 0.99281V1.83295H11.7483ZM4.27039 1.30668L5.10356 0.46759H6.59571L4.27039 2.80873V1.30668ZM4.27039 0.645274V0.467551H4.44687L4.27039 0.645274ZM0.469298 2.86921C0.503433 2.87564 0.538535 2.87938 0.574489 2.87938C0.891263 2.87938 1.14894 2.6199 1.14894 2.30097V2.21259C1.14894 2.11806 1.22534 2.04115 1.31923 2.04115C1.41312 2.04115 1.48951 2.11806 1.48951 2.21259V2.58394C1.48951 2.9847 1.81337 3.31077 2.21142 3.31077C2.24242 3.31077 2.27203 3.31657 2.29954 3.32674H0.98616C0.721323 3.32674 0.502465 3.12689 0.469298 2.86921ZM3.36965 4.04625C3.12908 4.04625 2.93336 3.8492 2.93336 3.60695V3.57005C2.93336 3.16924 2.60951 2.84322 2.21146 2.84322C2.06946 2.84322 1.95397 2.72694 1.95397 2.58398V2.21263C1.95397 1.86027 1.66925 1.57359 1.31927 1.57359C0.969286 1.57359 0.684557 1.86027 0.684557 2.21263V2.30101C0.684557 2.36211 0.635212 2.41183 0.574527 2.41183C0.513843 2.41183 0.46446 2.36215 0.46446 2.30101V1.21168V0.992849C0.46446 0.703177 0.698528 0.46759 0.986198 0.46759H3.80601V3.60695C3.80597 3.8492 3.61026 4.04625 3.36965 4.04625ZM11.227 3.32674H10.9215L11.7483 2.49424V2.80145C11.7483 3.09112 11.5144 3.32674 11.227 3.32674ZM6.45108 16.5324C5.97938 16.5324 5.59562 16.1461 5.59562 15.6711V9.74998H7.30651V15.6711C7.30654 16.1461 6.92278 16.5324 6.45108 16.5324ZM7.30654 9.28239H5.59566V9.03625H7.30654V9.28239Z" fill="#4FB778"/>
<path d="M6.68317 10.2161H6.21875V10.8065H6.68317V10.2161Z" fill="#4FB778"/>
<path d="M6.68317 11.1938H6.21875V15.6407H6.68317V11.1938Z" fill="#4FB778"/>
</svg>
