<svg width="40" height="40" viewBox="0 0 40 40" fill="none" xmlns="http://www.w3.org/2000/svg">
<path d="M5.92982 39.6404C8.32044 39.6404 10.7111 39.6404 13.1017 39.6404C17.5939 39.6404 22.0861 39.6404 26.5704 39.6404C28.3361 39.6404 30.1095 39.6404 31.8751 39.6404C32.672 39.6404 33.4767 39.6638 34.2736 39.6404C35.4376 39.6013 36.2501 38.5623 36.1251 37.4216C36.0939 37.117 36.047 36.8123 36.0079 36.5076C35.797 34.8982 35.5861 33.281 35.3751 31.6716C34.8204 27.4138 34.2658 23.1638 33.7111 18.906C33.5939 17.992 33.4767 17.0857 33.3517 16.1716C32.9376 13.0545 31.4689 10.0623 28.9845 8.08571C27.7736 7.11696 26.3673 6.39821 24.8439 6.05446C23.8751 5.83571 22.9064 5.80446 21.9298 5.80446C20.8673 5.80446 19.8048 5.80446 18.7345 5.80446C17.8361 5.80446 16.9454 5.78884 16.0548 5.92165C12.9689 6.38259 10.2892 8.36696 8.64857 10.992C7.55482 12.7498 7.03919 14.6951 6.77357 16.7263C6.28919 20.4216 5.81263 24.1091 5.32826 27.8045C4.91419 30.992 4.46888 34.1716 4.08607 37.3591C3.96888 38.5154 4.75013 39.5935 5.92982 39.6404C6.68763 39.6716 6.67982 38.4998 5.92982 38.4685C4.85951 38.4216 5.39857 36.4373 5.47669 35.8123C5.70326 34.0545 5.93763 32.2966 6.16419 30.5388C6.69544 26.4685 7.22669 22.3982 7.75794 18.3279C7.82826 17.7732 7.89857 17.2185 7.97669 16.6716C8.03919 16.2107 8.06263 15.9841 8.14857 15.5466C8.73451 12.5545 10.4611 9.78102 13.1173 8.22634C14.3751 7.49196 15.797 7.05446 17.2501 7.00759C17.9611 6.98415 18.6798 6.99977 19.3908 6.99977C21.3908 6.99977 23.5001 6.81227 25.422 7.4529C28.2423 8.3904 30.4454 10.7576 31.5001 13.4998C31.797 14.2732 32.0079 15.0701 32.1486 15.8904C32.1954 16.1638 32.1876 16.117 32.2111 16.3279C32.2579 16.7185 32.3126 17.1091 32.3595 17.4998C32.8673 21.3826 33.3673 25.2576 33.8751 29.1404C34.2345 31.9138 34.6798 34.6873 34.9611 37.4685C35.0236 38.0623 34.7267 38.4998 34.1408 38.4998C33.7892 38.4998 33.4376 38.4998 33.0861 38.4998C31.6329 38.4998 30.1798 38.4998 28.7189 38.4998C24.3986 38.4998 20.0783 38.4998 15.7658 38.4998C12.6486 38.4998 9.52357 38.4998 6.40638 38.4998C6.25013 38.4998 6.08607 38.4998 5.92982 38.4998C5.17982 38.4685 5.17982 39.6404 5.92982 39.6404Z" fill="white"/>
<path d="M15.9298 6.55469C15.9298 5.66406 15.922 4.80469 16.3126 3.97656C16.7892 2.96094 17.6564 2.14062 18.7189 1.77344C20.8361 1.03906 23.2736 1.88281 24.2736 3.92969C24.7111 4.83594 24.6798 5.79687 24.6798 6.77344C24.6798 7.53125 25.8517 7.53125 25.8517 6.77344C25.8517 5.72656 25.8595 4.70312 25.4533 3.71094C24.922 2.42187 23.9142 1.36719 22.6329 0.804687C20.1486 -0.273439 17.0861 0.539062 15.6017 2.83594C14.8673 3.98437 14.7579 5.22656 14.7579 6.54687C14.7579 7.3125 15.9298 7.3125 15.9298 6.55469Z" fill="white"/>
<path d="M15.6798 24.6407C18.2501 24.6407 20.8126 24.6407 23.3829 24.6407C23.7658 24.6407 24.1408 24.6407 24.5236 24.6407C25.4923 24.6485 26.4376 24.8751 27.2814 25.3517C28.297 25.922 29.1017 26.7892 29.6095 27.836C29.8595 28.3517 29.9923 28.9142 30.1408 29.461C30.5236 30.8438 30.9142 32.2188 31.2892 33.6017C31.3439 33.8126 31.3908 34.0079 31.2736 34.2188C31.1798 34.3985 31.0158 34.5157 30.8204 34.5626C30.4142 34.6485 29.9376 34.6173 29.5236 34.6329C27.8126 34.7188 26.1017 34.7735 24.3908 34.8126C20.9689 34.8907 17.547 34.8751 14.1329 34.7657C13.3048 34.7423 12.4767 34.711 11.6486 34.672C11.2345 34.6563 10.8204 34.6329 10.4064 34.6173C10.0626 34.6017 9.59388 34.6641 9.27357 34.5157C8.67982 34.2501 8.94545 33.6251 9.07045 33.172C9.46107 31.7657 9.8517 30.3673 10.2345 28.961C10.7658 27.0548 12.0704 25.5001 13.9923 24.8985C14.547 24.7267 15.1017 24.6485 15.6798 24.6407C16.4298 24.6329 16.4376 23.461 15.6798 23.4688C13.0158 23.4923 10.5392 25.0782 9.48451 27.547C9.24232 28.1173 9.08607 28.7188 8.92201 29.3204C8.68763 30.1642 8.45326 31.0079 8.21888 31.8438C8.07045 32.3673 7.90638 32.8907 7.78138 33.422C7.64076 34.0157 7.75014 34.6173 8.14857 35.0938C8.6642 35.7032 9.3517 35.7345 10.0939 35.7735C13.7658 35.961 17.4533 36.047 21.1329 36.0313C22.9454 36.0235 24.7579 35.9845 26.5704 35.9298C27.5001 35.8985 28.4376 35.8595 29.3673 35.8204C30.1095 35.7813 31.0314 35.8829 31.6876 35.461C32.2345 35.1016 32.5783 34.461 32.5236 33.8048C32.5001 33.5704 32.4376 33.3595 32.3829 33.1407C32.1798 32.4063 31.9767 31.672 31.7736 30.9376C31.3439 29.3985 31.047 27.6954 30.1095 26.3673C28.797 24.5157 26.7033 23.4767 24.4454 23.4767C21.6173 23.4767 18.7814 23.4767 15.9533 23.4767C15.8673 23.4767 15.7814 23.4767 15.6954 23.4767C14.9298 23.4689 14.922 24.6407 15.6798 24.6407Z" fill="white"/>
<path d="M6.82046 24.6013C8.80483 22.7967 11.2736 21.6092 13.922 21.1795C15.172 20.9763 16.4376 21.0154 17.7033 21.0154C19.2111 21.0154 20.7267 21.0154 22.2345 21.0154C23.3908 21.0154 24.5626 20.9763 25.7189 21.1013C28.5705 21.4138 31.2892 22.6795 33.4142 24.6013C33.9689 25.1092 34.8048 24.281 34.2423 23.7732C32.2423 21.9607 29.7892 20.6795 27.1408 20.1482C25.7033 19.8592 24.2658 19.8435 22.8126 19.8435C21.258 19.8435 19.6955 19.8435 18.1408 19.8435C16.9298 19.8435 15.6955 19.7967 14.4845 19.9295C11.3205 20.281 8.35171 21.6248 6.00015 23.7732C5.43765 24.281 6.26577 25.1092 6.82046 24.6013Z" fill="white"/>
<path d="M35.8517 37.9529C37.7111 36.742 38.9064 34.7576 39.1564 32.5545C39.2892 31.3982 39.2033 30.1951 39.2033 29.0311C39.2033 27.6092 39.2658 26.1951 38.7579 24.8357C38.3829 23.8279 37.8048 22.9139 37.047 22.1482C36.7658 21.8592 36.4767 21.5779 36.1876 21.2889C35.3204 20.4217 34.4532 19.5545 33.5861 18.6873C33.0548 18.1561 32.2267 18.9842 32.7579 19.5154C33.4532 20.2107 34.1486 20.9061 34.8517 21.6092C35.6564 22.4139 36.5783 23.2029 37.1642 24.1873C37.7267 25.1248 38.0236 26.1951 38.0392 27.2889C38.047 27.6482 38.0392 27.9998 38.0392 28.3592C38.0392 29.4842 38.0392 30.6092 38.0392 31.7342C38.0314 33.8123 37.0236 35.7967 35.2657 36.9451C34.6251 37.3514 35.2111 38.367 35.8517 37.9529Z" fill="white"/>
<path d="M4.74224 36.9373C3.06255 35.8357 2.00787 33.9139 1.97662 31.906C1.96099 30.8826 1.97662 29.8592 1.97662 28.8436C1.97662 27.5076 1.92193 26.1951 2.46099 24.9295C2.97662 23.7264 3.89068 22.8748 4.79693 21.9686C5.61724 21.1482 6.43755 20.3279 7.25005 19.5154C7.7813 18.9842 6.95318 18.1561 6.42193 18.6873C5.67974 19.4295 4.93755 20.1717 4.19537 20.9139C3.25005 21.8592 2.24224 22.7654 1.62505 23.9686C1.08599 25.0154 0.804742 26.1717 0.796929 27.3514C0.796929 27.7342 0.796929 28.1092 0.796929 28.492C0.796929 29.5935 0.789117 30.6951 0.796929 31.7967C0.812554 34.2732 2.07037 36.6014 4.14849 37.9607C4.78912 38.367 5.37505 37.3514 4.74224 36.9373Z" fill="white"/>
<path d="M23.8907 16.6563C21.9688 16.6563 20.0391 16.6563 18.1172 16.6563C17.3907 16.6563 16.4844 16.7813 15.8126 16.4532C15.0782 16.0938 14.6407 15.3672 14.6251 14.5626C14.6172 14.1094 14.6251 13.6641 14.6251 13.211C14.6251 12.7735 14.5782 12.3047 14.6563 11.8751C14.7969 11.0938 15.3829 10.4454 16.1485 10.2266C16.836 10.0313 17.6719 10.1485 18.3751 10.1485C19.6172 10.1485 20.8594 10.1485 22.1016 10.1485C22.7969 10.1485 23.5782 10.0547 24.2657 10.1797C25.1485 10.3438 25.8673 11.0782 25.9766 11.9766C26.0391 12.4766 25.9923 13.0157 25.9923 13.5235C25.9923 14.0782 26.0626 14.7032 25.8829 15.2422C25.586 16.086 24.7813 16.6407 23.8907 16.6563C23.1407 16.6719 23.1329 17.8438 23.8907 17.8282C25.7891 17.7891 27.1563 16.2657 27.1641 14.4063C27.1641 13.1563 27.3751 11.6719 26.7032 10.5626C26.2032 9.72662 25.336 9.14849 24.3751 9.01568C24.0391 8.9688 23.7032 8.97662 23.3673 8.97662C22.1407 8.97662 20.9141 8.97662 19.6954 8.97662C18.7266 8.97662 17.7501 8.9688 16.7813 8.97662C14.961 9.00005 13.4922 10.4141 13.461 12.2501C13.4532 12.7657 13.461 13.2735 13.461 13.7891C13.461 14.3985 13.4297 15.0157 13.6329 15.6016C13.961 16.5469 14.6719 17.2813 15.6016 17.6329C16.0547 17.8047 16.5313 17.836 17.0157 17.836C19.2501 17.836 21.4766 17.836 23.711 17.836C23.7735 17.836 23.836 17.836 23.9063 17.836C24.6407 17.8282 24.6407 16.6563 23.8907 16.6563Z" fill="white"/>
</svg>
