<svg width="40" height="40" viewBox="0 0 40 40" fill="none" xmlns="http://www.w3.org/2000/svg">
<path d="M33.3333 31C32.1667 31 31.3333 30.3334 31.3333 30.3334C30.1667 29 28.5 28.3334 26.6667 28.3334C24.8333 28.3334 23.1667 29 22 30.3334C22 30.3334 21.1667 31 20 31C18.8333 31 18 30.3334 18 30.3334C16.8333 29 15.1667 28.3334 13.3333 28.3334C11.1667 28.3334 8.66667 30.3334 8.66667 30.3334C8.16667 30.6667 7.5 31 6.66667 31C5.5 31 4.66667 30.3334 4.66667 30.3334C3.5 29 1.83333 28.3334 0 28.3334V31.6667C0.666667 31.6667 1.5 32 2 32.3334C2 32.3334 4.83333 34.3334 6.66667 34.3334C8.5 34.3334 10 33.5 11.3333 32.3334C11.3333 32.3334 12.5 31.6667 13.3333 31.6667C14.1667 31.6667 14.8333 32 15.3333 32.3334C15.3333 32.3334 18.1667 34.3334 20 34.3334C22.5 34.3334 24.6667 32.3334 24.6667 32.3334C25.1667 32 25.8333 31.6667 26.6667 31.6667C27.5 31.6667 28.1667 32 28.6667 32.3334C28.6667 32.3334 31.5 34.3334 33.3333 34.3334C35.1667 34.3334 36.6667 33.5 38 32.3334C38 32.3334 39.1667 31.6667 40 31.6667V28.3334C37.8333 28.3334 35.3333 30.3334 35.3333 30.3334C34.8333 30.6667 34 31 33.3333 31Z" fill="white"/>
<path d="M33.3333 26C31.5 26 28.6667 24 28.6667 24C28.1667 23.6667 27.3333 23.3334 26.6667 23.3334C26 23.3334 25.1667 23.6667 24.6667 24C24.6667 24 22.5 26 20 26C18.1667 26 15.3333 24 15.3333 24C14.8333 23.6667 14 23.3334 13.3333 23.3334C12.6667 23.3334 11.3333 24 11.3333 24C10 25.1667 8.5 26 6.66667 26C4.83333 26 2 24 2 24C1.5 23.6667 0.666667 23.3334 0 23.3334V25C0.666667 25 1.5 25.3334 2 25.6667C2 25.6667 4.83333 27.6667 6.66667 27.6667C8.5 27.6667 10 26.8334 11.3333 25.6667C11.3333 25.6667 12.5 25 13.3333 25C14.1667 25 14.8333 25.3334 15.3333 25.6667C15.3333 25.6667 18.1667 27.6667 20 27.6667C22.5 27.6667 24.6667 25.6667 24.6667 25.6667C25.1667 25.3334 25.8333 25 26.6667 25C27.5 25 28.1667 25.3334 28.6667 25.6667C28.6667 25.6667 31.5 27.6667 33.3333 27.6667C35.1667 27.6667 36.6667 26.8334 38 25.6667C38 25.6667 39.1667 25 40 25V23.3334C39.3333 23.3334 38 24 38 24C36.6667 25.1667 35.1667 26 33.3333 26Z" fill="white"/>
<path d="M33.3333 21C31.5 21 28.6667 19 28.6667 19C28.1667 18.6667 27.3333 18.3334 26.6667 18.3334C26 18.3334 25.1667 18.6667 24.6667 19C24.6667 19 22.5 21 20 21C18.1667 21 15.3333 19 15.3333 19C14.8333 18.6667 14 18.3334 13.3333 18.3334C12.6667 18.3334 11.3333 19 11.3333 19C10 20.1667 8.5 21 6.66667 21C4.83333 21 2 19 2 19C1.5 18.6667 0.666667 18.3334 0 18.3334V20C0.666667 20 1.5 20.3334 2 20.6667C2 20.6667 4.83333 22.6667 6.66667 22.6667C8.5 22.6667 10 21.8334 11.3333 20.6667C11.3333 20.6667 12.5 20 13.3333 20C14.1667 20 14.8333 20.3334 15.3333 20.6667C15.3333 20.6667 18.1667 22.6667 20 22.6667C22.5 22.6667 24.6667 20.6667 24.6667 20.6667C25.1667 20.3334 25.8333 20 26.6667 20C27.5 20 28.1667 20.3334 28.6667 20.6667C28.6667 20.6667 31.5 22.6667 33.3333 22.6667C35.1667 22.6667 36.6667 21.8334 38 20.6667C38 20.6667 39.1667 20 40 20V18.3334C39.3333 18.3334 38 19 38 19C36.6667 20.1667 35.1667 21 33.3333 21Z" fill="white"/>
<path d="M33.3333 16C31.5 16 28.6667 14 28.6667 14C28.1667 13.6667 27.3333 13.3334 26.6667 13.3334C26 13.3334 25.1667 13.6667 24.6667 14C24.6667 14 22.5 16 20 16C18.1667 16 15.3333 14 15.3333 14C14.8333 13.6667 14 13.3334 13.3333 13.3334C12.6667 13.3334 11.3333 14 11.3333 14C10 15.1667 8.5 16 6.66667 16C4.83333 16 2 14 2 14C1.5 13.6667 0.666667 13.3334 0 13.3334V15C0.666667 15 1.5 15.3334 2 15.6667C2 15.6667 4.83333 17.6667 6.66667 17.6667C8.5 17.6667 10 16.8334 11.3333 15.6667C11.3333 15.6667 12.6667 15 13.3333 15C14 15 14.8333 15.3334 15.3333 15.6667C15.3333 15.6667 18.1667 17.6667 20 17.6667C22.5 17.6667 24.6667 15.6667 24.6667 15.6667C25.1667 15.3334 26 15 26.6667 15C27.3333 15 28.1667 15.3334 28.6667 15.6667C28.6667 15.6667 31.5 17.6667 33.3333 17.6667C35.1667 17.6667 36.6667 16.8334 38 15.6667C38 15.6667 39.1667 15 40 15V13.3334C39.3333 13.3334 38 14 38 14C36.6667 15.1667 35.1667 16 33.3333 16Z" fill="white"/>
<path d="M35.3333 8.66669C34.8333 9.00002 34.1667 9.33335 33.3333 9.33335C32.1667 9.33335 31.3333 8.66669 31.3333 8.66669C30.1667 7.33335 28.5 6.66669 26.6667 6.66669C24.8333 6.66669 23.1667 7.33335 22 8.66669C22 8.66669 21.1667 9.33335 20 9.33335C18.8333 9.33335 18 8.66669 18 8.66669C16.8333 7.33335 15.1667 6.66669 13.3333 6.66669C11.1667 6.66669 8.66667 8.66669 8.66667 8.66669C8.16667 9.00002 7.33333 9.33335 6.66667 9.33335C5.5 9.33335 4.66667 8.66669 4.66667 8.66669C3.5 7.33335 1.83333 6.66669 0 6.66669V10C0.666667 10 1.5 10.3334 2 10.6667C2 10.6667 4.83333 12.6667 6.66667 12.6667C8.5 12.6667 10 11.8334 11.3333 10.6667C11.3333 10.6667 12.6667 10 13.3333 10C14 10 14.8333 10.3334 15.3333 10.6667C15.3333 10.6667 18.1667 12.6667 20 12.6667C22.5 12.6667 24.6667 10.6667 24.6667 10.6667C25.1667 10.3334 26 10 26.6667 10C27.3333 10 28.1667 10.3334 28.6667 10.6667C28.6667 10.6667 31.5 12.6667 33.3333 12.6667C35.1667 12.6667 36.6667 11.8334 38 10.6667C38 10.6667 39.1667 10 40 10V6.66669C37.8333 6.66669 35.3333 8.66669 35.3333 8.66669Z" fill="white"/>
</svg>
