<svg width="11" height="11" xmlns="http://www.w3.org/2000/svg"><style>.st0{fill-rule:evenodd;clip-rule:evenodd}</style><title>background</title><path fill="none" id="canvas_background" d="M-1-1h582v402H-1z"/><g><title>Layer 1</title><g id="svg_1"><g id="svg_2"><path fill="#e60000" id="svg_3" d="M6.435 5.5l3.8-3.8c.3-.3.3-.7 0-1-.3-.3-.7-.3-1 0l-3.8 3.8-3.8-3.8c-.3-.3-.7-.3-1 0-.3.3-.3.7 0 1l3.8 3.8-3.8 3.8c-.3.3-.3.7 0 1 .3.3.7.3 1 0l3.8-3.8 3.8 3.8c.3.3.7.3 1 0 .3-.3.3-.7 0-1l-3.8-3.8z" class="st0"/></g></g></g></svg>