<svg width="14" height="20" viewBox="0 0 14 20" fill="none" xmlns="http://www.w3.org/2000/svg">
<path d="M7.5 20L6.5 20C6.22386 20 6 19.7761 6 19.5L6 3.33L1.56 7.78C1.46612 7.87466 1.33832 7.9279 1.205 7.9279C1.07169 7.9279 0.943888 7.87466 0.850004 7.78L0.150004 7.07C0.055348 6.97612 0.00210514 6.84832 0.00210513 6.715C0.00210513 6.58168 0.055348 6.45388 0.150004 6.36L6.28 0.219999C6.42052 0.0793065 6.61116 0.000174763 6.81 -2.97583e-07L7.19 -3.14193e-07C7.38842 0.00230368 7.57828 0.081115 7.72 0.219999L13.85 6.36C13.9447 6.45388 13.9979 6.58168 13.9979 6.715C13.9979 6.84832 13.9447 6.97612 13.85 7.07L13.14 7.78C13.0478 7.87406 12.9217 7.92707 12.79 7.92707C12.6583 7.92707 12.5322 7.87406 12.44 7.78L8 3.33L8 19.5C8 19.7761 7.77615 20 7.5 20Z" fill="white"/>
</svg>
