<svg width="212" height="223" viewBox="0 0 212 223" fill="none" xmlns="http://www.w3.org/2000/svg">
<g filter="url(#filter0_d)">
<g filter="url(#filter1_d)">
<circle cx="132" cy="107" r="32" transform="rotate(-90 132 107)" fill="#0EB8DB"/>
</g>
<path d="M132.5 117L131.5 117C131.224 117 131 116.776 131 116.5L131 100.33L126.56 104.78C126.466 104.875 126.338 104.928 126.205 104.928C126.072 104.928 125.944 104.875 125.85 104.78L125.15 104.07C125.055 103.976 125.002 103.848 125.002 103.715C125.002 103.582 125.055 103.454 125.15 103.36L131.28 97.22C131.421 97.0793 131.611 97.0002 131.81 97L132.19 97C132.389 97.0023 132.578 97.0811 132.72 97.22L138.85 103.36C138.945 103.454 138.998 103.582 138.998 103.715C138.998 103.848 138.945 103.976 138.85 104.07L138.14 104.78C138.048 104.874 137.922 104.927 137.79 104.927C137.658 104.927 137.532 104.874 137.44 104.78L133 100.33L133 116.5C133 116.776 132.776 117 132.5 117Z" fill="white"/>
</g>
<defs>
<filter id="filter0_d" x="0" y="0" width="264" height="264" filterUnits="userSpaceOnUse" color-interpolation-filters="sRGB">
<feFlood flood-opacity="0" result="BackgroundImageFix"/>
<feColorMatrix in="SourceAlpha" type="matrix" values="0 0 0 0 0 0 0 0 0 0 0 0 0 0 0 0 0 0 127 0"/>
<feOffset dy="25"/>
<feGaussianBlur stdDeviation="50"/>
<feColorMatrix type="matrix" values="0 0 0 0 0 0 0 0 0 0.619608 0 0 0 0 0.866667 0 0 0 0.05 0"/>
<feBlend mode="normal" in2="BackgroundImageFix" result="effect1_dropShadow"/>
<feBlend mode="normal" in="SourceGraphic" in2="effect1_dropShadow" result="shape"/>
</filter>
<filter id="filter1_d" x="60" y="60" width="144" height="144" filterUnits="userSpaceOnUse" color-interpolation-filters="sRGB">
<feFlood flood-opacity="0" result="BackgroundImageFix"/>
<feColorMatrix in="SourceAlpha" type="matrix" values="0 0 0 0 0 0 0 0 0 0 0 0 0 0 0 0 0 0 127 0"/>
<feOffset dy="25"/>
<feGaussianBlur stdDeviation="20"/>
<feColorMatrix type="matrix" values="0 0 0 0 0 0 0 0 0 0.619608 0 0 0 0 0.866667 0 0 0 0.25 0"/>
<feBlend mode="normal" in2="BackgroundImageFix" result="effect1_dropShadow"/>
<feBlend mode="normal" in="SourceGraphic" in2="effect1_dropShadow" result="shape"/>
</filter>
</defs>
</svg>
