<svg width="266" height="52" viewBox="0 0 266 52" fill="none" xmlns="http://www.w3.org/2000/svg">
<path d="M90 5.9469H103.54V11.9666H97.9942V17.6683H102.933V23.3897H97.9942V36.0193H90V5.9469Z" fill="#0059A6"/>
<path d="M113.538 5.9469V36.0193H105.541V5.9469H113.538Z" fill="#0059A6"/>
<path d="M133.139 15.0486H125.712V12.8191C125.712 11.7797 125.616 11.1174 125.428 10.8322C125.237 10.5469 124.923 10.406 124.479 10.406C123.998 10.406 123.634 10.5994 123.387 10.983C123.141 11.3666 123.017 11.9502 123.017 12.7306C123.017 13.7339 123.156 14.4912 123.434 14.9994C123.699 15.5076 124.451 16.1208 125.693 16.8388C129.251 18.9044 131.493 20.5995 132.417 21.9241C133.342 23.2487 133.805 25.3864 133.805 28.3307C133.805 30.4717 133.549 32.0521 133.037 33.0685C132.525 34.0849 131.533 34.9341 130.065 35.6226C128.598 36.3111 126.887 36.6521 124.938 36.6521C122.799 36.6521 120.973 36.2554 119.46 35.4619C117.946 34.6685 116.956 33.6587 116.488 32.4357C116.019 31.2094 115.785 29.4717 115.785 27.216V25.2455H123.209V28.9045C123.209 30.0324 123.313 30.757 123.523 31.0783C123.733 31.3996 124.103 31.5603 124.633 31.5603C125.163 31.5603 125.561 31.357 125.82 30.9471C126.079 30.5373 126.208 29.9307 126.208 29.1275C126.208 27.3569 125.962 26.1996 125.468 25.6553C124.963 25.111 123.714 24.1995 121.729 22.9241C119.74 21.6356 118.424 20.7011 117.779 20.1208C117.135 19.5405 116.599 18.7339 116.173 17.7077C115.748 16.6814 115.538 15.3667 115.538 13.7699C115.538 11.4683 115.837 9.783 116.441 8.71742C117.043 7.65183 118.014 6.81904 119.358 6.21903C120.699 5.61903 122.321 5.31738 124.22 5.31738C126.295 5.31738 128.064 5.64525 129.529 6.301C130.99 6.95674 131.958 7.78298 132.433 8.77971C132.908 9.77644 133.145 11.4715 133.145 13.8585V15.0486H133.139Z" fill="#0059A6"/>
<path d="M154.185 5.9469V36.0193H146.191V23.3864H143.799V36.016H135.805V5.9469H143.799V16.7011H146.191V5.9469H154.185Z" fill="#0059A6"/>
<path d="M156.189 5.9469H162.17C166.03 5.9469 168.641 6.12067 170.003 6.46822C171.363 6.81576 172.399 7.38626 173.108 8.17643C173.817 8.96988 174.261 9.85186 174.437 10.8224C174.613 11.7961 174.702 13.7044 174.702 16.5536V27.0848C174.702 29.7832 174.572 31.5898 174.314 32.498C174.055 33.4095 173.601 34.1209 172.954 34.6357C172.31 35.1505 171.511 35.5078 170.562 35.7144C169.612 35.9177 168.181 36.0193 166.27 36.0193H156.186V5.9469H156.189ZM164.186 11.0912V30.875C165.339 30.875 166.048 30.6488 166.313 30.1963C166.578 29.7439 166.711 28.5143 166.711 26.5078V14.8257C166.711 13.465 166.668 12.5896 166.578 12.206C166.489 11.8224 166.288 11.5404 165.971 11.3601C165.653 11.1797 165.058 11.0912 164.186 11.0912Z" fill="#0059A6"/>
<path d="M176.702 5.9469H182.362C186.136 5.9469 188.688 6.08788 190.023 6.37313C191.358 6.65838 192.446 7.38626 193.288 8.55676C194.13 9.72726 194.552 11.5929 194.552 14.1568C194.552 16.4978 194.256 18.0716 193.658 18.8749C193.063 19.6815 191.892 20.1634 190.143 20.3241C191.725 20.7077 192.789 21.2225 193.334 21.8651C193.88 22.5077 194.216 23.1012 194.352 23.6389C194.484 24.1766 194.552 25.6618 194.552 28.0881V36.0193H187.128V26.0258C187.128 24.4159 186.999 23.4192 186.74 23.0356C186.481 22.652 185.8 22.4585 184.699 22.4585V36.0193H176.705V5.9469H176.702ZM184.699 11.0912V17.7798C185.599 17.7798 186.228 17.6585 186.589 17.4191C186.949 17.1765 187.131 16.3962 187.131 15.0683V13.4125C187.131 12.4584 186.956 11.8322 186.61 11.5371C186.259 11.2388 185.624 11.0912 184.699 11.0912Z" fill="#0059A6"/>
<path d="M197.003 5.9469H210.334V11.9666H204.997V17.6683H209.992V23.3897H204.997V30.0029H210.864V36.0226H197V5.9469H197.003Z" fill="#0059A6"/>
<path d="M227.634 5.9469L232.206 36.0193H224.036L223.607 30.6127H220.746L220.265 36.0193H212L216.079 5.9469H227.634ZM223.398 25.2815C222.994 21.8749 222.587 17.665 222.18 12.6519C221.366 18.4093 220.854 22.6192 220.645 25.2815H223.398Z" fill="#0059A6"/>
<path d="M257.67 5.9469V36.0193H250.681L250.672 15.7175L247.891 36.0193H242.933L239.998 16.1798L239.989 36.0193H233V5.9469H243.347C243.655 7.75347 243.969 9.88464 244.296 12.3404L245.431 19.9897L247.268 5.9469H257.67Z" fill="#0059A6"/>
<path d="M7.6323 48.3632C7.6323 48.3632 13.3377 27.765 14.671 22.8237C15.9426 18.102 17.2804 16.0063 17.2804 16.0063C17.2804 16.0063 11.923 20.2393 7.79049 19.1017C2.82483 17.7351 0 13.7679 0 13.7679C0 13.7679 4.20485 19.7971 6.88203 28.7503C9.52456 37.5946 7.6323 48.3632 7.6323 48.3632Z" fill="#FFC700"/>
<path d="M40.5072 27.6352L43.4917 15.2836C35.8353 14.4184 27.8776 21.0276 27.8776 21.0276C27.8776 21.0276 31.3442 16.2257 36.2677 13.9089C40.6819 11.834 43.1753 11.6754 44.7557 11.6065L47.8276 0C47.8276 0 36.1336 0.509507 28.9141 5.28894C24.9864 7.88775 21.9115 11.943 19.7119 15.6313C16.1142 21.2759 8.48193 51.2215 8.48193 51.2215C8.48193 51.2215 12.167 42.1273 16.527 38.4998C20.1338 35.4973 24.8373 36.3769 24.8373 36.3769C24.8373 36.3769 28.1939 31.6423 31.885 29.5851C35.5686 27.5262 40.5072 27.6352 40.5072 27.6352Z" fill="#FFC700"/>
<path d="M59.877 2.50908C54.4684 0.451826 49.2119 0.0256348 49.2119 0.0256348L42.5092 25.4561L39.4268 37.4215C44.1695 37.6378 50.4519 36.8543 56.4465 32.8183C69.058 24.3201 69.9996 8.98206 69.9996 8.98206C69.9996 8.98206 68.3936 5.75518 59.877 2.50908ZM56.8442 18.1356C54.601 21.0612 52.3306 22.5208 52.3306 22.5208L54.6657 11.802L59.1403 13.6477C59.1403 13.6493 59.0905 15.2099 56.8442 18.1356Z" fill="#0059A6"/>
</svg>
