<svg width="264" height="50" viewBox="0 0 264 50" fill="none" xmlns="http://www.w3.org/2000/svg">
<path d="M90.4749 6.16479H104.057V12.2029H98.4935V17.922H103.447V23.6609H98.4935V36.3291H90.4749V6.16479Z" fill="#157931" stroke="#157931"/>
<path d="M114.02 6.16479V36.3291H105.999V6.16479H114.02Z" fill="#157931" stroke="#157931"/>
<path d="M134.229 15.2947H126.78V13.0583C126.78 12.0158 126.684 11.3515 126.495 11.0653C126.303 10.7792 125.988 10.6378 125.543 10.6378C125.06 10.6378 124.695 10.8318 124.448 11.2166C124.201 11.6014 124.077 12.1868 124.077 12.9695C124.077 13.9759 124.216 14.7356 124.494 15.2453C124.76 15.7551 125.515 16.3701 126.761 17.0903C130.33 19.1622 132.578 20.8625 133.506 22.1911C134.433 23.5198 134.897 25.664 134.897 28.6173C134.897 30.7649 134.641 32.35 134.127 33.3696C133.614 34.3891 132.618 35.2409 131.146 35.9315C129.674 36.6221 127.958 36.9641 126.003 36.9641C123.857 36.9641 122.027 36.5662 120.508 35.7703C118.99 34.9745 117.997 33.9615 117.527 32.7348C117.057 31.5048 116.822 29.7618 116.822 27.4992V25.5226H124.269V29.1929C124.269 30.3242 124.374 31.051 124.584 31.3733C124.794 31.6956 125.165 31.8567 125.697 31.8567C126.229 31.8567 126.628 31.6528 126.888 31.2417C127.148 30.8307 127.278 30.2222 127.278 29.4165C127.278 27.6406 127.03 26.4797 126.535 25.9337C126.028 25.3878 124.776 24.4735 122.784 23.1942C120.79 21.9017 119.469 20.9644 118.823 20.3823C118.177 19.8002 117.638 18.9912 117.212 17.9618C116.785 16.9325 116.575 15.6137 116.575 14.0121C116.575 11.7034 116.875 10.013 117.481 8.94411C118.084 7.87527 119.058 7.03993 120.406 6.43809C121.751 5.83626 123.378 5.53369 125.283 5.53369C127.364 5.53369 129.139 5.86257 130.608 6.52031C132.074 7.17806 133.045 8.00682 133.521 9.0066C133.997 10.0064 134.235 11.7066 134.235 14.1009V15.2947H134.229Z" fill="#157931" stroke="#157931"/>
<path d="M155.851 6.16479V36.3291H147.833V23.6576H145.433V36.3258H137.414V6.16479H145.433V16.9518H147.833V6.16479H155.851Z" fill="#157931" stroke="#157931"/>
<path d="M159.067 6.16479H165.067C168.938 6.16479 171.558 6.3391 172.924 6.6877C174.288 7.03631 175.327 7.60855 176.038 8.40113C176.75 9.19701 177.195 10.0817 177.371 11.0551C177.548 12.0319 177.637 13.9459 177.637 16.8039V27.3673C177.637 30.0739 177.507 31.886 177.248 32.797C176.988 33.7112 176.533 34.4249 175.884 34.9412C175.237 35.4576 174.437 35.816 173.484 36.0232C172.532 36.2271 171.097 36.3291 169.179 36.3291H159.064V6.16479H159.067ZM167.089 11.3248V31.1691C168.246 31.1691 168.957 30.9421 169.223 30.4883C169.489 30.0344 169.622 28.8012 169.622 26.7885V15.0707C169.622 13.7059 169.578 12.8278 169.489 12.443C169.399 12.0582 169.198 11.7754 168.879 11.5945C168.561 11.4136 167.964 11.3248 167.089 11.3248Z" fill="#157931" stroke="#157931"/>
<path d="M180.631 6.16479H186.308C190.093 6.16479 192.654 6.30621 193.993 6.59233C195.332 6.87845 196.424 7.60855 197.268 8.78263C198.112 9.95671 198.536 11.828 198.536 14.3998C198.536 16.7479 198.239 18.3265 197.639 19.1323C197.042 19.9413 195.867 20.4248 194.113 20.5859C195.7 20.9707 196.767 21.487 197.314 22.1316C197.861 22.7762 198.199 23.3715 198.335 23.9108C198.468 24.4502 198.536 25.94 198.536 28.3736V36.3291H191.089V26.305C191.089 24.6902 190.959 23.6905 190.699 23.3057C190.44 22.9209 189.756 22.7269 188.652 22.7269V36.3291H180.634V6.16479H180.631ZM188.652 11.3248V18.0338C189.555 18.0338 190.186 17.9122 190.548 17.6721C190.91 17.4287 191.092 16.646 191.092 15.3141V13.6532C191.092 12.6962 190.916 12.0681 190.57 11.7721C190.217 11.4728 189.58 11.3248 188.652 11.3248Z" fill="#157931" stroke="#157931"/>
<path d="M201.643 6.16479H215.015V12.2029H209.662V17.922H214.672V23.6609H209.662V30.2943H215.547V36.3324H201.64V6.16479H201.643Z" fill="#157931" stroke="#157931"/>
<path d="M232.308 6.16479L236.894 36.3291H228.699L228.269 30.906H225.399L224.917 36.3291H216.626L220.717 6.16479H232.308ZM228.059 25.5585C227.654 22.1415 227.246 17.9187 226.837 12.8903C226.021 18.6653 225.508 22.888 225.297 25.5585H228.059Z" fill="#157931" stroke="#157931"/>
<path d="M263 6.16479V36.3291H255.989L255.98 15.9652L253.191 36.3291H248.218L245.274 16.4289L245.265 36.3291H238.254V6.16479H248.633C248.942 7.97689 249.257 10.1146 249.585 12.5778L250.723 20.2504L252.566 6.16479H263Z" fill="#157931" stroke="#157931"/>
<path d="M8.65597 46.6169C8.65597 46.6169 14.3791 27.1883 15.7165 22.5276C16.992 18.074 18.334 16.0973 18.334 16.0973C18.334 16.0973 12.96 20.09 8.81465 19.0155C3.83358 17.7279 1 13.9861 1 13.9861C1 13.9861 5.21788 19.6729 7.90337 28.1177C10.5541 36.4598 8.65597 46.6169 8.65597 46.6169Z" fill="#147931" stroke="black"/>
<path d="M41.6328 27.066L44.6266 15.4158C36.9465 14.5997 28.9641 20.8336 28.9641 20.8336C28.9641 20.8336 32.4414 16.3044 37.3802 14.1191C41.8081 12.1621 44.3092 12.0124 45.8945 11.9475L48.976 1C48.976 1 37.2457 1.48058 30.0038 5.98862C26.064 8.43986 22.9795 12.2648 20.7731 15.7437C17.1643 21.0678 9.5083 49.313 9.5083 49.313C9.5083 49.313 13.2048 40.7352 17.5783 37.3137C21.1963 34.4816 25.9144 35.3113 25.9144 35.3113C25.9144 35.3113 29.2814 30.8456 32.984 28.9051C36.679 26.9632 41.6328 27.066 41.6328 27.066Z" fill="white" stroke="black"/>
<path d="M61.063 3.3666C55.6376 1.42616 50.3649 1.02417 50.3649 1.02417L43.6413 25.0122L40.5493 36.2981C45.3067 36.5022 51.6086 35.7632 57.6219 31.9563C70.2725 23.9407 71.217 9.47354 71.217 9.47354C71.217 9.47354 69.606 6.42838 61.063 3.3666ZM58.0208 18.1058C55.7706 20.8653 53.4931 22.242 53.4931 22.242L55.8356 12.1318L60.324 13.8728C60.324 13.8743 60.2741 15.3462 58.0208 18.1058Z" fill="#E30613"/>
</svg>
