<svg width="35" height="24" viewBox="0 0 35 24" fill="none" xmlns="http://www.w3.org/2000/svg">
<path d="M33.5715 3.75539C33.1764 2.28697 32.0187 1.12949 30.5505 0.73408C27.8681 0 17.1386 0 17.1386 0C17.1386 0 6.40928 0 3.72689 0.706098C2.28697 1.10125 1.10099 2.28723 0.705836 3.75539C0 6.43752 0 12 0 12C0 12 0 17.5905 0.705836 20.2446C1.10125 21.7128 2.25873 22.8705 3.72715 23.2659C6.43752 24 17.1388 24 17.1388 24C17.1388 24 27.8681 24 30.5505 23.2939C32.0189 22.8988 33.1764 21.741 33.5718 20.2729C34.2776 17.5905 34.2776 12.0282 34.2776 12.0282C34.2776 12.0282 34.3059 6.43752 33.5715 3.75539Z" fill="#FF0000"/>
<path d="M13.7224 17.139L22.6446 12.0002L13.7224 6.86133V17.139Z" fill="white"/>
</svg>
